M48
; DRILL file {KiCad 9.0.6} date 2026-01-26T13:57:07-0300
; FORMAT={-:-/ absolute / metric / decimal}
; #@! TF.CreationDate,2026-01-26T13:57:07-03:00
; #@! TF.GenerationSoftware,Kicad,Pcbnew,9.0.6
; #@! TF.FileFunction,MixedPlating,1,2
FMAT,2
METRIC
; #@! TA.AperFunction,Plated,PTH,ComponentDrill
T1C0.800
; #@! TA.AperFunction,Plated,PTH,ComponentDrill
T2C0.900
; #@! TA.AperFunction,Plated,PTH,ComponentDrill
T3C1.100
; #@! TA.AperFunction,Plated,PTH,ComponentDrill
T4C1.300
; #@! TA.AperFunction,Plated,PTH,ComponentDrill
T5C1.500
; #@! TA.AperFunction,Plated,PTH,ComponentDrill
T6C1.700
; #@! TA.AperFunction,NonPlated,NPTH,ComponentDrill
T7C2.700
%
G90
G05
T1
X90.969Y-92.583
X101.129Y-92.583
X110.019Y-90.353
X110.019Y-93.853
X125.175Y-116.205
X130.175Y-116.205
X133.898Y-81.661
X138.898Y-81.661
X143.55Y-116.459
X148.55Y-116.459
X189.143Y-87.884
X194.143Y-87.884
T2
X93.509Y-87.122
X96.049Y-87.122
X123.912Y-85.003
X126.452Y-85.003
X128.992Y-85.003
X131.532Y-85.003
X131.532Y-107.863
X134.072Y-85.003
X134.072Y-107.863
X136.612Y-85.003
X136.612Y-107.863
X139.152Y-85.003
X139.152Y-107.863
X141.692Y-85.003
X144.232Y-85.003
X146.772Y-85.003
X163.195Y-87.884
X163.195Y-90.424
X163.195Y-92.964
X163.195Y-95.504
X163.195Y-98.044
X163.195Y-100.584
X163.195Y-103.124
X163.195Y-105.664
X163.195Y-108.204
X163.195Y-110.744
X163.195Y-113.284
X163.195Y-115.824
X163.195Y-118.364
X163.195Y-120.904
X163.195Y-123.444
X186.055Y-87.884
X186.055Y-90.424
X186.055Y-92.964
X186.055Y-95.504
X186.055Y-98.044
X186.055Y-100.584
X186.055Y-103.124
X186.055Y-105.664
X186.055Y-108.204
X186.055Y-110.744
X186.055Y-113.284
X186.055Y-115.824
X186.055Y-118.364
X186.055Y-120.904
X186.055Y-123.444
T3
X189.663Y-119.924
X189.663Y-124.424
X196.163Y-119.924
X196.163Y-124.424
T4
X91.44Y-97.997
X91.44Y-102.997
X91.44Y-114.253
X91.44Y-119.253
X101.727Y-96.7
X101.727Y-119.2
X202.405Y-109.01
X202.405Y-114.01
T5
X113.292Y-100.183
X113.292Y-102.733
X113.292Y-105.283
T6
X117.354Y-120.919
X121.314Y-120.919
X125.274Y-120.919
X129.234Y-120.919
X133.194Y-120.919
X137.154Y-120.919
X143.539Y-120.919
X147.499Y-120.919
X151.459Y-120.919
X155.419Y-120.919
T7
X101.727Y-107.95
M30
