%TF.GenerationSoftware,KiCad,Pcbnew,9.0.6*%
%TF.CreationDate,2025-12-24T15:13:44-03:00*%
%TF.ProjectId,RWPendulum,52575065-6e64-4756-9c75-6d2e6b696361,0*%
%TF.SameCoordinates,Original*%
%TF.FileFunction,Copper,L2,Bot*%
%TF.FilePolarity,Positive*%
%FSLAX46Y46*%
G04 Gerber Fmt 4.6, Leading zero omitted, Abs format (unit mm)*
G04 Created by KiCad (PCBNEW 9.0.6) date 2025-12-24 15:13:44*
%MOMM*%
%LPD*%
G01*
G04 APERTURE LIST*
G04 Aperture macros list*
%AMRoundRect*
0 Rectangle with rounded corners*
0 $1 Rounding radius*
0 $2 $3 $4 $5 $6 $7 $8 $9 X,Y pos of 4 corners*
0 Add a 4 corners polygon primitive as box body*
4,1,4,$2,$3,$4,$5,$6,$7,$8,$9,$2,$3,0*
0 Add four circle primitives for the rounded corners*
1,1,$1+$1,$2,$3*
1,1,$1+$1,$4,$5*
1,1,$1+$1,$6,$7*
1,1,$1+$1,$8,$9*
0 Add four rect primitives between the rounded corners*
20,1,$1+$1,$2,$3,$4,$5,0*
20,1,$1+$1,$4,$5,$6,$7,0*
20,1,$1+$1,$6,$7,$8,$9,0*
20,1,$1+$1,$8,$9,$2,$3,0*%
G04 Aperture macros list end*
%TA.AperFunction,ComponentPad*%
%ADD10C,1.600000*%
%TD*%
%TA.AperFunction,ComponentPad*%
%ADD11RoundRect,0.250001X-1.149999X1.149999X-1.149999X-1.149999X1.149999X-1.149999X1.149999X1.149999X0*%
%TD*%
%TA.AperFunction,ComponentPad*%
%ADD12C,2.800000*%
%TD*%
%TA.AperFunction,ComponentPad*%
%ADD13RoundRect,0.250000X0.550000X-0.550000X0.550000X0.550000X-0.550000X0.550000X-0.550000X-0.550000X0*%
%TD*%
%TA.AperFunction,ComponentPad*%
%ADD14C,3.000000*%
%TD*%
%TA.AperFunction,ComponentPad*%
%ADD15RoundRect,0.250001X1.149999X-1.149999X1.149999X1.149999X-1.149999X1.149999X-1.149999X-1.149999X0*%
%TD*%
%TA.AperFunction,ComponentPad*%
%ADD16C,1.500000*%
%TD*%
%TA.AperFunction,ComponentPad*%
%ADD17R,1.500000X1.500000*%
%TD*%
%TA.AperFunction,ComponentPad*%
%ADD18R,1.800000X1.800000*%
%TD*%
%TA.AperFunction,ComponentPad*%
%ADD19C,1.800000*%
%TD*%
%TA.AperFunction,ComponentPad*%
%ADD20RoundRect,0.250000X1.330000X1.800000X-1.330000X1.800000X-1.330000X-1.800000X1.330000X-1.800000X0*%
%TD*%
%TA.AperFunction,ComponentPad*%
%ADD21O,3.160000X4.100000*%
%TD*%
%TA.AperFunction,ComponentPad*%
%ADD22R,1.700000X1.700000*%
%TD*%
%TA.AperFunction,ComponentPad*%
%ADD23C,1.700000*%
%TD*%
%TA.AperFunction,ComponentPad*%
%ADD24C,2.000000*%
%TD*%
%TA.AperFunction,ComponentPad*%
%ADD25R,1.980000X1.980000*%
%TD*%
%TA.AperFunction,ComponentPad*%
%ADD26C,1.980000*%
%TD*%
%TA.AperFunction,ViaPad*%
%ADD27C,2.000000*%
%TD*%
%TA.AperFunction,Conductor*%
%ADD28C,1.000000*%
%TD*%
%TA.AperFunction,Conductor*%
%ADD29C,1.500000*%
%TD*%
G04 APERTURE END LIST*
D10*
%TO.P,C4,1*%
%TO.N,+5V*%
X189143000Y-87884000D03*
%TO.P,C4,2*%
%TO.N,GND*%
X194143000Y-87884000D03*
%TD*%
D11*
%TO.P,J1,1,Pin_1*%
%TO.N,GND*%
X91440000Y-114253000D03*
D12*
%TO.P,J1,2,Pin_2*%
%TO.N,/V+_UNFUSED*%
X91440000Y-119253000D03*
%TD*%
D13*
%TO.P,C5,1*%
%TO.N,+12V*%
X110018564Y-93853000D03*
D10*
%TO.P,C5,2*%
%TO.N,GND*%
X110018564Y-90353000D03*
%TD*%
D14*
%TO.P,F1,1*%
%TO.N,/V+_UNFUSED*%
X101727000Y-119200000D03*
%TO.P,F1,2*%
%TO.N,/V+*%
X101727000Y-96700000D03*
%TD*%
D15*
%TO.P,J4,1,Pin_1*%
%TO.N,/BTN_EN_CONTROL*%
X202405500Y-114010000D03*
D12*
%TO.P,J4,2,Pin_2*%
%TO.N,GND*%
X202405500Y-109010000D03*
%TD*%
D16*
%TO.P,U2,30,VIN*%
%TO.N,+5V*%
X186055000Y-87884000D03*
%TO.P,U2,29,GND*%
%TO.N,GND*%
X186055000Y-90424000D03*
%TO.P,U2,28,D13*%
%TO.N,unconnected-(U2-D13-Pad28)*%
X186055000Y-92964000D03*
%TO.P,U2,27,D12*%
%TO.N,unconnected-(U2-D12-Pad27)*%
X186055000Y-95504000D03*
%TO.P,U2,26,D14*%
%TO.N,unconnected-(U2-D14-Pad26)*%
X186055000Y-98044000D03*
%TO.P,U2,25,D27*%
%TO.N,unconnected-(U2-D27-Pad25)*%
X186055000Y-100584000D03*
%TO.P,U2,24,D26*%
%TO.N,/DRIVER_PWM2*%
X186055000Y-103124000D03*
%TO.P,U2,23,D25*%
%TO.N,/DRIVER_PWM1*%
X186055000Y-105664000D03*
%TO.P,U2,22,D33*%
%TO.N,unconnected-(U2-D33-Pad22)*%
X186055000Y-108204000D03*
%TO.P,U2,21,D32*%
%TO.N,unconnected-(U2-D32-Pad21)*%
X186055000Y-110744000D03*
%TO.P,U2,20,D35*%
%TO.N,unconnected-(U2-D35-Pad20)*%
X186055000Y-113284000D03*
%TO.P,U2,19,D34*%
%TO.N,/BTN_EN_CONTROL*%
X186055000Y-115824000D03*
%TO.P,U2,18,VN*%
%TO.N,unconnected-(U2-VN-Pad18)*%
X186055000Y-118364000D03*
%TO.P,U2,17,VP*%
%TO.N,unconnected-(U2-VP-Pad17)*%
X186055000Y-120904000D03*
%TO.P,U2,16,EN*%
%TO.N,unconnected-(U2-EN-Pad16)*%
X186055000Y-123444000D03*
%TO.P,U2,15,D23*%
%TO.N,unconnected-(U2-D23-Pad15)*%
X163195000Y-123444000D03*
%TO.P,U2,14,D22*%
%TO.N,unconnected-(U2-D22-Pad14)*%
X163195000Y-120904000D03*
%TO.P,U2,13,TX0*%
%TO.N,unconnected-(U2-TX0-Pad13)*%
X163195000Y-118364000D03*
%TO.P,U2,12,RX0*%
%TO.N,unconnected-(U2-RX0-Pad12)*%
X163195000Y-115824000D03*
%TO.P,U2,11,D21*%
%TO.N,/BASE_ENC_B*%
X163195000Y-113284000D03*
%TO.P,U2,10,D19*%
%TO.N,/BASE_ENC_A*%
X163195000Y-110744000D03*
%TO.P,U2,9,D18*%
%TO.N,/MOTOR_ENC_B*%
X163195000Y-108204000D03*
%TO.P,U2,8,D5*%
%TO.N,/MOTOR_ENC_A*%
X163195000Y-105664000D03*
%TO.P,U2,7,TX2*%
%TO.N,unconnected-(U2-TX2-Pad7)*%
X163195000Y-103124000D03*
%TO.P,U2,6,RX2*%
%TO.N,unconnected-(U2-RX2-Pad6)*%
X163195000Y-100584000D03*
%TO.P,U2,5,D4*%
%TO.N,unconnected-(U2-D4-Pad5)*%
X163195000Y-98044000D03*
%TO.P,U2,4,D2*%
%TO.N,unconnected-(U2-D2-Pad4)*%
X163195000Y-95504000D03*
%TO.P,U2,3,D15*%
%TO.N,unconnected-(U2-D15-Pad3)*%
X163195000Y-92964000D03*
%TO.P,U2,2,GND*%
%TO.N,GND*%
X163195000Y-90424000D03*
D17*
%TO.P,U2,1,3V3*%
%TO.N,+3V3*%
X163195000Y-87884000D03*
%TD*%
D18*
%TO.P,D1,1,K*%
%TO.N,GND*%
X96048564Y-87122000D03*
D19*
%TO.P,D1,2,A*%
%TO.N,Net-(D1-A)*%
X93508564Y-87122000D03*
%TD*%
D20*
%TO.P,J3,1,Pin_1*%
%TO.N,/BASE_ENC_B*%
X155419000Y-120919000D03*
D21*
%TO.P,J3,2,Pin_2*%
%TO.N,/BASE_ENC_A*%
X151459000Y-120919000D03*
%TO.P,J3,3,Pin_3*%
%TO.N,GND*%
X147499000Y-120919000D03*
%TO.P,J3,4,Pin_4*%
%TO.N,+3V3*%
X143539000Y-120919000D03*
%TD*%
D10*
%TO.P,C3,1*%
%TO.N,+5V*%
X138898000Y-81661000D03*
%TO.P,C3,2*%
%TO.N,GND*%
X133898000Y-81661000D03*
%TD*%
D20*
%TO.P,J2,1,Pin_1*%
%TO.N,/MOTOR_ENC_B*%
X137154000Y-120919000D03*
D21*
%TO.P,J2,2,Pin_2*%
%TO.N,/MOTOR_ENC_A*%
X133194000Y-120919000D03*
%TO.P,J2,3,Pin_3*%
%TO.N,+3V3*%
X129234000Y-120919000D03*
%TO.P,J2,4,Pin_4*%
%TO.N,GND*%
X125274000Y-120919000D03*
%TO.P,J2,5,Pin_5*%
%TO.N,/MOTOR+*%
X121314000Y-120919000D03*
%TO.P,J2,6,Pin_6*%
%TO.N,/MOTOR-*%
X117354000Y-120919000D03*
%TD*%
D22*
%TO.P,A1,1,VM*%
%TO.N,unconnected-(A1-VM-Pad1)*%
X146772000Y-85003000D03*
D23*
%TO.P,A1,2,GND*%
%TO.N,GND*%
X144232000Y-85003000D03*
%TO.P,A1,3,VCC*%
%TO.N,+5V*%
X141692000Y-85003000D03*
%TO.P,A1,4,OCC*%
%TO.N,unconnected-(A1-OCC-Pad4)*%
X139152000Y-85003000D03*
%TO.P,A1,5,EN*%
%TO.N,+5V*%
X136612000Y-85003000D03*
%TO.P,A1,6,ENB*%
%TO.N,GND*%
X134072000Y-85003000D03*
%TO.P,A1,7,PWM2*%
%TO.N,/DRIVER_PWM2*%
X131532000Y-85003000D03*
%TO.P,A1,8,PWM1*%
%TO.N,/DRIVER_PWM1*%
X128992000Y-85003000D03*
%TO.P,A1,9,OCM*%
%TO.N,unconnected-(A1-OCM-Pad9)*%
X126452000Y-85003000D03*
%TO.P,A1,10,DIAG*%
%TO.N,unconnected-(A1-DIAG-Pad10)*%
X123912000Y-85003000D03*
%TO.P,A1,11,VIN*%
%TO.N,+12V*%
X139152000Y-107863000D03*
%TO.P,A1,12,GND*%
%TO.N,GND*%
X136612000Y-107863000D03*
%TO.P,A1,13,OUT2*%
%TO.N,/MOTOR+*%
X134072000Y-107863000D03*
%TO.P,A1,14,OUT1*%
%TO.N,/MOTOR-*%
X131532000Y-107863000D03*
%TD*%
D10*
%TO.P,R2,1*%
%TO.N,Net-(D1-A)*%
X90968564Y-92583000D03*
%TO.P,R2,2*%
%TO.N,+12V*%
X101128564Y-92583000D03*
%TD*%
D11*
%TO.P,SW1,1,A*%
%TO.N,+12V*%
X91440000Y-97997000D03*
D12*
%TO.P,SW1,2,B*%
%TO.N,/V+*%
X91440000Y-102997000D03*
%TD*%
D24*
%TO.P,SW2,2,2*%
%TO.N,/BTN_EN_CONTROL*%
X189663000Y-119924000D03*
X196163000Y-119924000D03*
%TO.P,SW2,1,1*%
%TO.N,GND*%
X189663000Y-124424000D03*
X196163000Y-124424000D03*
%TD*%
D10*
%TO.P,C1,1*%
%TO.N,GND*%
X148550000Y-116205000D03*
%TO.P,C1,2*%
%TO.N,+3V3*%
X143550000Y-116205000D03*
%TD*%
%TO.P,C2,1*%
%TO.N,GND*%
X125175000Y-116205000D03*
%TO.P,C2,2*%
%TO.N,+3V3*%
X130175000Y-116205000D03*
%TD*%
D25*
%TO.P,IC1,1,INPUT*%
%TO.N,+12V*%
X113292000Y-105283000D03*
D26*
%TO.P,IC1,2,GROUND*%
%TO.N,GND*%
X113292000Y-102733000D03*
%TO.P,IC1,3,OUTPUT*%
%TO.N,+5V*%
X113292000Y-100183000D03*
%TD*%
D27*
%TO.N,+5V*%
X126238000Y-82042000D03*
X141859000Y-81915000D03*
%TD*%
D28*
%TO.N,/BTN_EN_CONTROL*%
X202405500Y-114010000D02*
X191552000Y-114010000D01*
X189230000Y-116332000D02*
X189663000Y-116765000D01*
X191552000Y-114010000D02*
X189230000Y-116332000D01*
X189663000Y-116765000D02*
X189663000Y-119924000D01*
X188722000Y-115824000D02*
X189230000Y-116332000D01*
X186055000Y-115824000D02*
X188722000Y-115824000D01*
%TO.N,/DRIVER_PWM1*%
X202184000Y-82042000D02*
X202184000Y-100457000D01*
X196977000Y-105664000D02*
X186055000Y-105664000D01*
X202184000Y-100457000D02*
X196977000Y-105664000D01*
X195199000Y-75057000D02*
X202184000Y-82042000D01*
X132207000Y-75057000D02*
X195199000Y-75057000D01*
X128992000Y-85003000D02*
X128992000Y-78272000D01*
X128992000Y-78272000D02*
X132207000Y-75057000D01*
D29*
%TO.N,/MOTOR+*%
X134072000Y-109641000D02*
X134072000Y-107863000D01*
%TO.N,+12V*%
X119507000Y-105283000D02*
X121539000Y-103251000D01*
%TO.N,/MOTOR-*%
X122174000Y-107823000D02*
X122214000Y-107863000D01*
%TO.N,+3V3*%
X129159000Y-120844000D02*
X129234000Y-120919000D01*
D28*
%TO.N,/DRIVER_PWM2*%
X132865000Y-77955000D02*
X193525000Y-77955000D01*
%TO.N,Net-(D1-A)*%
X91948000Y-87122000D02*
X93508564Y-87122000D01*
X90968564Y-92583000D02*
X90968564Y-88101436D01*
X90968564Y-88101436D02*
X91948000Y-87122000D01*
D29*
%TO.N,GND*%
X133898000Y-84829000D02*
X134072000Y-85003000D01*
%TO.N,+12V*%
X139152000Y-104989000D02*
X139152000Y-107863000D01*
%TO.N,/MOTOR+*%
X124460000Y-111379000D02*
X132334000Y-111379000D01*
D28*
%TO.N,/DRIVER_PWM2*%
X193525000Y-77955000D02*
X199263000Y-83693000D01*
D29*
%TO.N,+12V*%
X137414000Y-103251000D02*
X139152000Y-104989000D01*
%TO.N,/MOTOR-*%
X117302000Y-121473000D02*
X117302000Y-112695000D01*
%TO.N,+3V3*%
X143472000Y-116791000D02*
X143550000Y-116713000D01*
D28*
%TO.N,/DRIVER_PWM2*%
X131532000Y-85003000D02*
X131532000Y-79288000D01*
D29*
%TO.N,GND*%
X133898000Y-82193000D02*
X133898000Y-84829000D01*
%TO.N,+3V3*%
X143487724Y-121417276D02*
X143472000Y-121433000D01*
%TO.N,+12V*%
X121539000Y-103251000D02*
X137414000Y-103251000D01*
D28*
%TO.N,/DRIVER_PWM2*%
X131532000Y-79288000D02*
X132865000Y-77955000D01*
X199263000Y-83693000D02*
X199263000Y-99314000D01*
D29*
%TO.N,+3V3*%
X143472000Y-121433000D02*
X143472000Y-116791000D01*
%TO.N,/MOTOR-*%
X122214000Y-107863000D02*
X131532000Y-107863000D01*
%TO.N,GND*%
X113292000Y-102733000D02*
X117592000Y-102733000D01*
%TO.N,/MOTOR-*%
X117302000Y-112695000D02*
X122174000Y-107823000D01*
%TO.N,+12V*%
X113292000Y-105283000D02*
X119507000Y-105283000D01*
%TO.N,/MOTOR+*%
X121262000Y-114577000D02*
X124460000Y-111379000D01*
X121262000Y-121473000D02*
X121262000Y-114577000D01*
X132334000Y-111379000D02*
X134072000Y-109641000D01*
D28*
%TO.N,/MOTOR_ENC_A*%
X133142000Y-121473000D02*
X133142000Y-119207000D01*
X133194000Y-120919000D02*
X133194000Y-118520000D01*
X133194000Y-118520000D02*
X139827000Y-111887000D01*
X139827000Y-111887000D02*
X154051000Y-111887000D01*
X154051000Y-111887000D02*
X160274000Y-105664000D01*
%TO.N,/BASE_ENC_A*%
X156490000Y-114909000D02*
X160655000Y-110744000D01*
X151392000Y-121433000D02*
X151392000Y-117086000D01*
%TO.N,/MOTOR_ENC_A*%
X160274000Y-105664000D02*
X163195000Y-105664000D01*
%TO.N,/BASE_ENC_A*%
X151392000Y-117086000D02*
X153569000Y-114909000D01*
%TO.N,/MOTOR_ENC_B*%
X137102000Y-117533000D02*
X141227000Y-113408000D01*
%TO.N,/DRIVER_PWM2*%
X195453000Y-103124000D02*
X186055000Y-103124000D01*
%TO.N,/MOTOR_ENC_B*%
X137102000Y-121473000D02*
X137102000Y-117533000D01*
X155705000Y-113408000D02*
X160909000Y-108204000D01*
%TO.N,/BASE_ENC_A*%
X160655000Y-110744000D02*
X163195000Y-110744000D01*
%TO.N,/DRIVER_PWM2*%
X199263000Y-99314000D02*
X195453000Y-103124000D01*
%TO.N,/MOTOR_ENC_B*%
X141227000Y-113408000D02*
X155705000Y-113408000D01*
%TO.N,/BASE_ENC_A*%
X153569000Y-114909000D02*
X156490000Y-114909000D01*
%TO.N,/BASE_ENC_B*%
X155352000Y-118206000D02*
X160274000Y-113284000D01*
X155352000Y-121433000D02*
X155352000Y-118206000D01*
%TO.N,/MOTOR_ENC_B*%
X160909000Y-108204000D02*
X163195000Y-108204000D01*
%TO.N,/BASE_ENC_B*%
X160274000Y-113284000D02*
X163195000Y-113284000D01*
D29*
%TO.N,GND*%
X125175000Y-120820000D02*
X125274000Y-120919000D01*
X125175000Y-116205000D02*
X125175000Y-120820000D01*
%TD*%
%TA.AperFunction,Conductor*%
%TO.N,+12V*%
G36*
X89911103Y-91332685D02*
G01*
X89956858Y-91385489D01*
X89968064Y-91437000D01*
X89968064Y-91707237D01*
X89948379Y-91774276D01*
X89944382Y-91780122D01*
X89856279Y-91901386D01*
X89763345Y-92083776D01*
X89700086Y-92278465D01*
X89668064Y-92480648D01*
X89668064Y-92685351D01*
X89700086Y-92887534D01*
X89763345Y-93082223D01*
X89856279Y-93264613D01*
X89976592Y-93430213D01*
X90121350Y-93574971D01*
X90276313Y-93687556D01*
X90286954Y-93695287D01*
X90403171Y-93754503D01*
X90469340Y-93788218D01*
X90469342Y-93788218D01*
X90469345Y-93788220D01*
X90573701Y-93822127D01*
X90664029Y-93851477D01*
X90765121Y-93867488D01*
X90866212Y-93883500D01*
X90866213Y-93883500D01*
X91070915Y-93883500D01*
X91070916Y-93883500D01*
X91273098Y-93851477D01*
X91467783Y-93788220D01*
X91650174Y-93695287D01*
X91743154Y-93627732D01*
X91815777Y-93574971D01*
X91815779Y-93574968D01*
X91815783Y-93574966D01*
X91960530Y-93430219D01*
X91960532Y-93430215D01*
X91960535Y-93430213D01*
X92013296Y-93357590D01*
X92080851Y-93264610D01*
X92173784Y-93082219D01*
X92237041Y-92887534D01*
X92269064Y-92685352D01*
X92269064Y-92480648D01*
X92237041Y-92278466D01*
X92173784Y-92083781D01*
X92173782Y-92083778D01*
X92173782Y-92083776D01*
X92140067Y-92017607D01*
X92080851Y-91901390D01*
X92068218Y-91884003D01*
X91992746Y-91780122D01*
X91969266Y-91714316D01*
X91969064Y-91707237D01*
X91969064Y-91437000D01*
X91988749Y-91369961D01*
X92041553Y-91324206D01*
X92093064Y-91313000D01*
X106048000Y-91313000D01*
X106115039Y-91332685D01*
X106160794Y-91385489D01*
X106172000Y-91437000D01*
X106172000Y-92583000D01*
X115159029Y-92583000D01*
X115226068Y-92602685D01*
X115271823Y-92655489D01*
X115281767Y-92724647D01*
X115252742Y-92788203D01*
X115235865Y-92804325D01*
X111239941Y-95959000D01*
X111178792Y-96016095D01*
X111151319Y-96046373D01*
X111100434Y-96112751D01*
X111040663Y-96243627D01*
X111020976Y-96310672D01*
X111000500Y-96453091D01*
X111000500Y-101346981D01*
X111012933Y-101458401D01*
X111012935Y-101458413D01*
X111024985Y-101511735D01*
X111024991Y-101511753D01*
X111061676Y-101617683D01*
X111061678Y-101617686D01*
X111141407Y-101737456D01*
X111141411Y-101737460D01*
X111141413Y-101737463D01*
X111187996Y-101789504D01*
X111188002Y-101789509D01*
X111188007Y-101789515D01*
X111188008Y-101789516D01*
X111236091Y-101829841D01*
X111298252Y-101881973D01*
X111430074Y-101939623D01*
X111430076Y-101939624D01*
X111497425Y-101958225D01*
X111640152Y-101976401D01*
X111801667Y-101973795D01*
X111869012Y-101992396D01*
X111915613Y-102044455D01*
X111926671Y-102113444D01*
X111914152Y-102154067D01*
X111910702Y-102160837D01*
X111910697Y-102160849D01*
X111838201Y-102383972D01*
X111801500Y-102615695D01*
X111801500Y-102850304D01*
X111838201Y-103082027D01*
X111910697Y-103305150D01*
X112017212Y-103514195D01*
X112155104Y-103703989D01*
X112155108Y-103703994D01*
X112321005Y-103869891D01*
X112321010Y-103869895D01*
X112477654Y-103983702D01*
X112510808Y-104007790D01*
X112706499Y-104107500D01*
X112719849Y-104114302D01*
X112831410Y-104150550D01*
X112942974Y-104186799D01*
X113174695Y-104223500D01*
X113174696Y-104223500D01*
X113409304Y-104223500D01*
X113409305Y-104223500D01*
X113641026Y-104186799D01*
X113864153Y-104114301D01*
X114073192Y-104007790D01*
X114074032Y-104007180D01*
X114074406Y-104007046D01*
X114077348Y-104005244D01*
X114077726Y-104005861D01*
X114139838Y-103983702D01*
X114146915Y-103983500D01*
X116208000Y-103983500D01*
X116275039Y-104003185D01*
X116320794Y-104055989D01*
X116332000Y-104107500D01*
X116332000Y-107699000D01*
X116312315Y-107766039D01*
X116259511Y-107811794D01*
X116208000Y-107823000D01*
X106296000Y-107823000D01*
X106228961Y-107803315D01*
X106183206Y-107750511D01*
X106172000Y-107699000D01*
X106172000Y-95123000D01*
X103000085Y-95123000D01*
X102933046Y-95103315D01*
X102924598Y-95097375D01*
X102840803Y-95033075D01*
X102613700Y-94901958D01*
X102613690Y-94901953D01*
X102371428Y-94801605D01*
X102371421Y-94801603D01*
X102371419Y-94801602D01*
X102118116Y-94733730D01*
X102060339Y-94726123D01*
X101858127Y-94699500D01*
X101858120Y-94699500D01*
X101595880Y-94699500D01*
X101595872Y-94699500D01*
X101364772Y-94729926D01*
X101335884Y-94733730D01*
X101082581Y-94801602D01*
X101082571Y-94801605D01*
X100840309Y-94901953D01*
X100840299Y-94901958D01*
X100613196Y-95033075D01*
X100529402Y-95097375D01*
X100464233Y-95122570D01*
X100453915Y-95123000D01*
X96012000Y-95123000D01*
X96012000Y-100079000D01*
X95992315Y-100146039D01*
X95939511Y-100191794D01*
X95888000Y-100203000D01*
X87746500Y-100203000D01*
X87679461Y-100183315D01*
X87633706Y-100130511D01*
X87622500Y-100079000D01*
X87622500Y-91437000D01*
X87642185Y-91369961D01*
X87694989Y-91324206D01*
X87746500Y-91313000D01*
X89844064Y-91313000D01*
X89911103Y-91332685D01*
G37*
%TD.AperFunction*%
%TD*%
%TA.AperFunction,Conductor*%
%TO.N,+5V*%
G36*
X137922000Y-83123947D02*
G01*
X137922000Y-84412510D01*
X137908485Y-84468804D01*
X137900442Y-84484588D01*
X137834753Y-84686759D01*
X137801500Y-84896713D01*
X137801500Y-85109286D01*
X137834753Y-85319239D01*
X137900444Y-85521416D01*
X137908484Y-85537194D01*
X137922000Y-85593490D01*
X137922000Y-85982000D01*
X137902315Y-86049039D01*
X137849511Y-86094794D01*
X137798000Y-86106000D01*
X135633000Y-86106000D01*
X135565961Y-86086315D01*
X135520206Y-86033511D01*
X135509000Y-85982000D01*
X135509000Y-83148419D01*
X135509000Y-82296000D01*
X137922000Y-82296000D01*
X137922000Y-83123947D01*
G37*
%TD.AperFunction*%
%TD*%
%TA.AperFunction,Conductor*%
%TO.N,+5V*%
G36*
X127933310Y-81163427D02*
G01*
X127979682Y-81215690D01*
X127991500Y-81268523D01*
X127991500Y-83101911D01*
X127971815Y-83168950D01*
X127919011Y-83214705D01*
X127868758Y-83225905D01*
X119380000Y-83312000D01*
X119380000Y-101223983D01*
X119360315Y-101291022D01*
X119307511Y-101336777D01*
X119258000Y-101347967D01*
X114053383Y-101431912D01*
X113995089Y-101418413D01*
X113864153Y-101351698D01*
X113641027Y-101279201D01*
X113525165Y-101260850D01*
X113409305Y-101242500D01*
X113174695Y-101242500D01*
X113097454Y-101254733D01*
X112942972Y-101279201D01*
X112719849Y-101351697D01*
X112539263Y-101443711D01*
X112484968Y-101457210D01*
X111632000Y-101470967D01*
X111564651Y-101452366D01*
X111518051Y-101400307D01*
X111506000Y-101346983D01*
X111506000Y-96453090D01*
X111525685Y-96386051D01*
X111553164Y-96355765D01*
X116332000Y-92583000D01*
X116332000Y-81402551D01*
X116351685Y-81335512D01*
X116404489Y-81289757D01*
X116454540Y-81278560D01*
X127866047Y-81144532D01*
X127933310Y-81163427D01*
G37*
%TD.AperFunction*%
%TA.AperFunction,Conductor*%
G36*
X191967614Y-80411347D02*
G01*
X192013986Y-80463610D01*
X192025791Y-80514646D01*
X192149177Y-89028203D01*
X192130466Y-89095521D01*
X192078331Y-89142036D01*
X192025190Y-89154000D01*
X182115000Y-89154000D01*
X182047961Y-89134315D01*
X182002206Y-89081511D01*
X181991000Y-89030000D01*
X181991000Y-82677000D01*
X142875654Y-83073706D01*
X142875000Y-83058000D01*
X140462000Y-83058000D01*
X140462000Y-83098186D01*
X137922000Y-83123947D01*
X137922000Y-82296000D01*
X135509000Y-82296000D01*
X135509000Y-83148419D01*
X135273757Y-83150804D01*
X135206521Y-83131800D01*
X135160234Y-83079462D01*
X135148500Y-83026810D01*
X135148500Y-82094582D01*
X135147838Y-82090408D01*
X135145307Y-82074424D01*
X135149848Y-82016709D01*
X135166477Y-81965534D01*
X135198500Y-81763352D01*
X135198500Y-81558648D01*
X135166477Y-81356466D01*
X135122216Y-81220247D01*
X135120222Y-81150409D01*
X135156302Y-81090576D01*
X135219002Y-81059747D01*
X135238672Y-81057941D01*
X191900348Y-80392452D01*
X191967614Y-80411347D01*
G37*
%TD.AperFunction*%
%TD*%
%TA.AperFunction,Conductor*%
%TO.N,/V+_UNFUSED*%
G36*
X107639039Y-116224685D02*
G01*
X107684794Y-116277489D01*
X107696000Y-116329000D01*
X107696000Y-129543000D01*
X107676315Y-129610039D01*
X107623511Y-129655794D01*
X107572000Y-129667000D01*
X95882000Y-129667000D01*
X95814961Y-129647315D01*
X95769206Y-129594511D01*
X95758000Y-129543000D01*
X95758000Y-122301000D01*
X87746500Y-122301000D01*
X87679461Y-122281315D01*
X87633706Y-122228511D01*
X87622500Y-122177000D01*
X87622500Y-116329000D01*
X87642185Y-116261961D01*
X87694989Y-116216206D01*
X87746500Y-116205000D01*
X107572000Y-116205000D01*
X107639039Y-116224685D01*
G37*
%TD.AperFunction*%
%TD*%
%TA.AperFunction,Conductor*%
%TO.N,/V+*%
G36*
X101833051Y-95206061D02*
G01*
X101863056Y-95210011D01*
X102011234Y-95229519D01*
X102027125Y-95232680D01*
X102200752Y-95279204D01*
X102216090Y-95284410D01*
X102382129Y-95353185D01*
X102396672Y-95360358D01*
X102552316Y-95450218D01*
X102565805Y-95459231D01*
X102616837Y-95498391D01*
X102616852Y-95498402D01*
X102616864Y-95498411D01*
X102633846Y-95510889D01*
X102642294Y-95516829D01*
X102659749Y-95528567D01*
X102790626Y-95588338D01*
X102857665Y-95608023D01*
X102857669Y-95608024D01*
X103000085Y-95628500D01*
X105542500Y-95628500D01*
X105609539Y-95648185D01*
X105655294Y-95700989D01*
X105666500Y-95752500D01*
X105666500Y-106429000D01*
X105646815Y-106496039D01*
X105594011Y-106541794D01*
X105542500Y-106553000D01*
X102540407Y-106553000D01*
X102484112Y-106539485D01*
X102341383Y-106466760D01*
X102101785Y-106388910D01*
X101852962Y-106349500D01*
X101601038Y-106349500D01*
X101476626Y-106369205D01*
X101352214Y-106388910D01*
X101112616Y-106466760D01*
X100969888Y-106539485D01*
X100913593Y-106553000D01*
X87746500Y-106553000D01*
X87679461Y-106533315D01*
X87633706Y-106480511D01*
X87622500Y-106429000D01*
X87622500Y-100832500D01*
X87642185Y-100765461D01*
X87694989Y-100719706D01*
X87746500Y-100708500D01*
X95887990Y-100708500D01*
X95888000Y-100708500D01*
X95995456Y-100696947D01*
X96046967Y-100685741D01*
X96081197Y-100674347D01*
X96149497Y-100651616D01*
X96149501Y-100651613D01*
X96149504Y-100651613D01*
X96270543Y-100573825D01*
X96323347Y-100528070D01*
X96417567Y-100419336D01*
X96477338Y-100288459D01*
X96497023Y-100221420D01*
X96497024Y-100221416D01*
X96517500Y-100079000D01*
X96517500Y-95752500D01*
X96537185Y-95685461D01*
X96589989Y-95639706D01*
X96641500Y-95628500D01*
X100453921Y-95628500D01*
X100459177Y-95628390D01*
X100474963Y-95628062D01*
X100485281Y-95627632D01*
X100506298Y-95626317D01*
X100646516Y-95594060D01*
X100704536Y-95571628D01*
X100705494Y-95571325D01*
X100711685Y-95568865D01*
X100711689Y-95568864D01*
X100837139Y-95498409D01*
X100888198Y-95459228D01*
X100901684Y-95450216D01*
X101057325Y-95360358D01*
X101071868Y-95353185D01*
X101237896Y-95284415D01*
X101253242Y-95279205D01*
X101426870Y-95232682D01*
X101442774Y-95229519D01*
X101620948Y-95206060D01*
X101637134Y-95205000D01*
X101816866Y-95205000D01*
X101833051Y-95206061D01*
G37*
%TD.AperFunction*%
%TD*%
%TA.AperFunction,Conductor*%
%TO.N,+5V*%
G36*
X142875654Y-83073706D02*
G01*
X142875653Y-83073706D01*
X142938740Y-84587801D01*
X142932779Y-84631279D01*
X142914753Y-84686757D01*
X142881500Y-84896713D01*
X142881500Y-85109286D01*
X142914753Y-85319240D01*
X142971976Y-85495355D01*
X142977937Y-85528511D01*
X142996618Y-85976838D01*
X142979742Y-86044638D01*
X142928889Y-86092552D01*
X142872726Y-86106000D01*
X140586000Y-86106000D01*
X140518961Y-86086315D01*
X140473206Y-86033511D01*
X140462000Y-85982000D01*
X140462000Y-85361183D01*
X140468068Y-85322867D01*
X140469246Y-85319243D01*
X140502500Y-85109287D01*
X140502500Y-84896713D01*
X140469246Y-84686757D01*
X140468068Y-84683131D01*
X140462000Y-84644815D01*
X140462000Y-83098186D01*
X140462000Y-83058000D01*
X142875000Y-83058000D01*
X142875654Y-83073706D01*
G37*
%TD.AperFunction*%
%TD*%
%TA.AperFunction,Conductor*%
%TO.N,+3V3*%
G36*
X166059039Y-86379685D02*
G01*
X166104794Y-86432489D01*
X166116000Y-86484000D01*
X166116000Y-89157000D01*
X166096315Y-89224039D01*
X166043511Y-89269794D01*
X165992000Y-89281000D01*
X163735970Y-89281000D01*
X163679677Y-89267486D01*
X163675029Y-89265118D01*
X163675028Y-89265117D01*
X163675025Y-89265116D01*
X163597925Y-89240064D01*
X163487826Y-89204290D01*
X163293422Y-89173500D01*
X163293417Y-89173500D01*
X163096583Y-89173500D01*
X163096578Y-89173500D01*
X162902173Y-89204290D01*
X162756300Y-89251688D01*
X162714975Y-89265116D01*
X162714972Y-89265117D01*
X162714970Y-89265118D01*
X162710323Y-89267486D01*
X162654030Y-89281000D01*
X161290000Y-89281000D01*
X148193468Y-110826907D01*
X148141826Y-110873970D01*
X148087507Y-110886500D01*
X139931675Y-110886500D01*
X139931655Y-110886499D01*
X139925541Y-110886499D01*
X139728460Y-110886499D01*
X139728457Y-110886499D01*
X139535172Y-110924946D01*
X139535164Y-110924948D01*
X139353088Y-111000366D01*
X139353079Y-111000371D01*
X139189219Y-111109859D01*
X139189215Y-111109862D01*
X134196431Y-116102648D01*
X132556220Y-117742859D01*
X132556218Y-117742861D01*
X132486538Y-117812540D01*
X132416859Y-117882219D01*
X132307371Y-118046079D01*
X132307364Y-118046092D01*
X132231950Y-118228160D01*
X132231947Y-118228170D01*
X132193500Y-118421456D01*
X132193500Y-118552693D01*
X132173815Y-118619732D01*
X132131500Y-118660080D01*
X132035663Y-118715411D01*
X132035647Y-118715422D01*
X131819289Y-118881439D01*
X131819282Y-118881445D01*
X131626445Y-119074282D01*
X131626439Y-119074289D01*
X131460415Y-119290656D01*
X131324054Y-119526840D01*
X131324047Y-119526855D01*
X131219684Y-119778811D01*
X131149097Y-120042245D01*
X131113501Y-120312627D01*
X131113500Y-120312643D01*
X131113500Y-121525356D01*
X131113501Y-121525372D01*
X131149097Y-121795754D01*
X131219684Y-122059188D01*
X131324047Y-122311144D01*
X131324054Y-122311159D01*
X131460415Y-122547343D01*
X131626439Y-122763710D01*
X131626445Y-122763717D01*
X131819282Y-122956554D01*
X131819289Y-122956560D01*
X132035656Y-123122584D01*
X132271840Y-123258945D01*
X132271855Y-123258952D01*
X132399225Y-123311710D01*
X132523810Y-123363315D01*
X132787244Y-123433902D01*
X133057637Y-123469500D01*
X133057644Y-123469500D01*
X133330356Y-123469500D01*
X133330363Y-123469500D01*
X133600756Y-123433902D01*
X133864190Y-123363315D01*
X134116156Y-123258947D01*
X134352344Y-123122584D01*
X134568712Y-122956559D01*
X134761559Y-122763712D01*
X134851126Y-122646985D01*
X134907551Y-122605784D01*
X134977297Y-122601629D01*
X135038218Y-122635841D01*
X135070971Y-122697557D01*
X135073500Y-122722471D01*
X135073500Y-122768999D01*
X135073501Y-122769019D01*
X135084000Y-122871796D01*
X135084001Y-122871799D01*
X135114546Y-122963975D01*
X135139186Y-123038334D01*
X135231288Y-123187656D01*
X135355344Y-123311712D01*
X135504666Y-123403814D01*
X135671203Y-123458999D01*
X135773991Y-123469500D01*
X138534008Y-123469499D01*
X138636797Y-123458999D01*
X138803334Y-123403814D01*
X138952656Y-123311712D01*
X139076712Y-123187656D01*
X139168814Y-123038334D01*
X139223999Y-122871797D01*
X139234500Y-122769009D01*
X139234499Y-119068992D01*
X139223999Y-118966203D01*
X139168814Y-118799666D01*
X139076712Y-118650344D01*
X138952656Y-118526288D01*
X138803334Y-118434186D01*
X138636797Y-118379001D01*
X138636795Y-118379000D01*
X138534016Y-118368500D01*
X138534009Y-118368500D01*
X138226500Y-118368500D01*
X138217814Y-118365949D01*
X138208853Y-118367238D01*
X138184812Y-118356259D01*
X138159461Y-118348815D01*
X138153533Y-118341974D01*
X138145297Y-118338213D01*
X138131007Y-118315978D01*
X138113706Y-118296011D01*
X138111418Y-118285496D01*
X138107523Y-118279435D01*
X138102500Y-118244500D01*
X138102500Y-117998782D01*
X138122185Y-117931743D01*
X138138819Y-117911101D01*
X141605101Y-114444819D01*
X141666424Y-114411334D01*
X141692782Y-114408500D01*
X145795939Y-114408500D01*
X145862978Y-114428185D01*
X145908733Y-114480989D01*
X145918677Y-114550147D01*
X145901901Y-114596904D01*
X145542000Y-115189000D01*
X145542000Y-119712342D01*
X145532561Y-119759795D01*
X145524688Y-119778800D01*
X145524686Y-119778807D01*
X145524685Y-119778810D01*
X145509769Y-119834476D01*
X145454097Y-120042247D01*
X145418501Y-120312627D01*
X145418500Y-120312643D01*
X145418500Y-121525356D01*
X145418501Y-121525372D01*
X145454097Y-121795754D01*
X145524684Y-122059188D01*
X145532561Y-122078204D01*
X145542000Y-122125656D01*
X145542000Y-124971000D01*
X145522315Y-125038039D01*
X145469511Y-125083794D01*
X145418000Y-125095000D01*
X127378000Y-125095000D01*
X127310961Y-125075315D01*
X127265206Y-125022511D01*
X127254000Y-124971000D01*
X127254000Y-122054298D01*
X127258225Y-122022205D01*
X127271269Y-121973524D01*
X127318902Y-121795756D01*
X127354500Y-121525363D01*
X127354500Y-120312637D01*
X127318902Y-120042244D01*
X127258225Y-119815793D01*
X127254000Y-119783700D01*
X127254000Y-114499754D01*
X127273685Y-114432715D01*
X127317510Y-114391509D01*
X130442386Y-112645255D01*
X130502876Y-112629500D01*
X132432422Y-112629500D01*
X132626826Y-112598709D01*
X132814026Y-112537884D01*
X132989405Y-112448524D01*
X133148646Y-112332828D01*
X135025828Y-110455646D01*
X135141524Y-110296405D01*
X135230884Y-110121026D01*
X135276091Y-109981891D01*
X135315527Y-109924218D01*
X135333514Y-109911977D01*
X135861807Y-109616755D01*
X135922297Y-109601000D01*
X140462000Y-109601000D01*
X154395864Y-86420116D01*
X154447273Y-86372800D01*
X154502142Y-86360000D01*
X165992000Y-86360000D01*
X166059039Y-86379685D01*
G37*
%TD.AperFunction*%
%TD*%
%TA.AperFunction,Conductor*%
%TO.N,GND*%
G36*
X206204539Y-71521185D02*
G01*
X206250294Y-71573989D01*
X206261500Y-71625500D01*
X206261500Y-129548500D01*
X206241815Y-129615539D01*
X206189011Y-129661294D01*
X206137500Y-129672500D01*
X108325423Y-129672500D01*
X108258384Y-129652815D01*
X108212629Y-129600011D01*
X108203152Y-129547429D01*
X108201500Y-129547429D01*
X108201500Y-116329010D01*
X108201500Y-116329000D01*
X108189947Y-116221544D01*
X108178741Y-116170033D01*
X108178637Y-116169722D01*
X108144616Y-116067502D01*
X108144613Y-116067496D01*
X108066828Y-115946462D01*
X108066825Y-115946457D01*
X108045999Y-115922422D01*
X108021076Y-115893659D01*
X108021072Y-115893656D01*
X108021070Y-115893653D01*
X107912336Y-115799433D01*
X107912333Y-115799431D01*
X107912331Y-115799430D01*
X107781465Y-115739664D01*
X107781460Y-115739662D01*
X107781459Y-115739662D01*
X107714420Y-115719977D01*
X107714422Y-115719977D01*
X107714417Y-115719976D01*
X107652354Y-115711053D01*
X107572000Y-115699500D01*
X87746500Y-115699500D01*
X87679461Y-115679815D01*
X87633706Y-115627011D01*
X87622500Y-115575500D01*
X87622500Y-107182500D01*
X87642185Y-107115461D01*
X87694989Y-107069706D01*
X87746500Y-107058500D01*
X100182609Y-107058500D01*
X100249648Y-107078185D01*
X100295403Y-107130989D01*
X100305347Y-107200147D01*
X100293094Y-107238795D01*
X100243761Y-107335616D01*
X100243760Y-107335618D01*
X100243759Y-107335621D01*
X100231662Y-107372851D01*
X100165910Y-107575214D01*
X100137163Y-107756713D01*
X100126500Y-107824038D01*
X100126500Y-108075962D01*
X100160137Y-108288335D01*
X100165910Y-108324785D01*
X100243760Y-108564383D01*
X100358132Y-108788848D01*
X100506201Y-108992649D01*
X100506205Y-108992654D01*
X100684345Y-109170794D01*
X100684350Y-109170798D01*
X100795400Y-109251480D01*
X100888155Y-109318870D01*
X101031184Y-109391747D01*
X101112616Y-109433239D01*
X101112618Y-109433239D01*
X101112621Y-109433241D01*
X101352215Y-109511090D01*
X101601038Y-109550500D01*
X101601039Y-109550500D01*
X101852961Y-109550500D01*
X101852962Y-109550500D01*
X102101785Y-109511090D01*
X102341379Y-109433241D01*
X102565845Y-109318870D01*
X102769656Y-109170793D01*
X102947793Y-108992656D01*
X103095870Y-108788845D01*
X103210241Y-108564379D01*
X103288090Y-108324785D01*
X103327500Y-108075962D01*
X103327500Y-107824038D01*
X103288090Y-107575215D01*
X103210241Y-107335621D01*
X103162513Y-107241949D01*
X103160906Y-107238795D01*
X103148010Y-107170125D01*
X103174286Y-107105385D01*
X103231393Y-107065128D01*
X103271391Y-107058500D01*
X105542500Y-107058500D01*
X105609539Y-107078185D01*
X105655294Y-107130989D01*
X105666500Y-107182500D01*
X105666500Y-107699000D01*
X105666501Y-107699009D01*
X105678052Y-107806450D01*
X105678054Y-107806462D01*
X105689260Y-107857972D01*
X105723383Y-107960497D01*
X105723386Y-107960503D01*
X105801171Y-108081537D01*
X105801179Y-108081548D01*
X105846923Y-108134340D01*
X105846926Y-108134343D01*
X105846930Y-108134347D01*
X105955664Y-108228567D01*
X105955667Y-108228568D01*
X105955668Y-108228569D01*
X106054856Y-108273868D01*
X106086541Y-108288338D01*
X106153580Y-108308023D01*
X106153584Y-108308024D01*
X106296000Y-108328500D01*
X106296003Y-108328500D01*
X116207990Y-108328500D01*
X116208000Y-108328500D01*
X116315456Y-108316947D01*
X116366967Y-108305741D01*
X116401197Y-108294347D01*
X116469497Y-108271616D01*
X116469501Y-108271613D01*
X116469504Y-108271613D01*
X116590543Y-108193825D01*
X116643347Y-108148070D01*
X116737567Y-108039336D01*
X116797338Y-107908459D01*
X116817023Y-107841420D01*
X116817024Y-107841416D01*
X116837500Y-107699000D01*
X116837500Y-106657500D01*
X116857185Y-106590461D01*
X116909989Y-106544706D01*
X116961500Y-106533500D01*
X119605422Y-106533500D01*
X119799826Y-106502709D01*
X119987026Y-106441884D01*
X120162405Y-106352524D01*
X120321646Y-106236828D01*
X122020655Y-104537819D01*
X122081978Y-104504334D01*
X122108336Y-104501500D01*
X136844664Y-104501500D01*
X136911703Y-104521185D01*
X136932345Y-104537819D01*
X137865181Y-105470655D01*
X137898666Y-105531978D01*
X137901500Y-105558336D01*
X137901500Y-107321696D01*
X137895431Y-107360014D01*
X137834753Y-107546760D01*
X137801500Y-107756713D01*
X137801500Y-107969286D01*
X137834753Y-108179239D01*
X137834753Y-108179241D01*
X137834754Y-108179243D01*
X137895431Y-108365988D01*
X137900444Y-108381414D01*
X137996951Y-108570820D01*
X138121890Y-108742786D01*
X138262923Y-108883819D01*
X138296408Y-108945142D01*
X138291424Y-109014834D01*
X138249552Y-109070767D01*
X138184088Y-109095184D01*
X138175242Y-109095500D01*
X135922297Y-109095500D01*
X135794889Y-109111819D01*
X135734396Y-109127575D01*
X135734391Y-109127576D01*
X135615218Y-109175479D01*
X135615209Y-109175484D01*
X135506989Y-109235960D01*
X135438865Y-109251480D01*
X135373165Y-109227705D01*
X135330748Y-109172184D01*
X135322500Y-109127715D01*
X135322500Y-108404306D01*
X135328569Y-108365988D01*
X135348145Y-108305739D01*
X135389246Y-108179243D01*
X135422500Y-107969287D01*
X135422500Y-107756713D01*
X135389246Y-107546757D01*
X135323557Y-107344588D01*
X135227051Y-107155184D01*
X135227049Y-107155181D01*
X135227048Y-107155179D01*
X135102109Y-106983213D01*
X134951786Y-106832890D01*
X134779820Y-106707951D01*
X134590414Y-106611444D01*
X134590413Y-106611443D01*
X134590412Y-106611443D01*
X134388243Y-106545754D01*
X134388241Y-106545753D01*
X134388240Y-106545753D01*
X134226957Y-106520208D01*
X134178287Y-106512500D01*
X133965713Y-106512500D01*
X133917042Y-106520208D01*
X133755760Y-106545753D01*
X133553585Y-106611444D01*
X133364179Y-106707951D01*
X133192213Y-106832890D01*
X133041890Y-106983213D01*
X132916949Y-107155182D01*
X132912484Y-107163946D01*
X132864509Y-107214742D01*
X132796688Y-107231536D01*
X132730553Y-107208998D01*
X132691516Y-107163946D01*
X132687050Y-107155182D01*
X132562109Y-106983213D01*
X132411786Y-106832890D01*
X132239820Y-106707951D01*
X132050414Y-106611444D01*
X132050413Y-106611443D01*
X132050412Y-106611443D01*
X131848243Y-106545754D01*
X131848241Y-106545753D01*
X131848240Y-106545753D01*
X131686957Y-106520208D01*
X131638287Y-106512500D01*
X131425713Y-106512500D01*
X131386202Y-106518757D01*
X131215759Y-106545753D01*
X131029012Y-106606431D01*
X130990694Y-106612500D01*
X122514808Y-106612500D01*
X122476493Y-106606432D01*
X122466823Y-106603290D01*
X122272422Y-106572500D01*
X122272417Y-106572500D01*
X122272416Y-106572500D01*
X122075583Y-106572500D01*
X122075578Y-106572500D01*
X121881176Y-106603290D01*
X121881171Y-106603291D01*
X121846675Y-106614499D01*
X121846676Y-106614500D01*
X121693969Y-106664117D01*
X121518594Y-106753476D01*
X121463540Y-106793476D01*
X121359352Y-106869173D01*
X116348174Y-111880351D01*
X116348174Y-111880352D01*
X116348172Y-111880354D01*
X116302980Y-111942555D01*
X116232476Y-112039594D01*
X116142669Y-112215851D01*
X116141608Y-112219612D01*
X116082291Y-112402169D01*
X116082291Y-112402172D01*
X116051500Y-112596577D01*
X116051500Y-118764880D01*
X116031815Y-118831919D01*
X116002989Y-118863253D01*
X115979297Y-118881433D01*
X115979282Y-118881446D01*
X115786444Y-119074283D01*
X115786439Y-119074289D01*
X115620415Y-119290656D01*
X115484054Y-119526840D01*
X115484047Y-119526855D01*
X115379684Y-119778811D01*
X115309097Y-120042245D01*
X115273501Y-120312627D01*
X115273500Y-120312643D01*
X115273500Y-121525356D01*
X115273501Y-121525372D01*
X115309097Y-121795754D01*
X115379684Y-122059188D01*
X115484047Y-122311144D01*
X115484054Y-122311159D01*
X115620415Y-122547343D01*
X115786439Y-122763710D01*
X115786445Y-122763717D01*
X115979282Y-122956554D01*
X115979289Y-122956560D01*
X116195656Y-123122584D01*
X116431840Y-123258945D01*
X116431855Y-123258952D01*
X116559225Y-123311710D01*
X116683810Y-123363315D01*
X116947244Y-123433902D01*
X117217637Y-123469500D01*
X117217644Y-123469500D01*
X117490356Y-123469500D01*
X117490363Y-123469500D01*
X117760756Y-123433902D01*
X118024190Y-123363315D01*
X118276156Y-123258947D01*
X118512344Y-123122584D01*
X118728712Y-122956559D01*
X118921559Y-122763712D01*
X119087584Y-122547344D01*
X119223947Y-122311156D01*
X119223946Y-122311156D01*
X119225977Y-122307640D01*
X119227420Y-122308473D01*
X119270083Y-122262093D01*
X119337676Y-122244405D01*
X119404103Y-122266068D01*
X119440758Y-122308370D01*
X119442023Y-122307640D01*
X119580415Y-122547343D01*
X119746439Y-122763710D01*
X119746445Y-122763717D01*
X119939282Y-122956554D01*
X119939289Y-122956560D01*
X120155656Y-123122584D01*
X120391840Y-123258945D01*
X120391855Y-123258952D01*
X120519225Y-123311710D01*
X120643810Y-123363315D01*
X120907244Y-123433902D01*
X121177637Y-123469500D01*
X121177644Y-123469500D01*
X121450356Y-123469500D01*
X121450363Y-123469500D01*
X121720756Y-123433902D01*
X121984190Y-123363315D01*
X122236156Y-123258947D01*
X122472344Y-123122584D01*
X122688712Y-122956559D01*
X122881559Y-122763712D01*
X123047584Y-122547344D01*
X123183947Y-122311156D01*
X123288315Y-122059190D01*
X123358902Y-121795756D01*
X123394500Y-121525363D01*
X123394500Y-120312637D01*
X123358902Y-120042244D01*
X123288315Y-119778810D01*
X123226133Y-119628690D01*
X123183952Y-119526855D01*
X123183945Y-119526840D01*
X123047584Y-119290656D01*
X122881560Y-119074289D01*
X122881554Y-119074282D01*
X122688719Y-118881447D01*
X122688714Y-118881443D01*
X122688712Y-118881441D01*
X122624174Y-118831919D01*
X122561012Y-118783452D01*
X122519810Y-118727024D01*
X122512500Y-118685077D01*
X122512500Y-115146336D01*
X122532185Y-115079297D01*
X122548819Y-115058655D01*
X124941655Y-112665819D01*
X125002978Y-112632334D01*
X125029336Y-112629500D01*
X128958253Y-112629500D01*
X129025292Y-112649185D01*
X129071047Y-112701989D01*
X129080991Y-112771147D01*
X129051966Y-112834703D01*
X129018743Y-112861744D01*
X128787133Y-112991174D01*
X127070919Y-113950233D01*
X126971242Y-114023231D01*
X126971232Y-114023239D01*
X126927421Y-114064431D01*
X126848434Y-114159416D01*
X126788663Y-114290291D01*
X126770096Y-114353524D01*
X126768977Y-114357334D01*
X126768976Y-114357338D01*
X126748500Y-114499754D01*
X126748500Y-119783700D01*
X126750287Y-119810960D01*
X126752824Y-119849682D01*
X126757048Y-119881766D01*
X126769948Y-119946622D01*
X126819949Y-120133228D01*
X126823112Y-120149135D01*
X126847938Y-120337703D01*
X126847939Y-120337706D01*
X126849000Y-120353891D01*
X126849000Y-121484105D01*
X126847939Y-121500291D01*
X126823111Y-121688868D01*
X126819947Y-121704775D01*
X126769952Y-121891362D01*
X126769950Y-121891369D01*
X126757050Y-121956220D01*
X126757049Y-121956226D01*
X126752824Y-121988315D01*
X126752824Y-121988319D01*
X126748500Y-122054298D01*
X126748500Y-124971000D01*
X126748501Y-124971009D01*
X126760052Y-125078450D01*
X126760054Y-125078462D01*
X126771260Y-125129972D01*
X126805383Y-125232497D01*
X126805386Y-125232503D01*
X126883171Y-125353537D01*
X126883179Y-125353548D01*
X126928923Y-125406340D01*
X126928926Y-125406343D01*
X126928930Y-125406347D01*
X127037664Y-125500567D01*
X127037667Y-125500568D01*
X127037668Y-125500569D01*
X127131925Y-125543616D01*
X127168541Y-125560338D01*
X127235580Y-125580023D01*
X127235584Y-125580024D01*
X127378000Y-125600500D01*
X127378003Y-125600500D01*
X145417990Y-125600500D01*
X145418000Y-125600500D01*
X145525456Y-125588947D01*
X145576967Y-125577741D01*
X145611197Y-125566347D01*
X145679497Y-125543616D01*
X145679501Y-125543613D01*
X145679504Y-125543613D01*
X145800543Y-125465825D01*
X145853347Y-125420070D01*
X145947567Y-125311336D01*
X146007338Y-125180459D01*
X146027023Y-125113420D01*
X146027024Y-125113416D01*
X146039193Y-125028778D01*
X199561500Y-125028778D01*
X199561500Y-125317221D01*
X199561501Y-125317238D01*
X199599149Y-125603206D01*
X199599150Y-125603211D01*
X199599151Y-125603217D01*
X199673809Y-125881844D01*
X199673814Y-125881860D01*
X199784191Y-126148336D01*
X199784199Y-126148352D01*
X199928420Y-126398148D01*
X199928431Y-126398164D01*
X200104024Y-126627002D01*
X200104030Y-126627009D01*
X200307990Y-126830969D01*
X200307996Y-126830974D01*
X200536844Y-127006575D01*
X200536851Y-127006579D01*
X200786647Y-127150800D01*
X200786663Y-127150808D01*
X201053139Y-127261185D01*
X201053145Y-127261186D01*
X201053155Y-127261191D01*
X201331783Y-127335849D01*
X201617772Y-127373500D01*
X201617779Y-127373500D01*
X201906221Y-127373500D01*
X201906228Y-127373500D01*
X202192217Y-127335849D01*
X202470845Y-127261191D01*
X202470857Y-127261185D01*
X202470860Y-127261185D01*
X202737336Y-127150808D01*
X202737339Y-127150806D01*
X202737345Y-127150804D01*
X202987156Y-127006575D01*
X203216004Y-126830974D01*
X203419974Y-126627004D01*
X203595575Y-126398156D01*
X203739804Y-126148345D01*
X203850191Y-125881845D01*
X203924849Y-125603217D01*
X203962500Y-125317228D01*
X203962500Y-125028772D01*
X203924849Y-124742783D01*
X203850191Y-124464155D01*
X203850186Y-124464145D01*
X203850185Y-124464139D01*
X203739808Y-124197663D01*
X203739800Y-124197647D01*
X203595579Y-123947851D01*
X203595575Y-123947844D01*
X203545015Y-123881953D01*
X203419975Y-123718997D01*
X203419969Y-123718990D01*
X203216009Y-123515030D01*
X203216002Y-123515024D01*
X202987164Y-123339431D01*
X202987162Y-123339429D01*
X202987156Y-123339425D01*
X202987151Y-123339422D01*
X202987148Y-123339420D01*
X202737352Y-123195199D01*
X202737336Y-123195191D01*
X202470860Y-123084814D01*
X202470848Y-123084810D01*
X202470845Y-123084809D01*
X202192217Y-123010151D01*
X202192211Y-123010150D01*
X202192206Y-123010149D01*
X201906238Y-122972501D01*
X201906233Y-122972500D01*
X201906228Y-122972500D01*
X201617772Y-122972500D01*
X201617766Y-122972500D01*
X201617761Y-122972501D01*
X201331793Y-123010149D01*
X201331786Y-123010150D01*
X201331783Y-123010151D01*
X201226595Y-123038336D01*
X201053155Y-123084809D01*
X201053139Y-123084814D01*
X200786663Y-123195191D01*
X200786647Y-123195199D01*
X200536851Y-123339420D01*
X200536835Y-123339431D01*
X200307997Y-123515024D01*
X200307990Y-123515030D01*
X200104030Y-123718990D01*
X200104024Y-123718997D01*
X199928431Y-123947835D01*
X199928420Y-123947851D01*
X199784199Y-124197647D01*
X199784191Y-124197663D01*
X199673814Y-124464139D01*
X199673809Y-124464155D01*
X199612089Y-124694500D01*
X199599152Y-124742780D01*
X199599149Y-124742793D01*
X199561501Y-125028761D01*
X199561500Y-125028778D01*
X146039193Y-125028778D01*
X146047500Y-124971000D01*
X146047500Y-122125656D01*
X146037787Y-122027036D01*
X146028348Y-121979584D01*
X146014683Y-121934542D01*
X146013583Y-121930687D01*
X146012958Y-121928355D01*
X146012959Y-121928355D01*
X145953047Y-121704762D01*
X145949886Y-121688868D01*
X145925061Y-121500294D01*
X145924000Y-121484110D01*
X145924000Y-120353888D01*
X145925061Y-120337703D01*
X145928362Y-120312627D01*
X145949887Y-120149127D01*
X145953046Y-120133242D01*
X146012963Y-119909634D01*
X146012962Y-119909633D01*
X146013600Y-119907254D01*
X146014701Y-119903396D01*
X146028348Y-119858413D01*
X146037787Y-119810960D01*
X146047500Y-119712342D01*
X146047500Y-115365309D01*
X146065538Y-115300904D01*
X146333862Y-114859468D01*
X146377703Y-114767617D01*
X146394479Y-114720860D01*
X146419032Y-114622083D01*
X146419031Y-114532499D01*
X146438715Y-114465462D01*
X146491518Y-114419706D01*
X146543031Y-114408500D01*
X152355218Y-114408500D01*
X152422257Y-114428185D01*
X152468012Y-114480989D01*
X152477956Y-114550147D01*
X152448931Y-114613703D01*
X152442900Y-114620179D01*
X150754221Y-116308858D01*
X150754218Y-116308861D01*
X150684538Y-116378540D01*
X150614859Y-116448219D01*
X150505371Y-116612080D01*
X150505364Y-116612093D01*
X150468516Y-116701054D01*
X150468510Y-116701069D01*
X150467206Y-116704219D01*
X150429949Y-116794164D01*
X150423995Y-116824097D01*
X150422281Y-116832711D01*
X150422281Y-116832713D01*
X150391500Y-116987456D01*
X150391500Y-118591375D01*
X150371815Y-118658414D01*
X150329502Y-118698761D01*
X150300662Y-118715412D01*
X150300647Y-118715422D01*
X150084289Y-118881439D01*
X150084282Y-118881445D01*
X149891445Y-119074282D01*
X149891439Y-119074289D01*
X149725415Y-119290656D01*
X149589054Y-119526840D01*
X149589047Y-119526855D01*
X149484684Y-119778811D01*
X149414097Y-120042245D01*
X149378501Y-120312627D01*
X149378500Y-120312643D01*
X149378500Y-121525356D01*
X149378501Y-121525372D01*
X149414097Y-121795754D01*
X149484684Y-122059188D01*
X149589047Y-122311144D01*
X149589054Y-122311159D01*
X149725415Y-122547343D01*
X149891439Y-122763710D01*
X149891445Y-122763717D01*
X150084282Y-122956554D01*
X150084289Y-122956560D01*
X150300656Y-123122584D01*
X150536840Y-123258945D01*
X150536855Y-123258952D01*
X150664225Y-123311710D01*
X150788810Y-123363315D01*
X151052244Y-123433902D01*
X151322637Y-123469500D01*
X151322644Y-123469500D01*
X151595356Y-123469500D01*
X151595363Y-123469500D01*
X151865756Y-123433902D01*
X152129190Y-123363315D01*
X152381156Y-123258947D01*
X152617344Y-123122584D01*
X152833712Y-122956559D01*
X153026559Y-122763712D01*
X153116126Y-122646985D01*
X153172551Y-122605784D01*
X153242297Y-122601629D01*
X153303218Y-122635841D01*
X153335971Y-122697557D01*
X153338500Y-122722471D01*
X153338500Y-122768999D01*
X153338501Y-122769019D01*
X153349000Y-122871796D01*
X153349001Y-122871799D01*
X153382371Y-122972501D01*
X153404186Y-123038334D01*
X153496288Y-123187656D01*
X153620344Y-123311712D01*
X153769666Y-123403814D01*
X153936203Y-123458999D01*
X154038991Y-123469500D01*
X156799008Y-123469499D01*
X156901797Y-123458999D01*
X157068334Y-123403814D01*
X157217656Y-123311712D01*
X157341712Y-123187656D01*
X157433814Y-123038334D01*
X157488999Y-122871797D01*
X157499500Y-122769009D01*
X157499499Y-119068992D01*
X157488999Y-118966203D01*
X157433814Y-118799666D01*
X157341712Y-118650344D01*
X157217656Y-118526288D01*
X157110910Y-118460447D01*
X157068336Y-118434187D01*
X157068331Y-118434185D01*
X157066862Y-118433698D01*
X156901797Y-118379001D01*
X156896147Y-118378423D01*
X156882049Y-118376983D01*
X156817358Y-118350584D01*
X156777208Y-118293402D01*
X156774347Y-118223591D01*
X156806972Y-118165946D01*
X160652101Y-114320819D01*
X160713424Y-114287334D01*
X160739782Y-114284500D01*
X162404301Y-114284500D01*
X162471340Y-114304185D01*
X162477186Y-114308182D01*
X162534121Y-114349547D01*
X162539595Y-114353524D01*
X162684372Y-114427291D01*
X162716213Y-114443515D01*
X162767009Y-114491489D01*
X162783804Y-114559310D01*
X162761267Y-114625445D01*
X162716213Y-114664485D01*
X162539594Y-114754476D01*
X162477187Y-114799818D01*
X162380354Y-114870172D01*
X162380352Y-114870174D01*
X162380351Y-114870174D01*
X162241174Y-115009351D01*
X162241174Y-115009352D01*
X162241172Y-115009354D01*
X162213952Y-115046819D01*
X162125476Y-115168594D01*
X162036117Y-115343970D01*
X161975290Y-115531173D01*
X161944500Y-115725577D01*
X161944500Y-115922422D01*
X161975290Y-116116826D01*
X162036117Y-116304029D01*
X162109586Y-116448219D01*
X162125476Y-116479405D01*
X162241172Y-116638646D01*
X162380354Y-116777828D01*
X162539595Y-116893524D01*
X162662992Y-116956397D01*
X162716213Y-116983515D01*
X162767009Y-117031489D01*
X162783804Y-117099310D01*
X162761267Y-117165445D01*
X162716213Y-117204485D01*
X162539594Y-117294476D01*
X162448741Y-117360485D01*
X162380354Y-117410172D01*
X162380352Y-117410174D01*
X162380351Y-117410174D01*
X162241174Y-117549351D01*
X162241174Y-117549352D01*
X162241172Y-117549354D01*
X162227466Y-117568219D01*
X162125476Y-117708594D01*
X162036117Y-117883970D01*
X161975290Y-118071173D01*
X161944500Y-118265577D01*
X161944500Y-118462422D01*
X161975290Y-118656826D01*
X162036117Y-118844029D01*
X162088323Y-118946488D01*
X162125476Y-119019405D01*
X162241172Y-119178646D01*
X162380354Y-119317828D01*
X162539595Y-119433524D01*
X162662992Y-119496397D01*
X162716213Y-119523515D01*
X162767009Y-119571489D01*
X162783804Y-119639310D01*
X162761267Y-119705445D01*
X162716213Y-119744485D01*
X162539594Y-119834476D01*
X162474506Y-119881766D01*
X162380354Y-119950172D01*
X162380352Y-119950174D01*
X162380351Y-119950174D01*
X162241174Y-120089351D01*
X162241174Y-120089352D01*
X162241172Y-120089354D01*
X162209294Y-120133230D01*
X162125476Y-120248594D01*
X162036117Y-120423970D01*
X161975290Y-120611173D01*
X161944500Y-120805577D01*
X161944500Y-121002422D01*
X161975290Y-121196826D01*
X162036117Y-121384029D01*
X162108127Y-121525356D01*
X162125476Y-121559405D01*
X162241172Y-121718646D01*
X162380354Y-121857828D01*
X162539595Y-121973524D01*
X162644619Y-122027036D01*
X162716213Y-122063515D01*
X162767009Y-122111489D01*
X162783804Y-122179310D01*
X162761267Y-122245445D01*
X162716213Y-122284485D01*
X162539594Y-122374476D01*
X162448741Y-122440485D01*
X162380354Y-122490172D01*
X162380352Y-122490174D01*
X162380351Y-122490174D01*
X162241174Y-122629351D01*
X162241174Y-122629352D01*
X162241172Y-122629354D01*
X162236459Y-122635841D01*
X162125476Y-122788594D01*
X162036117Y-122963970D01*
X161975290Y-123151173D01*
X161944500Y-123345577D01*
X161944500Y-123542422D01*
X161975290Y-123736826D01*
X162036117Y-123924029D01*
X162125476Y-124099405D01*
X162241172Y-124258646D01*
X162380354Y-124397828D01*
X162539595Y-124513524D01*
X162622455Y-124555743D01*
X162714970Y-124602882D01*
X162714972Y-124602882D01*
X162714975Y-124602884D01*
X162815317Y-124635487D01*
X162902173Y-124663709D01*
X163096578Y-124694500D01*
X163096583Y-124694500D01*
X163293422Y-124694500D01*
X163487826Y-124663709D01*
X163675025Y-124602884D01*
X163850405Y-124513524D01*
X164009646Y-124397828D01*
X164148828Y-124258646D01*
X164264524Y-124099405D01*
X164353884Y-123924025D01*
X164414709Y-123736826D01*
X164417534Y-123718990D01*
X164445500Y-123542422D01*
X164445500Y-123345577D01*
X164414709Y-123151173D01*
X164368888Y-123010152D01*
X164353884Y-122963975D01*
X164353882Y-122963972D01*
X164353882Y-122963970D01*
X164283677Y-122826185D01*
X164264524Y-122788595D01*
X164148828Y-122629354D01*
X164009646Y-122490172D01*
X163930025Y-122432324D01*
X163850403Y-122374474D01*
X163673787Y-122284485D01*
X163622990Y-122236511D01*
X163606195Y-122168690D01*
X163628732Y-122102555D01*
X163673787Y-122063515D01*
X163838510Y-121979585D01*
X163850405Y-121973524D01*
X164009646Y-121857828D01*
X164148828Y-121718646D01*
X164264524Y-121559405D01*
X164353884Y-121384025D01*
X164414709Y-121196826D01*
X164435031Y-121068517D01*
X164445500Y-121002422D01*
X164445500Y-120805577D01*
X164414709Y-120611173D01*
X164378585Y-120499996D01*
X164353884Y-120423975D01*
X164353882Y-120423972D01*
X164353882Y-120423970D01*
X164264523Y-120248594D01*
X164148828Y-120089354D01*
X164009646Y-119950172D01*
X163915494Y-119881766D01*
X163850403Y-119834474D01*
X163673787Y-119744485D01*
X163622990Y-119696511D01*
X163606195Y-119628690D01*
X163628732Y-119562555D01*
X163673787Y-119523515D01*
X163850403Y-119433525D01*
X163850402Y-119433525D01*
X163850405Y-119433524D01*
X164009646Y-119317828D01*
X164148828Y-119178646D01*
X164264524Y-119019405D01*
X164353884Y-118844025D01*
X164414709Y-118656826D01*
X164420320Y-118621397D01*
X164445500Y-118462422D01*
X164445500Y-118265577D01*
X164414709Y-118071173D01*
X164363693Y-117914165D01*
X164353884Y-117883975D01*
X164353882Y-117883972D01*
X164353882Y-117883970D01*
X164276493Y-117732086D01*
X164264524Y-117708595D01*
X164148828Y-117549354D01*
X164009646Y-117410172D01*
X163930025Y-117352324D01*
X163850403Y-117294474D01*
X163673787Y-117204485D01*
X163622990Y-117156511D01*
X163606195Y-117088690D01*
X163628732Y-117022555D01*
X163673787Y-116983515D01*
X163850403Y-116893525D01*
X163850402Y-116893525D01*
X163850405Y-116893524D01*
X164009646Y-116777828D01*
X164148828Y-116638646D01*
X164264524Y-116479405D01*
X164353884Y-116304025D01*
X164414709Y-116116826D01*
X164422522Y-116067496D01*
X164445500Y-115922422D01*
X164445500Y-115725577D01*
X164414709Y-115531173D01*
X164353882Y-115343970D01*
X164264523Y-115168594D01*
X164148828Y-115009354D01*
X164009646Y-114870172D01*
X163912813Y-114799818D01*
X163850403Y-114754474D01*
X163673787Y-114664485D01*
X163622990Y-114616511D01*
X163606195Y-114548690D01*
X163628732Y-114482555D01*
X163673787Y-114443515D01*
X163850403Y-114353525D01*
X163850402Y-114353525D01*
X163850405Y-114353524D01*
X164009646Y-114237828D01*
X164148828Y-114098646D01*
X164264524Y-113939405D01*
X164353884Y-113764025D01*
X164414709Y-113576826D01*
X164445500Y-113382422D01*
X164445500Y-113185577D01*
X164414709Y-112991173D01*
X164363868Y-112834703D01*
X164353884Y-112803975D01*
X164353882Y-112803972D01*
X164353882Y-112803970D01*
X164304577Y-112707204D01*
X164264524Y-112628595D01*
X164148828Y-112469354D01*
X164009646Y-112330172D01*
X163930025Y-112272324D01*
X163850403Y-112214474D01*
X163673787Y-112124485D01*
X163622990Y-112076511D01*
X163606195Y-112008690D01*
X163628732Y-111942555D01*
X163673787Y-111903515D01*
X163850403Y-111813525D01*
X163850402Y-111813525D01*
X163850405Y-111813524D01*
X164009646Y-111697828D01*
X164148828Y-111558646D01*
X164264524Y-111399405D01*
X164353884Y-111224025D01*
X164414709Y-111036826D01*
X164445500Y-110842422D01*
X164445500Y-110645577D01*
X164414709Y-110451173D01*
X164353882Y-110263970D01*
X164264523Y-110088594D01*
X164148828Y-109929354D01*
X164009646Y-109790172D01*
X163912813Y-109719818D01*
X163850403Y-109674474D01*
X163673787Y-109584485D01*
X163622990Y-109536511D01*
X163606195Y-109468690D01*
X163628732Y-109402555D01*
X163673787Y-109363515D01*
X163850403Y-109273525D01*
X163850402Y-109273525D01*
X163850405Y-109273524D01*
X164009646Y-109157828D01*
X164148828Y-109018646D01*
X164264524Y-108859405D01*
X164353884Y-108684025D01*
X164414709Y-108496826D01*
X164429363Y-108404306D01*
X164445500Y-108302422D01*
X164445500Y-108105577D01*
X164414709Y-107911173D01*
X164353882Y-107723970D01*
X164264523Y-107548594D01*
X164148828Y-107389354D01*
X164009646Y-107250172D01*
X163912813Y-107179818D01*
X163850403Y-107134474D01*
X163673787Y-107044485D01*
X163622990Y-106996511D01*
X163606195Y-106928690D01*
X163628732Y-106862555D01*
X163673787Y-106823515D01*
X163850403Y-106733525D01*
X163850402Y-106733525D01*
X163850405Y-106733524D01*
X164009646Y-106617828D01*
X164148828Y-106478646D01*
X164264524Y-106319405D01*
X164353884Y-106144025D01*
X164414709Y-105956826D01*
X164445500Y-105762422D01*
X164445500Y-105565577D01*
X164414709Y-105371173D01*
X164353882Y-105183970D01*
X164306743Y-105091455D01*
X164264524Y-105008595D01*
X164148828Y-104849354D01*
X164009646Y-104710172D01*
X163912813Y-104639818D01*
X163850403Y-104594474D01*
X163673787Y-104504485D01*
X163622990Y-104456511D01*
X163606195Y-104388690D01*
X163628732Y-104322555D01*
X163673787Y-104283515D01*
X163850403Y-104193525D01*
X163850402Y-104193525D01*
X163850405Y-104193524D01*
X164009646Y-104077828D01*
X164148828Y-103938646D01*
X164264524Y-103779405D01*
X164353884Y-103604025D01*
X164414709Y-103416826D01*
X164422635Y-103366782D01*
X164445500Y-103222422D01*
X164445500Y-103025577D01*
X164414709Y-102831173D01*
X164360792Y-102665236D01*
X164353884Y-102643975D01*
X164353882Y-102643972D01*
X164353882Y-102643970D01*
X164306743Y-102551455D01*
X164264524Y-102468595D01*
X164148828Y-102309354D01*
X164009646Y-102170172D01*
X163902212Y-102092116D01*
X163850403Y-102054474D01*
X163673787Y-101964485D01*
X163622990Y-101916511D01*
X163606195Y-101848690D01*
X163628732Y-101782555D01*
X163673787Y-101743515D01*
X163850403Y-101653525D01*
X163850402Y-101653525D01*
X163850405Y-101653524D01*
X164009646Y-101537828D01*
X164148828Y-101398646D01*
X164264524Y-101239405D01*
X164353884Y-101064025D01*
X164414709Y-100876826D01*
X164445500Y-100682422D01*
X164445500Y-100485577D01*
X164414709Y-100291173D01*
X164353882Y-100103970D01*
X164276339Y-99951784D01*
X164264524Y-99928595D01*
X164148828Y-99769354D01*
X164009646Y-99630172D01*
X163930025Y-99572324D01*
X163850403Y-99514474D01*
X163673787Y-99424485D01*
X163622990Y-99376511D01*
X163606195Y-99308690D01*
X163628732Y-99242555D01*
X163673787Y-99203515D01*
X163850403Y-99113525D01*
X163850402Y-99113525D01*
X163850405Y-99113524D01*
X164009646Y-98997828D01*
X164148828Y-98858646D01*
X164264524Y-98699405D01*
X164353884Y-98524025D01*
X164414709Y-98336826D01*
X164445500Y-98142422D01*
X164445500Y-97945577D01*
X164414709Y-97751173D01*
X164353882Y-97563970D01*
X164264523Y-97388594D01*
X164148828Y-97229354D01*
X164009646Y-97090172D01*
X163930025Y-97032324D01*
X163850403Y-96974474D01*
X163673787Y-96884485D01*
X163622990Y-96836511D01*
X163606195Y-96768690D01*
X163628732Y-96702555D01*
X163673787Y-96663515D01*
X163850403Y-96573525D01*
X163850402Y-96573525D01*
X163850405Y-96573524D01*
X164009646Y-96457828D01*
X164148828Y-96318646D01*
X164264524Y-96159405D01*
X164353884Y-95984025D01*
X164414709Y-95796826D01*
X164445500Y-95602422D01*
X164445500Y-95405577D01*
X164414709Y-95211173D01*
X164353882Y-95023970D01*
X164264523Y-94848594D01*
X164148828Y-94689354D01*
X164009646Y-94550172D01*
X163930025Y-94492324D01*
X163850403Y-94434474D01*
X163673787Y-94344485D01*
X163622990Y-94296511D01*
X163606195Y-94228690D01*
X163628732Y-94162555D01*
X163673787Y-94123515D01*
X163850403Y-94033525D01*
X163850402Y-94033525D01*
X163850405Y-94033524D01*
X164009646Y-93917828D01*
X164148828Y-93778646D01*
X164264524Y-93619405D01*
X164353884Y-93444025D01*
X164414709Y-93256826D01*
X164445500Y-93062422D01*
X164445500Y-92865577D01*
X164414709Y-92671173D01*
X164353882Y-92483970D01*
X164264523Y-92308594D01*
X164247349Y-92284956D01*
X164148828Y-92149354D01*
X164009646Y-92010172D01*
X163850405Y-91894476D01*
X163675029Y-91805117D01*
X163487826Y-91744290D01*
X163293422Y-91713500D01*
X163293417Y-91713500D01*
X163096583Y-91713500D01*
X163096578Y-91713500D01*
X162902173Y-91744290D01*
X162714970Y-91805117D01*
X162539594Y-91894476D01*
X162458356Y-91953500D01*
X162380354Y-92010172D01*
X162380352Y-92010174D01*
X162380351Y-92010174D01*
X162241174Y-92149351D01*
X162241174Y-92149352D01*
X162241172Y-92149354D01*
X162210738Y-92191243D01*
X162125476Y-92308594D01*
X162036117Y-92483970D01*
X161975290Y-92671173D01*
X161944500Y-92865577D01*
X161944500Y-93062422D01*
X161975290Y-93256826D01*
X162036117Y-93444029D01*
X162125476Y-93619405D01*
X162241172Y-93778646D01*
X162380354Y-93917828D01*
X162539595Y-94033524D01*
X162662992Y-94096397D01*
X162716213Y-94123515D01*
X162767009Y-94171489D01*
X162783804Y-94239310D01*
X162761267Y-94305445D01*
X162716213Y-94344485D01*
X162539594Y-94434476D01*
X162448741Y-94500485D01*
X162380354Y-94550172D01*
X162380352Y-94550174D01*
X162380351Y-94550174D01*
X162241174Y-94689351D01*
X162241174Y-94689352D01*
X162241172Y-94689354D01*
X162191485Y-94757741D01*
X162125476Y-94848594D01*
X162036117Y-95023970D01*
X161975290Y-95211173D01*
X161944500Y-95405577D01*
X161944500Y-95602422D01*
X161975290Y-95796826D01*
X162036117Y-95984029D01*
X162125476Y-96159405D01*
X162241172Y-96318646D01*
X162380354Y-96457828D01*
X162539595Y-96573524D01*
X162662992Y-96636397D01*
X162716213Y-96663515D01*
X162767009Y-96711489D01*
X162783804Y-96779310D01*
X162761267Y-96845445D01*
X162716213Y-96884485D01*
X162539594Y-96974476D01*
X162448741Y-97040485D01*
X162380354Y-97090172D01*
X162380352Y-97090174D01*
X162380351Y-97090174D01*
X162241174Y-97229351D01*
X162241174Y-97229352D01*
X162241172Y-97229354D01*
X162191485Y-97297741D01*
X162125476Y-97388594D01*
X162036117Y-97563970D01*
X161975290Y-97751173D01*
X161944500Y-97945577D01*
X161944500Y-98142422D01*
X161975290Y-98336826D01*
X162036117Y-98524029D01*
X162125476Y-98699405D01*
X162241172Y-98858646D01*
X162380354Y-98997828D01*
X162539595Y-99113524D01*
X162662992Y-99176397D01*
X162716213Y-99203515D01*
X162767009Y-99251489D01*
X162783804Y-99319310D01*
X162761267Y-99385445D01*
X162716213Y-99424485D01*
X162539594Y-99514476D01*
X162448741Y-99580485D01*
X162380354Y-99630172D01*
X162380352Y-99630174D01*
X162380351Y-99630174D01*
X162241174Y-99769351D01*
X162241174Y-99769352D01*
X162241172Y-99769354D01*
X162227683Y-99787920D01*
X162125476Y-99928594D01*
X162036117Y-100103970D01*
X161975290Y-100291173D01*
X161944500Y-100485577D01*
X161944500Y-100682422D01*
X161975290Y-100876826D01*
X162036117Y-101064029D01*
X162051787Y-101094782D01*
X162125476Y-101239405D01*
X162241172Y-101398646D01*
X162380354Y-101537828D01*
X162539595Y-101653524D01*
X162662992Y-101716397D01*
X162716213Y-101743515D01*
X162767009Y-101791489D01*
X162783804Y-101859310D01*
X162761267Y-101925445D01*
X162716213Y-101964485D01*
X162539594Y-102054476D01*
X162477187Y-102099818D01*
X162380354Y-102170172D01*
X162380352Y-102170174D01*
X162380351Y-102170174D01*
X162241174Y-102309351D01*
X162241174Y-102309352D01*
X162241172Y-102309354D01*
X162232048Y-102321912D01*
X162125476Y-102468594D01*
X162036117Y-102643970D01*
X161975290Y-102831173D01*
X161944500Y-103025577D01*
X161944500Y-103222422D01*
X161975290Y-103416826D01*
X162036117Y-103604029D01*
X162097736Y-103724962D01*
X162125476Y-103779405D01*
X162241172Y-103938646D01*
X162380354Y-104077828D01*
X162539595Y-104193524D01*
X162662992Y-104256397D01*
X162716213Y-104283515D01*
X162767009Y-104331489D01*
X162783804Y-104399310D01*
X162761267Y-104465445D01*
X162716213Y-104504485D01*
X162539591Y-104594478D01*
X162477186Y-104639818D01*
X162411380Y-104663298D01*
X162404301Y-104663500D01*
X160175458Y-104663500D01*
X160147140Y-104669133D01*
X160118822Y-104674766D01*
X160118821Y-104674766D01*
X159982171Y-104701947D01*
X159982168Y-104701948D01*
X159982167Y-104701948D01*
X159982164Y-104701949D01*
X159954278Y-104713500D01*
X159954276Y-104713501D01*
X159954275Y-104713500D01*
X159800088Y-104777366D01*
X159800079Y-104777371D01*
X159636219Y-104886859D01*
X159566540Y-104956538D01*
X159496861Y-105026218D01*
X159496858Y-105026221D01*
X153672899Y-110850181D01*
X153611576Y-110883666D01*
X153585218Y-110886500D01*
X148969287Y-110886500D01*
X148902248Y-110866815D01*
X148856493Y-110814011D01*
X148846549Y-110744853D01*
X148863326Y-110698093D01*
X161538071Y-89846093D01*
X161589713Y-89799030D01*
X161644032Y-89786500D01*
X162654033Y-89786500D01*
X162654035Y-89786499D01*
X162713030Y-89779517D01*
X162772023Y-89772535D01*
X162772024Y-89772534D01*
X162772030Y-89772534D01*
X162828323Y-89759020D01*
X162831995Y-89757664D01*
X162870965Y-89745206D01*
X162871183Y-89745876D01*
X163011768Y-89700194D01*
X163011820Y-89700178D01*
X163012033Y-89700172D01*
X163030174Y-89695817D01*
X163116953Y-89682073D01*
X163126728Y-89680526D01*
X163146123Y-89679000D01*
X163243882Y-89679000D01*
X163263265Y-89680524D01*
X163359827Y-89695818D01*
X163378727Y-89700355D01*
X163518814Y-89745874D01*
X163518814Y-89745873D01*
X163555672Y-89757849D01*
X163559487Y-89758495D01*
X163617959Y-89772532D01*
X163617976Y-89772535D01*
X163717679Y-89784335D01*
X163735953Y-89786498D01*
X163735962Y-89786499D01*
X163735967Y-89786500D01*
X163735970Y-89786500D01*
X165991990Y-89786500D01*
X165992000Y-89786500D01*
X166099456Y-89774947D01*
X166150967Y-89763741D01*
X166185197Y-89752347D01*
X166253497Y-89729616D01*
X166253501Y-89729613D01*
X166253504Y-89729613D01*
X166374543Y-89651825D01*
X166427347Y-89606070D01*
X166521567Y-89497336D01*
X166581338Y-89366459D01*
X166601023Y-89299420D01*
X166601024Y-89299416D01*
X166621500Y-89157000D01*
X166621500Y-86484000D01*
X166609947Y-86376544D01*
X166598741Y-86325033D01*
X166597148Y-86320246D01*
X166564616Y-86222502D01*
X166564613Y-86222496D01*
X166524414Y-86159946D01*
X166486825Y-86101457D01*
X166484634Y-86098928D01*
X166441076Y-86048659D01*
X166441072Y-86048656D01*
X166441070Y-86048653D01*
X166332336Y-85954433D01*
X166332333Y-85954431D01*
X166332331Y-85954430D01*
X166201465Y-85894664D01*
X166201460Y-85894662D01*
X166201459Y-85894662D01*
X166134420Y-85874977D01*
X166134422Y-85874977D01*
X166134417Y-85874976D01*
X166083935Y-85867718D01*
X165992000Y-85854500D01*
X154502142Y-85854500D01*
X154387301Y-85867718D01*
X154387298Y-85867718D01*
X154387295Y-85867719D01*
X154387288Y-85867720D01*
X154332435Y-85880517D01*
X154223601Y-85919477D01*
X154223597Y-85919480D01*
X154104950Y-86000852D01*
X154104945Y-86000857D01*
X154053529Y-86048179D01*
X153962612Y-86159685D01*
X140705597Y-108214539D01*
X140654188Y-108261856D01*
X140585359Y-108273868D01*
X140520961Y-108246761D01*
X140481442Y-108189141D01*
X140476846Y-108131258D01*
X140480913Y-108105583D01*
X140502500Y-107969287D01*
X140502500Y-107756713D01*
X140469246Y-107546757D01*
X140408568Y-107360012D01*
X140402500Y-107321696D01*
X140402500Y-104890577D01*
X140373926Y-104710174D01*
X140371709Y-104696174D01*
X140371708Y-104696170D01*
X140371708Y-104696169D01*
X140312391Y-104513612D01*
X140311329Y-104509847D01*
X140277926Y-104444291D01*
X140221524Y-104333595D01*
X140105828Y-104174354D01*
X138228646Y-102297172D01*
X138069405Y-102181476D01*
X138047220Y-102170172D01*
X137894030Y-102092117D01*
X137706826Y-102031290D01*
X137512422Y-102000500D01*
X137512417Y-102000500D01*
X121637417Y-102000500D01*
X121440583Y-102000500D01*
X121440578Y-102000500D01*
X121246173Y-102031290D01*
X121058969Y-102092117D01*
X120883594Y-102181476D01*
X120792741Y-102247485D01*
X120724354Y-102297172D01*
X120724352Y-102297174D01*
X120724351Y-102297174D01*
X119025345Y-103996181D01*
X118964022Y-104029666D01*
X118937664Y-104032500D01*
X116932105Y-104032500D01*
X116865066Y-104012815D01*
X116819311Y-103960011D01*
X116814451Y-103947659D01*
X116780616Y-103846002D01*
X116780613Y-103845996D01*
X116702828Y-103724962D01*
X116702825Y-103724957D01*
X116677102Y-103695271D01*
X116657076Y-103672159D01*
X116657072Y-103672156D01*
X116657070Y-103672153D01*
X116548336Y-103577933D01*
X116548333Y-103577931D01*
X116548331Y-103577930D01*
X116417465Y-103518164D01*
X116417460Y-103518162D01*
X116417459Y-103518162D01*
X116350420Y-103498477D01*
X116350422Y-103498477D01*
X116350417Y-103498476D01*
X116302944Y-103491650D01*
X116208000Y-103478000D01*
X114146915Y-103478000D01*
X114146888Y-103478000D01*
X114132503Y-103478205D01*
X114125462Y-103478406D01*
X114110991Y-103479025D01*
X113969989Y-103507592D01*
X113969976Y-103507595D01*
X113952184Y-103513941D01*
X113952185Y-103513942D01*
X113904181Y-103531067D01*
X113904079Y-103531105D01*
X113876547Y-103540927D01*
X113875931Y-103540962D01*
X113873393Y-103542255D01*
X113873392Y-103542256D01*
X113678798Y-103641406D01*
X113660821Y-103648852D01*
X113531933Y-103690730D01*
X113513014Y-103695272D01*
X113402257Y-103712815D01*
X113379163Y-103716473D01*
X113359767Y-103718000D01*
X113224239Y-103718000D01*
X113204842Y-103716473D01*
X113163033Y-103709851D01*
X113070982Y-103695271D01*
X113052064Y-103690729D01*
X112923173Y-103648851D01*
X112905198Y-103641405D01*
X112784442Y-103579876D01*
X112767854Y-103569712D01*
X112658214Y-103490055D01*
X112643418Y-103477417D01*
X112547579Y-103381578D01*
X112534942Y-103366782D01*
X112455292Y-103257153D01*
X112445126Y-103240564D01*
X112383592Y-103119799D01*
X112376145Y-103101821D01*
X112351374Y-103025583D01*
X112334265Y-102972926D01*
X112329730Y-102954036D01*
X112308525Y-102820147D01*
X112307000Y-102800761D01*
X112307000Y-102665236D01*
X112308525Y-102645851D01*
X112329730Y-102511958D01*
X112334264Y-102493074D01*
X112389885Y-102321889D01*
X112392883Y-102313667D01*
X112397233Y-102302940D01*
X112409752Y-102262317D01*
X112428121Y-102177302D01*
X112426586Y-102082187D01*
X112445185Y-102014845D01*
X112497244Y-101968244D01*
X112534506Y-101957237D01*
X112606934Y-101947776D01*
X112661229Y-101934277D01*
X112768757Y-101894114D01*
X112905208Y-101824586D01*
X112923163Y-101817149D01*
X113052074Y-101775264D01*
X113070958Y-101770730D01*
X113204851Y-101749525D01*
X113224236Y-101748000D01*
X113359763Y-101748000D01*
X113379148Y-101749525D01*
X113513035Y-101770730D01*
X113531928Y-101775266D01*
X113660835Y-101817150D01*
X113678795Y-101824589D01*
X113765597Y-101868817D01*
X113765601Y-101868818D01*
X113765606Y-101868821D01*
X113835026Y-101894113D01*
X113881049Y-101910881D01*
X113939335Y-101924378D01*
X113939337Y-101924379D01*
X113939340Y-101924379D01*
X113939343Y-101924380D01*
X114061535Y-101937346D01*
X119266152Y-101853401D01*
X119369438Y-101841031D01*
X119418949Y-101829841D01*
X119517504Y-101796596D01*
X119638543Y-101718808D01*
X119691347Y-101673053D01*
X119785567Y-101564319D01*
X119845338Y-101433442D01*
X119865023Y-101366403D01*
X119865024Y-101366399D01*
X119885500Y-101223983D01*
X119885500Y-83935148D01*
X119905185Y-83868109D01*
X119957989Y-83822354D01*
X120008241Y-83811154D01*
X122922898Y-83781592D01*
X122990133Y-83800596D01*
X123036421Y-83852933D01*
X123047066Y-83921987D01*
X123018687Y-83985834D01*
X123011837Y-83993267D01*
X122881889Y-84123215D01*
X122756951Y-84295179D01*
X122660444Y-84484585D01*
X122594753Y-84686760D01*
X122576006Y-84805127D01*
X122561500Y-84896713D01*
X122561500Y-85109287D01*
X122594754Y-85319243D01*
X122601224Y-85339157D01*
X122660444Y-85521414D01*
X122756951Y-85710820D01*
X122881890Y-85882786D01*
X123032213Y-86033109D01*
X123204179Y-86158048D01*
X123204181Y-86158049D01*
X123204184Y-86158051D01*
X123393588Y-86254557D01*
X123595757Y-86320246D01*
X123805713Y-86353500D01*
X123805714Y-86353500D01*
X124018286Y-86353500D01*
X124018287Y-86353500D01*
X124228243Y-86320246D01*
X124430412Y-86254557D01*
X124619816Y-86158051D01*
X124661349Y-86127876D01*
X124791786Y-86033109D01*
X124791788Y-86033106D01*
X124791792Y-86033104D01*
X124942104Y-85882792D01*
X124942106Y-85882788D01*
X124942109Y-85882786D01*
X125067048Y-85710820D01*
X125067047Y-85710820D01*
X125067051Y-85710816D01*
X125071514Y-85702054D01*
X125119488Y-85651259D01*
X125187308Y-85634463D01*
X125253444Y-85656999D01*
X125292486Y-85702056D01*
X125296951Y-85710820D01*
X125421890Y-85882786D01*
X125572213Y-86033109D01*
X125744179Y-86158048D01*
X125744181Y-86158049D01*
X125744184Y-86158051D01*
X125933588Y-86254557D01*
X126135757Y-86320246D01*
X126345713Y-86353500D01*
X126345714Y-86353500D01*
X126558286Y-86353500D01*
X126558287Y-86353500D01*
X126768243Y-86320246D01*
X126970412Y-86254557D01*
X127159816Y-86158051D01*
X127201349Y-86127876D01*
X127331786Y-86033109D01*
X127331788Y-86033106D01*
X127331792Y-86033104D01*
X127482104Y-85882792D01*
X127482106Y-85882788D01*
X127482109Y-85882786D01*
X127607048Y-85710820D01*
X127607047Y-85710820D01*
X127607051Y-85710816D01*
X127611514Y-85702054D01*
X127659488Y-85651259D01*
X127727308Y-85634463D01*
X127793444Y-85656999D01*
X127832486Y-85702056D01*
X127836951Y-85710820D01*
X127961890Y-85882786D01*
X128112213Y-86033109D01*
X128284179Y-86158048D01*
X128284181Y-86158049D01*
X128284184Y-86158051D01*
X128473588Y-86254557D01*
X128675757Y-86320246D01*
X128885713Y-86353500D01*
X128885714Y-86353500D01*
X129098286Y-86353500D01*
X129098287Y-86353500D01*
X129308243Y-86320246D01*
X129510412Y-86254557D01*
X129699816Y-86158051D01*
X129741349Y-86127876D01*
X129871786Y-86033109D01*
X129871788Y-86033106D01*
X129871792Y-86033104D01*
X130022104Y-85882792D01*
X130022106Y-85882788D01*
X130022109Y-85882786D01*
X130147048Y-85710820D01*
X130147047Y-85710820D01*
X130147051Y-85710816D01*
X130151514Y-85702054D01*
X130199488Y-85651259D01*
X130267308Y-85634463D01*
X130333444Y-85656999D01*
X130372486Y-85702056D01*
X130376951Y-85710820D01*
X130501890Y-85882786D01*
X130652213Y-86033109D01*
X130824179Y-86158048D01*
X130824181Y-86158049D01*
X130824184Y-86158051D01*
X131013588Y-86254557D01*
X131215757Y-86320246D01*
X131425713Y-86353500D01*
X131425714Y-86353500D01*
X131638286Y-86353500D01*
X131638287Y-86353500D01*
X131848243Y-86320246D01*
X132050412Y-86254557D01*
X132239816Y-86158051D01*
X132281349Y-86127876D01*
X132411786Y-86033109D01*
X132411788Y-86033106D01*
X132411792Y-86033104D01*
X132562104Y-85882792D01*
X132562106Y-85882788D01*
X132562109Y-85882786D01*
X132687048Y-85710820D01*
X132687047Y-85710820D01*
X132687051Y-85710816D01*
X132783557Y-85521412D01*
X132849246Y-85319243D01*
X132882500Y-85109287D01*
X132882500Y-84896713D01*
X132849246Y-84686757D01*
X132783557Y-84484588D01*
X132687051Y-84295184D01*
X132687049Y-84295181D01*
X132687048Y-84295179D01*
X132559241Y-84119266D01*
X132560108Y-84118635D01*
X132533641Y-84059581D01*
X132532500Y-84042800D01*
X132532500Y-81164844D01*
X134614927Y-81164844D01*
X134614927Y-81164848D01*
X134616871Y-81232887D01*
X134616891Y-81234331D01*
X134616922Y-81234683D01*
X134616922Y-81234685D01*
X134622145Y-81264862D01*
X134641458Y-81376459D01*
X134641458Y-81376463D01*
X134670408Y-81465561D01*
X134674950Y-81484478D01*
X134691473Y-81588788D01*
X134693000Y-81608188D01*
X134693000Y-81713811D01*
X134691473Y-81733209D01*
X134674953Y-81837509D01*
X134670411Y-81856430D01*
X134669091Y-81860490D01*
X134669089Y-81860500D01*
X134645905Y-81977053D01*
X134641364Y-82034778D01*
X134641363Y-82034786D01*
X134642904Y-82073971D01*
X134643000Y-82078841D01*
X134643000Y-82094582D01*
X134643000Y-83026810D01*
X134655104Y-83136768D01*
X134666838Y-83189420D01*
X134676963Y-83219086D01*
X134702563Y-83294096D01*
X134702563Y-83294097D01*
X134702564Y-83294098D01*
X134781573Y-83414344D01*
X134827860Y-83466682D01*
X134827865Y-83466688D01*
X134937552Y-83559803D01*
X134945816Y-83563476D01*
X134959186Y-83574690D01*
X134969203Y-83589740D01*
X134983006Y-83601414D01*
X134988159Y-83618219D01*
X134997900Y-83632853D01*
X134998190Y-83650928D01*
X135003491Y-83668213D01*
X135003500Y-83669696D01*
X135003500Y-85982000D01*
X135003501Y-85982009D01*
X135015052Y-86089450D01*
X135015054Y-86089462D01*
X135026260Y-86140972D01*
X135060383Y-86243497D01*
X135060386Y-86243503D01*
X135138171Y-86364537D01*
X135138179Y-86364548D01*
X135183923Y-86417340D01*
X135183926Y-86417343D01*
X135183930Y-86417347D01*
X135292664Y-86511567D01*
X135292667Y-86511568D01*
X135292668Y-86511569D01*
X135386925Y-86554616D01*
X135423541Y-86571338D01*
X135490580Y-86591023D01*
X135490584Y-86591024D01*
X135633000Y-86611500D01*
X135633003Y-86611500D01*
X137797990Y-86611500D01*
X137798000Y-86611500D01*
X137905456Y-86599947D01*
X137956967Y-86588741D01*
X137991197Y-86577347D01*
X138059497Y-86554616D01*
X138059501Y-86554613D01*
X138059504Y-86554613D01*
X138180543Y-86476825D01*
X138233347Y-86431070D01*
X138327567Y-86322336D01*
X138356679Y-86258590D01*
X138402432Y-86205789D01*
X138469471Y-86186104D01*
X138525764Y-86199618D01*
X138633588Y-86254557D01*
X138835757Y-86320246D01*
X139045713Y-86353500D01*
X139045714Y-86353500D01*
X139258286Y-86353500D01*
X139258287Y-86353500D01*
X139468243Y-86320246D01*
X139670412Y-86254557D01*
X139838373Y-86168976D01*
X139907040Y-86156081D01*
X139971780Y-86182357D01*
X140009972Y-86236533D01*
X140010037Y-86236503D01*
X140010218Y-86236881D01*
X140012038Y-86239463D01*
X140012318Y-86240297D01*
X140013382Y-86243494D01*
X140013386Y-86243503D01*
X140091171Y-86364537D01*
X140091179Y-86364548D01*
X140136923Y-86417340D01*
X140136926Y-86417343D01*
X140136930Y-86417347D01*
X140245664Y-86511567D01*
X140245667Y-86511568D01*
X140245668Y-86511569D01*
X140339925Y-86554616D01*
X140376541Y-86571338D01*
X140443580Y-86591023D01*
X140443584Y-86591024D01*
X140586000Y-86611500D01*
X140586003Y-86611500D01*
X142872724Y-86611500D01*
X142872726Y-86611500D01*
X142990438Y-86597604D01*
X143046601Y-86584156D01*
X143157846Y-86543228D01*
X143275542Y-86460468D01*
X143326395Y-86412554D01*
X143416006Y-86299989D01*
X143470275Y-86166736D01*
X143487151Y-86098936D01*
X143501680Y-85955793D01*
X143501679Y-85955784D01*
X143501680Y-85955780D01*
X143483001Y-85507498D01*
X143482999Y-85507475D01*
X143482999Y-85507466D01*
X143475460Y-85439063D01*
X143469499Y-85405907D01*
X143452735Y-85339147D01*
X143410822Y-85210151D01*
X143406280Y-85191231D01*
X143388527Y-85079141D01*
X143387000Y-85059743D01*
X143387000Y-84946252D01*
X143388524Y-84926868D01*
X143406280Y-84814757D01*
X143410821Y-84795848D01*
X143413538Y-84787488D01*
X143433594Y-84699943D01*
X143439555Y-84656465D01*
X143443802Y-84566757D01*
X143407759Y-83701745D01*
X143424635Y-83633947D01*
X143475488Y-83586033D01*
X143530392Y-83572591D01*
X145515247Y-83552460D01*
X145582480Y-83571464D01*
X145628768Y-83623801D01*
X145639413Y-83692855D01*
X145611034Y-83756702D01*
X145590816Y-83775719D01*
X145588659Y-83777334D01*
X145564454Y-83795454D01*
X145564453Y-83795455D01*
X145564452Y-83795456D01*
X145478206Y-83910664D01*
X145478202Y-83910671D01*
X145427908Y-84045517D01*
X145425158Y-84071101D01*
X145421501Y-84105123D01*
X145421500Y-84105135D01*
X145421500Y-85900870D01*
X145421501Y-85900876D01*
X145427908Y-85960483D01*
X145478202Y-86095328D01*
X145478206Y-86095335D01*
X145564452Y-86210544D01*
X145564455Y-86210547D01*
X145679664Y-86296793D01*
X145679671Y-86296797D01*
X145814517Y-86347091D01*
X145814516Y-86347091D01*
X145821444Y-86347835D01*
X145874127Y-86353500D01*
X147669872Y-86353499D01*
X147729483Y-86347091D01*
X147864331Y-86296796D01*
X147979546Y-86210546D01*
X148065796Y-86095331D01*
X148116091Y-85960483D01*
X148122500Y-85900873D01*
X148122499Y-84105128D01*
X148116091Y-84045517D01*
X148089204Y-83973430D01*
X148065797Y-83910671D01*
X148065793Y-83910664D01*
X147979547Y-83795455D01*
X147951644Y-83774567D01*
X147919621Y-83750594D01*
X147877751Y-83694660D01*
X147872767Y-83624969D01*
X147906253Y-83563646D01*
X147967576Y-83530161D01*
X147992665Y-83527335D01*
X181360243Y-83188922D01*
X181427478Y-83207926D01*
X181473766Y-83260263D01*
X181485500Y-83312916D01*
X181485500Y-89030000D01*
X181485501Y-89030009D01*
X181497052Y-89137450D01*
X181497054Y-89137462D01*
X181508260Y-89188972D01*
X181542383Y-89291497D01*
X181542386Y-89291503D01*
X181620171Y-89412537D01*
X181620179Y-89412548D01*
X181665923Y-89465340D01*
X181665926Y-89465343D01*
X181665930Y-89465347D01*
X181774664Y-89559567D01*
X181774667Y-89559568D01*
X181774668Y-89559569D01*
X181876488Y-89606070D01*
X181905541Y-89619338D01*
X181972580Y-89639023D01*
X181972584Y-89639024D01*
X182115000Y-89659500D01*
X182115003Y-89659500D01*
X192025186Y-89659500D01*
X192025190Y-89659500D01*
X192136218Y-89647156D01*
X192189359Y-89635192D01*
X192294965Y-89598764D01*
X192414865Y-89519230D01*
X192467000Y-89472715D01*
X192559636Y-89362623D01*
X192617503Y-89230893D01*
X192636214Y-89163575D01*
X192654624Y-89020878D01*
X192531238Y-80507321D01*
X192518288Y-80400728D01*
X192518287Y-80400726D01*
X192518287Y-80400721D01*
X192506486Y-80349703D01*
X192506484Y-80349699D01*
X192506483Y-80349692D01*
X192471307Y-80248232D01*
X192392103Y-80128114D01*
X192345731Y-80075851D01*
X192345727Y-80075847D01*
X192235890Y-79982910D01*
X192235886Y-79982908D01*
X192235885Y-79982907D01*
X192235886Y-79982907D01*
X192104327Y-79924686D01*
X192104313Y-79924681D01*
X192058609Y-79911843D01*
X192037052Y-79905788D01*
X191894411Y-79886987D01*
X191894405Y-79886987D01*
X142287418Y-80469618D01*
X142247645Y-80463558D01*
X142210370Y-80451447D01*
X142210371Y-80451447D01*
X141977097Y-80414500D01*
X141977092Y-80414500D01*
X141740908Y-80414500D01*
X141740903Y-80414500D01*
X141507632Y-80451446D01*
X141438328Y-80473964D01*
X141401468Y-80480023D01*
X139519426Y-80502128D01*
X139461675Y-80488622D01*
X139461547Y-80488557D01*
X139444365Y-80479802D01*
X139397223Y-80455781D01*
X139202534Y-80392522D01*
X139027995Y-80364878D01*
X139000352Y-80360500D01*
X138795648Y-80360500D01*
X138728254Y-80371174D01*
X138593464Y-80392523D01*
X138593461Y-80392523D01*
X138398781Y-80455779D01*
X138398780Y-80455779D01*
X138305065Y-80503529D01*
X138250227Y-80517035D01*
X135232751Y-80552475D01*
X135192439Y-80554558D01*
X135172791Y-80556363D01*
X135132798Y-80561651D01*
X135132785Y-80561654D01*
X134995967Y-80606111D01*
X134995964Y-80606112D01*
X134933254Y-80636946D01*
X134814494Y-80718154D01*
X134723415Y-80829541D01*
X134723406Y-80829554D01*
X134687341Y-80889364D01*
X134687336Y-80889373D01*
X134631331Y-81021894D01*
X134626704Y-81062215D01*
X134614927Y-81164844D01*
X132532500Y-81164844D01*
X132532500Y-79753782D01*
X132552185Y-79686743D01*
X132568819Y-79666101D01*
X133243102Y-78991819D01*
X133304425Y-78958334D01*
X133330783Y-78955500D01*
X193059218Y-78955500D01*
X193126257Y-78975185D01*
X193146899Y-78991819D01*
X198226181Y-84071101D01*
X198259666Y-84132424D01*
X198262500Y-84158782D01*
X198262500Y-98848217D01*
X198242815Y-98915256D01*
X198226181Y-98935898D01*
X195074899Y-102087181D01*
X195013576Y-102120666D01*
X194987218Y-102123500D01*
X186845699Y-102123500D01*
X186778660Y-102103815D01*
X186772814Y-102099818D01*
X186710406Y-102054476D01*
X186533787Y-101964485D01*
X186482990Y-101916511D01*
X186466195Y-101848690D01*
X186488732Y-101782555D01*
X186533787Y-101743515D01*
X186710403Y-101653525D01*
X186710402Y-101653525D01*
X186710405Y-101653524D01*
X186869646Y-101537828D01*
X187008828Y-101398646D01*
X187124524Y-101239405D01*
X187213884Y-101064025D01*
X187274709Y-100876826D01*
X187305500Y-100682422D01*
X187305500Y-100485577D01*
X187274709Y-100291173D01*
X187213882Y-100103970D01*
X187136339Y-99951784D01*
X187124524Y-99928595D01*
X187008828Y-99769354D01*
X186869646Y-99630172D01*
X186790025Y-99572324D01*
X186710403Y-99514474D01*
X186533787Y-99424485D01*
X186482990Y-99376511D01*
X186466195Y-99308690D01*
X186488732Y-99242555D01*
X186533787Y-99203515D01*
X186710403Y-99113525D01*
X186710402Y-99113525D01*
X186710405Y-99113524D01*
X186869646Y-98997828D01*
X187008828Y-98858646D01*
X187124524Y-98699405D01*
X187213884Y-98524025D01*
X187274709Y-98336826D01*
X187305500Y-98142422D01*
X187305500Y-97945577D01*
X187274709Y-97751173D01*
X187213882Y-97563970D01*
X187124523Y-97388594D01*
X187008828Y-97229354D01*
X186869646Y-97090172D01*
X186790025Y-97032324D01*
X186710403Y-96974474D01*
X186533787Y-96884485D01*
X186482990Y-96836511D01*
X186466195Y-96768690D01*
X186488732Y-96702555D01*
X186533787Y-96663515D01*
X186710403Y-96573525D01*
X186710402Y-96573525D01*
X186710405Y-96573524D01*
X186869646Y-96457828D01*
X187008828Y-96318646D01*
X187124524Y-96159405D01*
X187213884Y-95984025D01*
X187274709Y-95796826D01*
X187305500Y-95602422D01*
X187305500Y-95405577D01*
X187274709Y-95211173D01*
X187213882Y-95023970D01*
X187124523Y-94848594D01*
X187008828Y-94689354D01*
X186869646Y-94550172D01*
X186790025Y-94492324D01*
X186710403Y-94434474D01*
X186533787Y-94344485D01*
X186482990Y-94296511D01*
X186466195Y-94228690D01*
X186488732Y-94162555D01*
X186533787Y-94123515D01*
X186710403Y-94033525D01*
X186710402Y-94033525D01*
X186710405Y-94033524D01*
X186869646Y-93917828D01*
X187008828Y-93778646D01*
X187124524Y-93619405D01*
X187213884Y-93444025D01*
X187274709Y-93256826D01*
X187305500Y-93062422D01*
X187305500Y-92865577D01*
X187274709Y-92671173D01*
X187213882Y-92483970D01*
X187124523Y-92308594D01*
X187107349Y-92284956D01*
X187008828Y-92149354D01*
X186869646Y-92010172D01*
X186710405Y-91894476D01*
X186535029Y-91805117D01*
X186347826Y-91744290D01*
X186153422Y-91713500D01*
X186153417Y-91713500D01*
X185956583Y-91713500D01*
X185956578Y-91713500D01*
X185762173Y-91744290D01*
X185574970Y-91805117D01*
X185399594Y-91894476D01*
X185318356Y-91953500D01*
X185240354Y-92010172D01*
X185240352Y-92010174D01*
X185240351Y-92010174D01*
X185101174Y-92149351D01*
X185101174Y-92149352D01*
X185101172Y-92149354D01*
X185070738Y-92191243D01*
X184985476Y-92308594D01*
X184896117Y-92483970D01*
X184835290Y-92671173D01*
X184804500Y-92865577D01*
X184804500Y-93062422D01*
X184835290Y-93256826D01*
X184896117Y-93444029D01*
X184985476Y-93619405D01*
X185101172Y-93778646D01*
X185240354Y-93917828D01*
X185399595Y-94033524D01*
X185522992Y-94096397D01*
X185576213Y-94123515D01*
X185627009Y-94171489D01*
X185643804Y-94239310D01*
X185621267Y-94305445D01*
X185576213Y-94344485D01*
X185399594Y-94434476D01*
X185308741Y-94500485D01*
X185240354Y-94550172D01*
X185240352Y-94550174D01*
X185240351Y-94550174D01*
X185101174Y-94689351D01*
X185101174Y-94689352D01*
X185101172Y-94689354D01*
X185051485Y-94757741D01*
X184985476Y-94848594D01*
X184896117Y-95023970D01*
X184835290Y-95211173D01*
X184804500Y-95405577D01*
X184804500Y-95602422D01*
X184835290Y-95796826D01*
X184896117Y-95984029D01*
X184985476Y-96159405D01*
X185101172Y-96318646D01*
X185240354Y-96457828D01*
X185399595Y-96573524D01*
X185522992Y-96636397D01*
X185576213Y-96663515D01*
X185627009Y-96711489D01*
X185643804Y-96779310D01*
X185621267Y-96845445D01*
X185576213Y-96884485D01*
X185399594Y-96974476D01*
X185308741Y-97040485D01*
X185240354Y-97090172D01*
X185240352Y-97090174D01*
X185240351Y-97090174D01*
X185101174Y-97229351D01*
X185101174Y-97229352D01*
X185101172Y-97229354D01*
X185051485Y-97297741D01*
X184985476Y-97388594D01*
X184896117Y-97563970D01*
X184835290Y-97751173D01*
X184804500Y-97945577D01*
X184804500Y-98142422D01*
X184835290Y-98336826D01*
X184896117Y-98524029D01*
X184985476Y-98699405D01*
X185101172Y-98858646D01*
X185240354Y-98997828D01*
X185399595Y-99113524D01*
X185522992Y-99176397D01*
X185576213Y-99203515D01*
X185627009Y-99251489D01*
X185643804Y-99319310D01*
X185621267Y-99385445D01*
X185576213Y-99424485D01*
X185399594Y-99514476D01*
X185308741Y-99580485D01*
X185240354Y-99630172D01*
X185240352Y-99630174D01*
X185240351Y-99630174D01*
X185101174Y-99769351D01*
X185101174Y-99769352D01*
X185101172Y-99769354D01*
X185087683Y-99787920D01*
X184985476Y-99928594D01*
X184896117Y-100103970D01*
X184835290Y-100291173D01*
X184804500Y-100485577D01*
X184804500Y-100682422D01*
X184835290Y-100876826D01*
X184896117Y-101064029D01*
X184911787Y-101094782D01*
X184985476Y-101239405D01*
X185101172Y-101398646D01*
X185240354Y-101537828D01*
X185399595Y-101653524D01*
X185522992Y-101716397D01*
X185576213Y-101743515D01*
X185627009Y-101791489D01*
X185643804Y-101859310D01*
X185621267Y-101925445D01*
X185576213Y-101964485D01*
X185399594Y-102054476D01*
X185337187Y-102099818D01*
X185240354Y-102170172D01*
X185240352Y-102170174D01*
X185240351Y-102170174D01*
X185101174Y-102309351D01*
X185101174Y-102309352D01*
X185101172Y-102309354D01*
X185092048Y-102321912D01*
X184985476Y-102468594D01*
X184896117Y-102643970D01*
X184835290Y-102831173D01*
X184804500Y-103025577D01*
X184804500Y-103222422D01*
X184835290Y-103416826D01*
X184896117Y-103604029D01*
X184957736Y-103724962D01*
X184985476Y-103779405D01*
X185101172Y-103938646D01*
X185240354Y-104077828D01*
X185399595Y-104193524D01*
X185522992Y-104256397D01*
X185576213Y-104283515D01*
X185627009Y-104331489D01*
X185643804Y-104399310D01*
X185621267Y-104465445D01*
X185576213Y-104504485D01*
X185399594Y-104594476D01*
X185337187Y-104639818D01*
X185240354Y-104710172D01*
X185240352Y-104710174D01*
X185240351Y-104710174D01*
X185101174Y-104849351D01*
X185101174Y-104849352D01*
X185101172Y-104849354D01*
X185071222Y-104890577D01*
X184985476Y-105008594D01*
X184896117Y-105183970D01*
X184835290Y-105371173D01*
X184804500Y-105565577D01*
X184804500Y-105762422D01*
X184835290Y-105956826D01*
X184896117Y-106144029D01*
X184943401Y-106236828D01*
X184985476Y-106319405D01*
X185101172Y-106478646D01*
X185240354Y-106617828D01*
X185399595Y-106733524D01*
X185517258Y-106793476D01*
X185576213Y-106823515D01*
X185627009Y-106871489D01*
X185643804Y-106939310D01*
X185621267Y-107005445D01*
X185576213Y-107044485D01*
X185399594Y-107134476D01*
X185337187Y-107179818D01*
X185240354Y-107250172D01*
X185240352Y-107250174D01*
X185240351Y-107250174D01*
X185101174Y-107389351D01*
X185101174Y-107389352D01*
X185101172Y-107389354D01*
X185061966Y-107443316D01*
X184985476Y-107548594D01*
X184896117Y-107723970D01*
X184835290Y-107911173D01*
X184804500Y-108105577D01*
X184804500Y-108302422D01*
X184835290Y-108496826D01*
X184896117Y-108684029D01*
X184985476Y-108859405D01*
X185101172Y-109018646D01*
X185240354Y-109157828D01*
X185399595Y-109273524D01*
X185488586Y-109318867D01*
X185576213Y-109363515D01*
X185627009Y-109411489D01*
X185643804Y-109479310D01*
X185621267Y-109545445D01*
X185576213Y-109584485D01*
X185399594Y-109674476D01*
X185337187Y-109719818D01*
X185240354Y-109790172D01*
X185240352Y-109790174D01*
X185240351Y-109790174D01*
X185101174Y-109929351D01*
X185101174Y-109929352D01*
X185101172Y-109929354D01*
X185051485Y-109997741D01*
X184985476Y-110088594D01*
X184896117Y-110263970D01*
X184835290Y-110451173D01*
X184804500Y-110645577D01*
X184804500Y-110842422D01*
X184835290Y-111036826D01*
X184896117Y-111224029D01*
X184985476Y-111399405D01*
X185101172Y-111558646D01*
X185240354Y-111697828D01*
X185399595Y-111813524D01*
X185522992Y-111876397D01*
X185576213Y-111903515D01*
X185627009Y-111951489D01*
X185643804Y-112019310D01*
X185621267Y-112085445D01*
X185576213Y-112124485D01*
X185399594Y-112214476D01*
X185308741Y-112280485D01*
X185240354Y-112330172D01*
X185240352Y-112330174D01*
X185240351Y-112330174D01*
X185101174Y-112469351D01*
X185101174Y-112469352D01*
X185101172Y-112469354D01*
X185051485Y-112537741D01*
X184985476Y-112628594D01*
X184896117Y-112803970D01*
X184835290Y-112991173D01*
X184804500Y-113185577D01*
X184804500Y-113382422D01*
X184835290Y-113576826D01*
X184896117Y-113764029D01*
X184976401Y-113921594D01*
X184985476Y-113939405D01*
X185101172Y-114098646D01*
X185240354Y-114237828D01*
X185399595Y-114353524D01*
X185507492Y-114408500D01*
X185576213Y-114443515D01*
X185627009Y-114491489D01*
X185643804Y-114559310D01*
X185621267Y-114625445D01*
X185576213Y-114664485D01*
X185399594Y-114754476D01*
X185337187Y-114799818D01*
X185240354Y-114870172D01*
X185240352Y-114870174D01*
X185240351Y-114870174D01*
X185101174Y-115009351D01*
X185101174Y-115009352D01*
X185101172Y-115009354D01*
X185073952Y-115046819D01*
X184985476Y-115168594D01*
X184896117Y-115343970D01*
X184835290Y-115531173D01*
X184804500Y-115725577D01*
X184804500Y-115922422D01*
X184835290Y-116116826D01*
X184896117Y-116304029D01*
X184969586Y-116448219D01*
X184985476Y-116479405D01*
X185101172Y-116638646D01*
X185240354Y-116777828D01*
X185399595Y-116893524D01*
X185522992Y-116956397D01*
X185576213Y-116983515D01*
X185627009Y-117031489D01*
X185643804Y-117099310D01*
X185621267Y-117165445D01*
X185576213Y-117204485D01*
X185399594Y-117294476D01*
X185308741Y-117360485D01*
X185240354Y-117410172D01*
X185240352Y-117410174D01*
X185240351Y-117410174D01*
X185101174Y-117549351D01*
X185101174Y-117549352D01*
X185101172Y-117549354D01*
X185087466Y-117568219D01*
X184985476Y-117708594D01*
X184896117Y-117883970D01*
X184835290Y-118071173D01*
X184804500Y-118265577D01*
X184804500Y-118462422D01*
X184835290Y-118656826D01*
X184896117Y-118844029D01*
X184948323Y-118946488D01*
X184985476Y-119019405D01*
X185101172Y-119178646D01*
X185240354Y-119317828D01*
X185399595Y-119433524D01*
X185522992Y-119496397D01*
X185576213Y-119523515D01*
X185627009Y-119571489D01*
X185643804Y-119639310D01*
X185621267Y-119705445D01*
X185576213Y-119744485D01*
X185399594Y-119834476D01*
X185334506Y-119881766D01*
X185240354Y-119950172D01*
X185240352Y-119950174D01*
X185240351Y-119950174D01*
X185101174Y-120089351D01*
X185101174Y-120089352D01*
X185101172Y-120089354D01*
X185069294Y-120133230D01*
X184985476Y-120248594D01*
X184896117Y-120423970D01*
X184835290Y-120611173D01*
X184804500Y-120805577D01*
X184804500Y-121002422D01*
X184835290Y-121196826D01*
X184896117Y-121384029D01*
X184968127Y-121525356D01*
X184985476Y-121559405D01*
X185101172Y-121718646D01*
X185240354Y-121857828D01*
X185399595Y-121973524D01*
X185504619Y-122027036D01*
X185576213Y-122063515D01*
X185627009Y-122111489D01*
X185643804Y-122179310D01*
X185621267Y-122245445D01*
X185576213Y-122284485D01*
X185399594Y-122374476D01*
X185308741Y-122440485D01*
X185240354Y-122490172D01*
X185240352Y-122490174D01*
X185240351Y-122490174D01*
X185101174Y-122629351D01*
X185101174Y-122629352D01*
X185101172Y-122629354D01*
X185096459Y-122635841D01*
X184985476Y-122788594D01*
X184896117Y-122963970D01*
X184835290Y-123151173D01*
X184804500Y-123345577D01*
X184804500Y-123542422D01*
X184835290Y-123736826D01*
X184896117Y-123924029D01*
X184985476Y-124099405D01*
X185101172Y-124258646D01*
X185240354Y-124397828D01*
X185399595Y-124513524D01*
X185482455Y-124555743D01*
X185574970Y-124602882D01*
X185574972Y-124602882D01*
X185574975Y-124602884D01*
X185675317Y-124635487D01*
X185762173Y-124663709D01*
X185956578Y-124694500D01*
X185956583Y-124694500D01*
X186153422Y-124694500D01*
X186347826Y-124663709D01*
X186535025Y-124602884D01*
X186710405Y-124513524D01*
X186869646Y-124397828D01*
X187008828Y-124258646D01*
X187124524Y-124099405D01*
X187213884Y-123924025D01*
X187274709Y-123736826D01*
X187277534Y-123718990D01*
X187305500Y-123542422D01*
X187305500Y-123345577D01*
X187274709Y-123151173D01*
X187228888Y-123010152D01*
X187213884Y-122963975D01*
X187213882Y-122963972D01*
X187213882Y-122963970D01*
X187143677Y-122826185D01*
X187124524Y-122788595D01*
X187008828Y-122629354D01*
X186869646Y-122490172D01*
X186790025Y-122432324D01*
X186710403Y-122374474D01*
X186533787Y-122284485D01*
X186482990Y-122236511D01*
X186466195Y-122168690D01*
X186488732Y-122102555D01*
X186533787Y-122063515D01*
X186698510Y-121979585D01*
X186710405Y-121973524D01*
X186869646Y-121857828D01*
X187008828Y-121718646D01*
X187124524Y-121559405D01*
X187213884Y-121384025D01*
X187274709Y-121196826D01*
X187295031Y-121068517D01*
X187305500Y-121002422D01*
X187305500Y-120805577D01*
X187274709Y-120611173D01*
X187238585Y-120499996D01*
X187213884Y-120423975D01*
X187213882Y-120423972D01*
X187213882Y-120423970D01*
X187124523Y-120248594D01*
X187008828Y-120089354D01*
X186869646Y-119950172D01*
X186775494Y-119881766D01*
X186710403Y-119834474D01*
X186533787Y-119744485D01*
X186482990Y-119696511D01*
X186466195Y-119628690D01*
X186488732Y-119562555D01*
X186533787Y-119523515D01*
X186710403Y-119433525D01*
X186710402Y-119433525D01*
X186710405Y-119433524D01*
X186869646Y-119317828D01*
X187008828Y-119178646D01*
X187124524Y-119019405D01*
X187213884Y-118844025D01*
X187274709Y-118656826D01*
X187280320Y-118621397D01*
X187305500Y-118462422D01*
X187305500Y-118265577D01*
X187274709Y-118071173D01*
X187223693Y-117914165D01*
X187213884Y-117883975D01*
X187213882Y-117883972D01*
X187213882Y-117883970D01*
X187136493Y-117732086D01*
X187124524Y-117708595D01*
X187008828Y-117549354D01*
X186869646Y-117410172D01*
X186790025Y-117352324D01*
X186710403Y-117294474D01*
X186533787Y-117204485D01*
X186482990Y-117156511D01*
X186466195Y-117088690D01*
X186488732Y-117022555D01*
X186533787Y-116983515D01*
X186587007Y-116956397D01*
X186710405Y-116893524D01*
X186724056Y-116883605D01*
X186772814Y-116848182D01*
X186838620Y-116824702D01*
X186845699Y-116824500D01*
X188256217Y-116824500D01*
X188323256Y-116844185D01*
X188343898Y-116860819D01*
X188599283Y-117116204D01*
X188599289Y-117116209D01*
X188626181Y-117143101D01*
X188659666Y-117204424D01*
X188662500Y-117230782D01*
X188662500Y-118751111D01*
X188642815Y-118818150D01*
X188626181Y-118838792D01*
X188518485Y-118946487D01*
X188518485Y-118946488D01*
X188518483Y-118946490D01*
X188504163Y-118966200D01*
X188379657Y-119137566D01*
X188272433Y-119348003D01*
X188199446Y-119572631D01*
X188162500Y-119805902D01*
X188162500Y-120042097D01*
X188199446Y-120275368D01*
X188272433Y-120499996D01*
X188329082Y-120611174D01*
X188379657Y-120710433D01*
X188518483Y-120901510D01*
X188685490Y-121068517D01*
X188876567Y-121207343D01*
X188975991Y-121258002D01*
X189087003Y-121314566D01*
X189087005Y-121314566D01*
X189087008Y-121314568D01*
X189207412Y-121353689D01*
X189311631Y-121387553D01*
X189544903Y-121424500D01*
X189544908Y-121424500D01*
X189781097Y-121424500D01*
X190014368Y-121387553D01*
X190025226Y-121384025D01*
X190238992Y-121314568D01*
X190449433Y-121207343D01*
X190640510Y-121068517D01*
X190807517Y-120901510D01*
X190946343Y-120710433D01*
X191053568Y-120499992D01*
X191126553Y-120275368D01*
X191146546Y-120149136D01*
X191163500Y-120042097D01*
X191163500Y-119805902D01*
X194662500Y-119805902D01*
X194662500Y-120042097D01*
X194699446Y-120275368D01*
X194772433Y-120499996D01*
X194829082Y-120611174D01*
X194879657Y-120710433D01*
X195018483Y-120901510D01*
X195185490Y-121068517D01*
X195376567Y-121207343D01*
X195475991Y-121258002D01*
X195587003Y-121314566D01*
X195587005Y-121314566D01*
X195587008Y-121314568D01*
X195707412Y-121353689D01*
X195811631Y-121387553D01*
X196044903Y-121424500D01*
X196044908Y-121424500D01*
X196281097Y-121424500D01*
X196514368Y-121387553D01*
X196525226Y-121384025D01*
X196738992Y-121314568D01*
X196949433Y-121207343D01*
X197140510Y-121068517D01*
X197307517Y-120901510D01*
X197446343Y-120710433D01*
X197553568Y-120499992D01*
X197626553Y-120275368D01*
X197646546Y-120149136D01*
X197663500Y-120042097D01*
X197663500Y-119805902D01*
X197626553Y-119572631D01*
X197581354Y-119433524D01*
X197553568Y-119348008D01*
X197553566Y-119348005D01*
X197553566Y-119348003D01*
X197473574Y-119191011D01*
X197446343Y-119137567D01*
X197307517Y-118946490D01*
X197140510Y-118779483D01*
X196949433Y-118640657D01*
X196911633Y-118621397D01*
X196738996Y-118533433D01*
X196514368Y-118460446D01*
X196281097Y-118423500D01*
X196281092Y-118423500D01*
X196044908Y-118423500D01*
X196044903Y-118423500D01*
X195811631Y-118460446D01*
X195587003Y-118533433D01*
X195376566Y-118640657D01*
X195315428Y-118685077D01*
X195185490Y-118779483D01*
X195185488Y-118779485D01*
X195185487Y-118779485D01*
X195018485Y-118946487D01*
X195018485Y-118946488D01*
X195018483Y-118946490D01*
X195004163Y-118966200D01*
X194879657Y-119137566D01*
X194772433Y-119348003D01*
X194699446Y-119572631D01*
X194662500Y-119805902D01*
X191163500Y-119805902D01*
X191126553Y-119572631D01*
X191081354Y-119433524D01*
X191053568Y-119348008D01*
X191053566Y-119348005D01*
X191053566Y-119348003D01*
X190973574Y-119191011D01*
X190946343Y-119137567D01*
X190807517Y-118946490D01*
X190699819Y-118838792D01*
X190666334Y-118777469D01*
X190663500Y-118751111D01*
X190663500Y-116666459D01*
X190663499Y-116666455D01*
X190657968Y-116638646D01*
X190625052Y-116473171D01*
X190625052Y-116473170D01*
X190625051Y-116473164D01*
X190621231Y-116463942D01*
X190613760Y-116394479D01*
X190645032Y-116331998D01*
X190648081Y-116328837D01*
X191930101Y-115046819D01*
X191991424Y-115013334D01*
X192017782Y-115010500D01*
X200381000Y-115010500D01*
X200448039Y-115030185D01*
X200493794Y-115082989D01*
X200505000Y-115134500D01*
X200505000Y-115210015D01*
X200515500Y-115312795D01*
X200515501Y-115312797D01*
X200532902Y-115365309D01*
X200570686Y-115479335D01*
X200570687Y-115479337D01*
X200662786Y-115628651D01*
X200662789Y-115628655D01*
X200786844Y-115752710D01*
X200786848Y-115752713D01*
X200936162Y-115844812D01*
X200936164Y-115844813D01*
X200936166Y-115844814D01*
X201102703Y-115899999D01*
X201205492Y-115910500D01*
X201205497Y-115910500D01*
X203605503Y-115910500D01*
X203605508Y-115910500D01*
X203708297Y-115899999D01*
X203874834Y-115844814D01*
X204024155Y-115752711D01*
X204148211Y-115628655D01*
X204240314Y-115479334D01*
X204295499Y-115312797D01*
X204306000Y-115210008D01*
X204306000Y-112809992D01*
X204295499Y-112707203D01*
X204240314Y-112540666D01*
X204154890Y-112402174D01*
X204148213Y-112391348D01*
X204148210Y-112391344D01*
X204024155Y-112267289D01*
X204024151Y-112267286D01*
X203874837Y-112175187D01*
X203874835Y-112175186D01*
X203774242Y-112141853D01*
X203708297Y-112120001D01*
X203708295Y-112120000D01*
X203605515Y-112109500D01*
X203605508Y-112109500D01*
X201205492Y-112109500D01*
X201205484Y-112109500D01*
X201102704Y-112120000D01*
X201102703Y-112120001D01*
X200936164Y-112175186D01*
X200936162Y-112175187D01*
X200786848Y-112267286D01*
X200786844Y-112267289D01*
X200662789Y-112391344D01*
X200662786Y-112391348D01*
X200570687Y-112540662D01*
X200570686Y-112540664D01*
X200515501Y-112707203D01*
X200515500Y-112707204D01*
X200505000Y-112809984D01*
X200505000Y-112885500D01*
X200485315Y-112952539D01*
X200432511Y-112998294D01*
X200381000Y-113009500D01*
X191453457Y-113009500D01*
X191370489Y-113026004D01*
X191370488Y-113026004D01*
X191260167Y-113047947D01*
X191260159Y-113047950D01*
X191206834Y-113070037D01*
X191206834Y-113070038D01*
X191161315Y-113088892D01*
X191078089Y-113123366D01*
X191078079Y-113123371D01*
X190914219Y-113232859D01*
X190844540Y-113302538D01*
X190774861Y-113372218D01*
X190774858Y-113372221D01*
X189264256Y-114882822D01*
X189202933Y-114916307D01*
X189133241Y-114911323D01*
X189129123Y-114909702D01*
X189041723Y-114873500D01*
X189013837Y-114861949D01*
X189013829Y-114861947D01*
X188917188Y-114842724D01*
X188820544Y-114823500D01*
X188820541Y-114823500D01*
X186845699Y-114823500D01*
X186778660Y-114803815D01*
X186772814Y-114799818D01*
X186710406Y-114754476D01*
X186533787Y-114664485D01*
X186482990Y-114616511D01*
X186466195Y-114548690D01*
X186488732Y-114482555D01*
X186533787Y-114443515D01*
X186710403Y-114353525D01*
X186710402Y-114353525D01*
X186710405Y-114353524D01*
X186869646Y-114237828D01*
X187008828Y-114098646D01*
X187124524Y-113939405D01*
X187213884Y-113764025D01*
X187274709Y-113576826D01*
X187305500Y-113382422D01*
X187305500Y-113185577D01*
X187274709Y-112991173D01*
X187223868Y-112834703D01*
X187213884Y-112803975D01*
X187213882Y-112803972D01*
X187213882Y-112803970D01*
X187164577Y-112707204D01*
X187124524Y-112628595D01*
X187008828Y-112469354D01*
X186869646Y-112330172D01*
X186790025Y-112272324D01*
X186710403Y-112214474D01*
X186533787Y-112124485D01*
X186482990Y-112076511D01*
X186466195Y-112008690D01*
X186488732Y-111942555D01*
X186533787Y-111903515D01*
X186710403Y-111813525D01*
X186710402Y-111813525D01*
X186710405Y-111813524D01*
X186869646Y-111697828D01*
X187008828Y-111558646D01*
X187124524Y-111399405D01*
X187213884Y-111224025D01*
X187274709Y-111036826D01*
X187305500Y-110842422D01*
X187305500Y-110645577D01*
X187274709Y-110451173D01*
X187213882Y-110263970D01*
X187124523Y-110088594D01*
X187008828Y-109929354D01*
X186869646Y-109790172D01*
X186772813Y-109719818D01*
X186710403Y-109674474D01*
X186533787Y-109584485D01*
X186482990Y-109536511D01*
X186466195Y-109468690D01*
X186488732Y-109402555D01*
X186533787Y-109363515D01*
X186710403Y-109273525D01*
X186710402Y-109273525D01*
X186710405Y-109273524D01*
X186869646Y-109157828D01*
X187008828Y-109018646D01*
X187124524Y-108859405D01*
X187213884Y-108684025D01*
X187274709Y-108496826D01*
X187289363Y-108404306D01*
X187305500Y-108302422D01*
X187305500Y-108105577D01*
X187274709Y-107911173D01*
X187213882Y-107723970D01*
X187124523Y-107548594D01*
X187008828Y-107389354D01*
X186869646Y-107250172D01*
X186772813Y-107179818D01*
X186710403Y-107134474D01*
X186533787Y-107044485D01*
X186482990Y-106996511D01*
X186466195Y-106928690D01*
X186488732Y-106862555D01*
X186533787Y-106823515D01*
X186592742Y-106793476D01*
X186710405Y-106733524D01*
X186724056Y-106723605D01*
X186772814Y-106688182D01*
X186838620Y-106664702D01*
X186845699Y-106664500D01*
X197075543Y-106664500D01*
X197116197Y-106656412D01*
X197182165Y-106643291D01*
X197268836Y-106626051D01*
X197323783Y-106603291D01*
X197450914Y-106550632D01*
X197614782Y-106441139D01*
X197754139Y-106301782D01*
X197754140Y-106301780D01*
X197761206Y-106294714D01*
X197761209Y-106294710D01*
X202821778Y-101234141D01*
X202821782Y-101234139D01*
X202961139Y-101094782D01*
X203070632Y-100930914D01*
X203146051Y-100748835D01*
X203157738Y-100690084D01*
X203184500Y-100555540D01*
X203184500Y-100358460D01*
X203184500Y-81943459D01*
X203184500Y-81943456D01*
X203146052Y-81750170D01*
X203146051Y-81750169D01*
X203146051Y-81750165D01*
X203079207Y-81588788D01*
X203070635Y-81568092D01*
X203070628Y-81568079D01*
X202961140Y-81404219D01*
X202933379Y-81376458D01*
X202821782Y-81264861D01*
X202821781Y-81264860D01*
X197413698Y-75856778D01*
X199561500Y-75856778D01*
X199561500Y-76145221D01*
X199561501Y-76145238D01*
X199599149Y-76431206D01*
X199599150Y-76431211D01*
X199599151Y-76431217D01*
X199673809Y-76709844D01*
X199673814Y-76709860D01*
X199784191Y-76976336D01*
X199784199Y-76976352D01*
X199928420Y-77226148D01*
X199928431Y-77226164D01*
X200104024Y-77455002D01*
X200104030Y-77455009D01*
X200307990Y-77658969D01*
X200307996Y-77658974D01*
X200536844Y-77834575D01*
X200536851Y-77834579D01*
X200786647Y-77978800D01*
X200786663Y-77978808D01*
X201053139Y-78089185D01*
X201053145Y-78089186D01*
X201053155Y-78089191D01*
X201331783Y-78163849D01*
X201617772Y-78201500D01*
X201617779Y-78201500D01*
X201906221Y-78201500D01*
X201906228Y-78201500D01*
X202192217Y-78163849D01*
X202470845Y-78089191D01*
X202470857Y-78089185D01*
X202470860Y-78089185D01*
X202737336Y-77978808D01*
X202737339Y-77978806D01*
X202737345Y-77978804D01*
X202987156Y-77834575D01*
X203216004Y-77658974D01*
X203419974Y-77455004D01*
X203595575Y-77226156D01*
X203739804Y-76976345D01*
X203746212Y-76960876D01*
X203850185Y-76709860D01*
X203850185Y-76709857D01*
X203850191Y-76709845D01*
X203924849Y-76431217D01*
X203962500Y-76145228D01*
X203962500Y-75856772D01*
X203924849Y-75570783D01*
X203850191Y-75292155D01*
X203850186Y-75292145D01*
X203850185Y-75292139D01*
X203739808Y-75025663D01*
X203739800Y-75025647D01*
X203595579Y-74775851D01*
X203595575Y-74775844D01*
X203419974Y-74546996D01*
X203419969Y-74546990D01*
X203216009Y-74343030D01*
X203216002Y-74343024D01*
X202987164Y-74167431D01*
X202987162Y-74167429D01*
X202987156Y-74167425D01*
X202987151Y-74167422D01*
X202987148Y-74167420D01*
X202737352Y-74023199D01*
X202737336Y-74023191D01*
X202470860Y-73912814D01*
X202470848Y-73912810D01*
X202470845Y-73912809D01*
X202192217Y-73838151D01*
X202192211Y-73838150D01*
X202192206Y-73838149D01*
X201906238Y-73800501D01*
X201906233Y-73800500D01*
X201906228Y-73800500D01*
X201617772Y-73800500D01*
X201617766Y-73800500D01*
X201617761Y-73800501D01*
X201331793Y-73838149D01*
X201331786Y-73838150D01*
X201331783Y-73838151D01*
X201053155Y-73912809D01*
X201053139Y-73912814D01*
X200786663Y-74023191D01*
X200786647Y-74023199D01*
X200536851Y-74167420D01*
X200536835Y-74167431D01*
X200307997Y-74343024D01*
X200307990Y-74343030D01*
X200104030Y-74546990D01*
X200104024Y-74546997D01*
X199928431Y-74775835D01*
X199928420Y-74775851D01*
X199784199Y-75025647D01*
X199784191Y-75025663D01*
X199673814Y-75292139D01*
X199673809Y-75292155D01*
X199599152Y-75570780D01*
X199599149Y-75570793D01*
X199561501Y-75856761D01*
X199561500Y-75856778D01*
X197413698Y-75856778D01*
X195983208Y-74426288D01*
X195983206Y-74426285D01*
X195983206Y-74426286D01*
X195976139Y-74419219D01*
X195976139Y-74419218D01*
X195836782Y-74279861D01*
X195836781Y-74279860D01*
X195836780Y-74279859D01*
X195672920Y-74170371D01*
X195672911Y-74170366D01*
X195600315Y-74140296D01*
X195544165Y-74117038D01*
X195490836Y-74094949D01*
X195490832Y-74094948D01*
X195490828Y-74094946D01*
X195394188Y-74075724D01*
X195297544Y-74056500D01*
X195297541Y-74056500D01*
X132311675Y-74056500D01*
X132311655Y-74056499D01*
X132305541Y-74056499D01*
X132108460Y-74056499D01*
X132108457Y-74056499D01*
X131915172Y-74094946D01*
X131915164Y-74094948D01*
X131733088Y-74170366D01*
X131733079Y-74170371D01*
X131569219Y-74279859D01*
X131569215Y-74279862D01*
X129139235Y-76709844D01*
X128354220Y-77494859D01*
X128354218Y-77494861D01*
X128284538Y-77564540D01*
X128214859Y-77634219D01*
X128105371Y-77798080D01*
X128105364Y-77798093D01*
X128090254Y-77834575D01*
X128081189Y-77856460D01*
X128030513Y-77978804D01*
X128029949Y-77980165D01*
X128029948Y-77980168D01*
X127991500Y-78173456D01*
X127991500Y-80515287D01*
X127971815Y-80582326D01*
X127919011Y-80628081D01*
X127864528Y-80638247D01*
X127864538Y-80639015D01*
X127860138Y-80639066D01*
X127860131Y-80639068D01*
X127860113Y-80639066D01*
X126834145Y-80651116D01*
X126794371Y-80645056D01*
X126589370Y-80578447D01*
X126356097Y-80541500D01*
X126356092Y-80541500D01*
X126119908Y-80541500D01*
X126119903Y-80541500D01*
X125886630Y-80578447D01*
X125886627Y-80578447D01*
X125662009Y-80651431D01*
X125662008Y-80651431D01*
X125660814Y-80652040D01*
X125660137Y-80652206D01*
X125657510Y-80653295D01*
X125657344Y-80652894D01*
X125605985Y-80665541D01*
X116448618Y-80773093D01*
X116344180Y-80785254D01*
X116344176Y-80785255D01*
X116294130Y-80796451D01*
X116194495Y-80829937D01*
X116073462Y-80907721D01*
X116073451Y-80907730D01*
X116020659Y-80953474D01*
X115926433Y-81062215D01*
X115926430Y-81062219D01*
X115866664Y-81193085D01*
X115846976Y-81260133D01*
X115826500Y-81402552D01*
X115826500Y-92191243D01*
X115806815Y-92258282D01*
X115754011Y-92304037D01*
X115684853Y-92313981D01*
X115621297Y-92284956D01*
X115608795Y-92272454D01*
X115608109Y-92271662D01*
X115608107Y-92271660D01*
X115592668Y-92258282D01*
X115499365Y-92177433D01*
X115499362Y-92177431D01*
X115499360Y-92177430D01*
X115368494Y-92117664D01*
X115368489Y-92117662D01*
X115368488Y-92117662D01*
X115301449Y-92097977D01*
X115301451Y-92097977D01*
X115301446Y-92097976D01*
X115253973Y-92091150D01*
X115159029Y-92077500D01*
X115159027Y-92077500D01*
X106801500Y-92077500D01*
X106734461Y-92057815D01*
X106688706Y-92005011D01*
X106677500Y-91953500D01*
X106677500Y-91437010D01*
X106677500Y-91437000D01*
X106665947Y-91329544D01*
X106654741Y-91278033D01*
X106654637Y-91277722D01*
X106620616Y-91175502D01*
X106620613Y-91175496D01*
X106542828Y-91054462D01*
X106542825Y-91054457D01*
X106542820Y-91054451D01*
X106497076Y-91001659D01*
X106497072Y-91001656D01*
X106497070Y-91001653D01*
X106388336Y-90907433D01*
X106388333Y-90907431D01*
X106388331Y-90907430D01*
X106257465Y-90847664D01*
X106257460Y-90847662D01*
X106257459Y-90847662D01*
X106190420Y-90827977D01*
X106190422Y-90827977D01*
X106190417Y-90827976D01*
X106128354Y-90819053D01*
X106048000Y-90807500D01*
X92093064Y-90807500D01*
X92026025Y-90787815D01*
X91980270Y-90735011D01*
X91969064Y-90683500D01*
X91969064Y-88567218D01*
X91988749Y-88500179D01*
X92005383Y-88479537D01*
X92326102Y-88158819D01*
X92353029Y-88144115D01*
X92378848Y-88127523D01*
X92385048Y-88126631D01*
X92387425Y-88125334D01*
X92413783Y-88122500D01*
X92477095Y-88122500D01*
X92544134Y-88142185D01*
X92564776Y-88158819D01*
X92596200Y-88190243D01*
X92596205Y-88190247D01*
X92751756Y-88303260D01*
X92774542Y-88319815D01*
X92902939Y-88385237D01*
X92970957Y-88419895D01*
X92970960Y-88419896D01*
X93075785Y-88453955D01*
X93180613Y-88488015D01*
X93398342Y-88522500D01*
X93398343Y-88522500D01*
X93618785Y-88522500D01*
X93618786Y-88522500D01*
X93836515Y-88488015D01*
X94046170Y-88419895D01*
X94242586Y-88319815D01*
X94420929Y-88190242D01*
X94576806Y-88034365D01*
X94706379Y-87856022D01*
X94806459Y-87659606D01*
X94874579Y-87449951D01*
X94909064Y-87232222D01*
X94909064Y-87011778D01*
X94874579Y-86794049D01*
X94815266Y-86611499D01*
X94806460Y-86584396D01*
X94806459Y-86584393D01*
X94751649Y-86476825D01*
X94706379Y-86387978D01*
X94609444Y-86254557D01*
X94576811Y-86209641D01*
X94576807Y-86209636D01*
X94420927Y-86053756D01*
X94420922Y-86053752D01*
X94242589Y-85924187D01*
X94242588Y-85924186D01*
X94242586Y-85924185D01*
X94146009Y-85874976D01*
X94046170Y-85824104D01*
X94046167Y-85824103D01*
X93836516Y-85755985D01*
X93727650Y-85738742D01*
X93618786Y-85721500D01*
X93398342Y-85721500D01*
X93325765Y-85732995D01*
X93180611Y-85755985D01*
X92970960Y-85824103D01*
X92970957Y-85824104D01*
X92774538Y-85924187D01*
X92596205Y-86053752D01*
X92596200Y-86053756D01*
X92564776Y-86085181D01*
X92503453Y-86118666D01*
X92477095Y-86121500D01*
X91849454Y-86121500D01*
X91817391Y-86127876D01*
X91817392Y-86127877D01*
X91656170Y-86159946D01*
X91656164Y-86159948D01*
X91474088Y-86235366D01*
X91474079Y-86235371D01*
X91310219Y-86344859D01*
X91310215Y-86344862D01*
X90422858Y-87232221D01*
X90330784Y-87324295D01*
X90330782Y-87324297D01*
X90261102Y-87393976D01*
X90191423Y-87463655D01*
X90081935Y-87627515D01*
X90081928Y-87627528D01*
X90040351Y-87727908D01*
X90016461Y-87785584D01*
X90016460Y-87785586D01*
X90006514Y-87809594D01*
X90006511Y-87809607D01*
X89968064Y-88002890D01*
X89968064Y-90683500D01*
X89948379Y-90750539D01*
X89895575Y-90796294D01*
X89844064Y-90807500D01*
X87746500Y-90807500D01*
X87679461Y-90787815D01*
X87633706Y-90735011D01*
X87622500Y-90683500D01*
X87622500Y-75856778D01*
X89921500Y-75856778D01*
X89921500Y-76145221D01*
X89921501Y-76145238D01*
X89959149Y-76431206D01*
X89959150Y-76431211D01*
X89959151Y-76431217D01*
X90033809Y-76709844D01*
X90033814Y-76709860D01*
X90144191Y-76976336D01*
X90144199Y-76976352D01*
X90288420Y-77226148D01*
X90288431Y-77226164D01*
X90464024Y-77455002D01*
X90464030Y-77455009D01*
X90667990Y-77658969D01*
X90667996Y-77658974D01*
X90896844Y-77834575D01*
X90896851Y-77834579D01*
X91146647Y-77978800D01*
X91146663Y-77978808D01*
X91413139Y-78089185D01*
X91413145Y-78089186D01*
X91413155Y-78089191D01*
X91691783Y-78163849D01*
X91977772Y-78201500D01*
X91977779Y-78201500D01*
X92266221Y-78201500D01*
X92266228Y-78201500D01*
X92552217Y-78163849D01*
X92830845Y-78089191D01*
X92830857Y-78089185D01*
X92830860Y-78089185D01*
X93097336Y-77978808D01*
X93097339Y-77978806D01*
X93097345Y-77978804D01*
X93347156Y-77834575D01*
X93576004Y-77658974D01*
X93779974Y-77455004D01*
X93955575Y-77226156D01*
X94099804Y-76976345D01*
X94106212Y-76960876D01*
X94210185Y-76709860D01*
X94210185Y-76709857D01*
X94210191Y-76709845D01*
X94284849Y-76431217D01*
X94322500Y-76145228D01*
X94322500Y-75856772D01*
X94284849Y-75570783D01*
X94210191Y-75292155D01*
X94210186Y-75292145D01*
X94210185Y-75292139D01*
X94099808Y-75025663D01*
X94099800Y-75025647D01*
X93955579Y-74775851D01*
X93955575Y-74775844D01*
X93779974Y-74546996D01*
X93779969Y-74546990D01*
X93576009Y-74343030D01*
X93576002Y-74343024D01*
X93347164Y-74167431D01*
X93347162Y-74167429D01*
X93347156Y-74167425D01*
X93347151Y-74167422D01*
X93347148Y-74167420D01*
X93097352Y-74023199D01*
X93097336Y-74023191D01*
X92830860Y-73912814D01*
X92830848Y-73912810D01*
X92830845Y-73912809D01*
X92552217Y-73838151D01*
X92552211Y-73838150D01*
X92552206Y-73838149D01*
X92266238Y-73800501D01*
X92266233Y-73800500D01*
X92266228Y-73800500D01*
X91977772Y-73800500D01*
X91977766Y-73800500D01*
X91977761Y-73800501D01*
X91691793Y-73838149D01*
X91691786Y-73838150D01*
X91691783Y-73838151D01*
X91413155Y-73912809D01*
X91413139Y-73912814D01*
X91146663Y-74023191D01*
X91146647Y-74023199D01*
X90896851Y-74167420D01*
X90896835Y-74167431D01*
X90667997Y-74343024D01*
X90667990Y-74343030D01*
X90464030Y-74546990D01*
X90464024Y-74546997D01*
X90288431Y-74775835D01*
X90288420Y-74775851D01*
X90144199Y-75025647D01*
X90144191Y-75025663D01*
X90033814Y-75292139D01*
X90033809Y-75292155D01*
X89959152Y-75570780D01*
X89959149Y-75570793D01*
X89921501Y-75856761D01*
X89921500Y-75856778D01*
X87622500Y-75856778D01*
X87622500Y-71625500D01*
X87642185Y-71558461D01*
X87694989Y-71512706D01*
X87746500Y-71501500D01*
X206137500Y-71501500D01*
X206204539Y-71521185D01*
G37*
%TD.AperFunction*%
%TD*%
M02*
