%TF.GenerationSoftware,KiCad,Pcbnew,9.0.6*%
%TF.CreationDate,2026-01-26T13:56:56-03:00*%
%TF.ProjectId,RWPendulum,52575065-6e64-4756-9c75-6d2e6b696361,0*%
%TF.SameCoordinates,Original*%
%TF.FileFunction,Copper,L2,Bot*%
%TF.FilePolarity,Positive*%
%FSLAX46Y46*%
G04 Gerber Fmt 4.6, Leading zero omitted, Abs format (unit mm)*
G04 Created by KiCad (PCBNEW 9.0.6) date 2026-01-26 13:56:56*
%MOMM*%
%LPD*%
G01*
G04 APERTURE LIST*
G04 Aperture macros list*
%AMRoundRect*
0 Rectangle with rounded corners*
0 $1 Rounding radius*
0 $2 $3 $4 $5 $6 $7 $8 $9 X,Y pos of 4 corners*
0 Add a 4 corners polygon primitive as box body*
4,1,4,$2,$3,$4,$5,$6,$7,$8,$9,$2,$3,0*
0 Add four circle primitives for the rounded corners*
1,1,$1+$1,$2,$3*
1,1,$1+$1,$4,$5*
1,1,$1+$1,$6,$7*
1,1,$1+$1,$8,$9*
0 Add four rect primitives between the rounded corners*
20,1,$1+$1,$2,$3,$4,$5,0*
20,1,$1+$1,$4,$5,$6,$7,0*
20,1,$1+$1,$6,$7,$8,$9,0*
20,1,$1+$1,$8,$9,$2,$3,0*%
G04 Aperture macros list end*
%TA.AperFunction,ComponentPad*%
%ADD10C,2.200000*%
%TD*%
%TA.AperFunction,ComponentPad*%
%ADD11C,1.600000*%
%TD*%
%TA.AperFunction,ComponentPad*%
%ADD12R,1.980000X2.500000*%
%TD*%
%TA.AperFunction,ComponentPad*%
%ADD13C,2.500000*%
%TD*%
%TA.AperFunction,ComponentPad*%
%ADD14RoundRect,0.250001X-1.149999X1.149999X-1.149999X-1.149999X1.149999X-1.149999X1.149999X1.149999X0*%
%TD*%
%TA.AperFunction,ComponentPad*%
%ADD15C,2.800000*%
%TD*%
%TA.AperFunction,ComponentPad*%
%ADD16RoundRect,0.250000X0.550000X-0.750000X0.550000X0.750000X-0.550000X0.750000X-0.550000X-0.750000X0*%
%TD*%
%TA.AperFunction,ComponentPad*%
%ADD17C,2.000000*%
%TD*%
%TA.AperFunction,ComponentPad*%
%ADD18C,3.000000*%
%TD*%
%TA.AperFunction,ComponentPad*%
%ADD19RoundRect,0.250001X1.149999X-1.149999X1.149999X1.149999X-1.149999X1.149999X-1.149999X-1.149999X0*%
%TD*%
%TA.AperFunction,ComponentPad*%
%ADD20R,2.200000X2.200000*%
%TD*%
%TA.AperFunction,ComponentPad*%
%ADD21R,2.200000X1.800000*%
%TD*%
%TA.AperFunction,ComponentPad*%
%ADD22RoundRect,0.250000X1.330000X1.800000X-1.330000X1.800000X-1.330000X-1.800000X1.330000X-1.800000X0*%
%TD*%
%TA.AperFunction,ComponentPad*%
%ADD23O,3.160000X4.100000*%
%TD*%
%TA.AperFunction,ComponentPad*%
%ADD24R,1.700000X2.200000*%
%TD*%
%TA.AperFunction,Conductor*%
%ADD25C,1.500000*%
%TD*%
%TA.AperFunction,Conductor*%
%ADD26C,1.000000*%
%TD*%
G04 APERTURE END LIST*
D10*
%TO.P,SW2,1,1*%
%TO.N,GND*%
X196163000Y-124424000D03*
X189663000Y-124424000D03*
%TO.P,SW2,2,2*%
%TO.N,/BTN_EN_CONTROL*%
X196163000Y-119924000D03*
X189663000Y-119924000D03*
%TD*%
D11*
%TO.P,C1,1*%
%TO.N,GND*%
X148550000Y-116459000D03*
%TO.P,C1,2*%
%TO.N,+3V3*%
X143550000Y-116459000D03*
%TD*%
%TO.P,C2,1*%
%TO.N,GND*%
X125175000Y-116205000D03*
%TO.P,C2,2*%
%TO.N,+3V3*%
X130175000Y-116205000D03*
%TD*%
D12*
%TO.P,IC1,1,INPUT*%
%TO.N,+12V*%
X113292000Y-105283000D03*
D13*
%TO.P,IC1,2,GROUND*%
%TO.N,GND*%
X113292000Y-102733000D03*
%TO.P,IC1,3,OUTPUT*%
%TO.N,+5V*%
X113292000Y-100183000D03*
%TD*%
D11*
%TO.P,C4,1*%
%TO.N,+5V*%
X189143000Y-87884000D03*
%TO.P,C4,2*%
%TO.N,GND*%
X194143000Y-87884000D03*
%TD*%
D14*
%TO.P,J1,1,Pin_1*%
%TO.N,GND*%
X91440000Y-114253000D03*
D15*
%TO.P,J1,2,Pin_2*%
%TO.N,/V+_UNFUSED*%
X91440000Y-119253000D03*
%TD*%
D16*
%TO.P,C5,1*%
%TO.N,+12V*%
X110018564Y-93853000D03*
D17*
%TO.P,C5,2*%
%TO.N,GND*%
X110018564Y-90353000D03*
%TD*%
D18*
%TO.P,F1,1*%
%TO.N,/V+_UNFUSED*%
X101727000Y-119200000D03*
%TO.P,F1,2*%
%TO.N,/V+*%
X101727000Y-96700000D03*
%TD*%
D19*
%TO.P,J4,1,Pin_1*%
%TO.N,/BTN_EN_CONTROL*%
X202405500Y-114010000D03*
D15*
%TO.P,J4,2,Pin_2*%
%TO.N,GND*%
X202405500Y-109010000D03*
%TD*%
D20*
%TO.P,U2,1,3V3*%
%TO.N,+3V3*%
X163195000Y-87884000D03*
D10*
%TO.P,U2,2,GND*%
%TO.N,GND*%
X163195000Y-90424000D03*
%TO.P,U2,3,D15*%
%TO.N,unconnected-(U2-D15-Pad3)*%
X163195000Y-92964000D03*
%TO.P,U2,4,D2*%
%TO.N,unconnected-(U2-D2-Pad4)*%
X163195000Y-95504000D03*
%TO.P,U2,5,D4*%
%TO.N,unconnected-(U2-D4-Pad5)*%
X163195000Y-98044000D03*
%TO.P,U2,6,RX2*%
%TO.N,unconnected-(U2-RX2-Pad6)*%
X163195000Y-100584000D03*
%TO.P,U2,7,TX2*%
%TO.N,unconnected-(U2-TX2-Pad7)*%
X163195000Y-103124000D03*
%TO.P,U2,8,D5*%
%TO.N,/MOTOR_ENC_A*%
X163195000Y-105664000D03*
%TO.P,U2,9,D18*%
%TO.N,/MOTOR_ENC_B*%
X163195000Y-108204000D03*
%TO.P,U2,10,D19*%
%TO.N,/BASE_ENC_A*%
X163195000Y-110744000D03*
%TO.P,U2,11,D21*%
%TO.N,/BASE_ENC_B*%
X163195000Y-113284000D03*
%TO.P,U2,12,RX0*%
%TO.N,unconnected-(U2-RX0-Pad12)*%
X163195000Y-115824000D03*
%TO.P,U2,13,TX0*%
%TO.N,unconnected-(U2-TX0-Pad13)*%
X163195000Y-118364000D03*
%TO.P,U2,14,D22*%
%TO.N,unconnected-(U2-D22-Pad14)*%
X163195000Y-120904000D03*
%TO.P,U2,15,D23*%
%TO.N,unconnected-(U2-D23-Pad15)*%
X163195000Y-123444000D03*
%TO.P,U2,16,EN*%
%TO.N,unconnected-(U2-EN-Pad16)*%
X186055000Y-123444000D03*
%TO.P,U2,17,VP*%
%TO.N,unconnected-(U2-VP-Pad17)*%
X186055000Y-120904000D03*
%TO.P,U2,18,VN*%
%TO.N,unconnected-(U2-VN-Pad18)*%
X186055000Y-118364000D03*
%TO.P,U2,19,D34*%
%TO.N,unconnected-(U2-D34-Pad19)*%
X186055000Y-115824000D03*
%TO.P,U2,20,D35*%
%TO.N,unconnected-(U2-D35-Pad20)*%
X186055000Y-113284000D03*
%TO.P,U2,21,D32*%
%TO.N,unconnected-(U2-D32-Pad21)*%
X186055000Y-110744000D03*
%TO.P,U2,22,D33*%
%TO.N,unconnected-(U2-D33-Pad22)*%
X186055000Y-108204000D03*
%TO.P,U2,23,D25*%
%TO.N,/BTN_EN_CONTROL*%
X186055000Y-105664000D03*
%TO.P,U2,24,D26*%
%TO.N,/DRIVER_PWM1*%
X186055000Y-103124000D03*
%TO.P,U2,25,D27*%
%TO.N,/DRIVER_PWM2*%
X186055000Y-100584000D03*
%TO.P,U2,26,D14*%
%TO.N,unconnected-(U2-D14-Pad26)*%
X186055000Y-98044000D03*
%TO.P,U2,27,D12*%
%TO.N,unconnected-(U2-D12-Pad27)*%
X186055000Y-95504000D03*
%TO.P,U2,28,D13*%
%TO.N,unconnected-(U2-D13-Pad28)*%
X186055000Y-92964000D03*
%TO.P,U2,29,GND*%
%TO.N,GND*%
X186055000Y-90424000D03*
%TO.P,U2,30,VIN*%
%TO.N,+5V*%
X186055000Y-87884000D03*
%TD*%
D21*
%TO.P,D1,1,K*%
%TO.N,GND*%
X96048564Y-87122000D03*
D10*
%TO.P,D1,2,A*%
%TO.N,Net-(D1-A)*%
X93508564Y-87122000D03*
%TD*%
D22*
%TO.P,J3,1,Pin_1*%
%TO.N,/BASE_ENC_B*%
X155419000Y-120919000D03*
D23*
%TO.P,J3,2,Pin_2*%
%TO.N,/BASE_ENC_A*%
X151459000Y-120919000D03*
%TO.P,J3,3,Pin_3*%
%TO.N,GND*%
X147499000Y-120919000D03*
%TO.P,J3,4,Pin_4*%
%TO.N,+3V3*%
X143539000Y-120919000D03*
%TD*%
D11*
%TO.P,C3,1*%
%TO.N,+5V*%
X138898000Y-81661000D03*
%TO.P,C3,2*%
%TO.N,GND*%
X133898000Y-81661000D03*
%TD*%
D22*
%TO.P,J2,1,Pin_1*%
%TO.N,/MOTOR_ENC_B*%
X137154000Y-120919000D03*
D23*
%TO.P,J2,2,Pin_2*%
%TO.N,/MOTOR_ENC_A*%
X133194000Y-120919000D03*
%TO.P,J2,3,Pin_3*%
%TO.N,+3V3*%
X129234000Y-120919000D03*
%TO.P,J2,4,Pin_4*%
%TO.N,GND*%
X125274000Y-120919000D03*
%TO.P,J2,5,Pin_5*%
%TO.N,/MOTOR+*%
X121314000Y-120919000D03*
%TO.P,J2,6,Pin_6*%
%TO.N,/MOTOR-*%
X117354000Y-120919000D03*
%TD*%
D24*
%TO.P,A1,1,VM*%
%TO.N,unconnected-(A1-VM-Pad1)*%
X146772000Y-85003000D03*
D10*
%TO.P,A1,2,GND*%
%TO.N,GND*%
X144232000Y-85003000D03*
%TO.P,A1,3,VCC*%
%TO.N,+5V*%
X141692000Y-85003000D03*
%TO.P,A1,4,OCC*%
%TO.N,unconnected-(A1-OCC-Pad4)*%
X139152000Y-85003000D03*
%TO.P,A1,5,EN*%
%TO.N,+5V*%
X136612000Y-85003000D03*
%TO.P,A1,6,ENB*%
%TO.N,GND*%
X134072000Y-85003000D03*
%TO.P,A1,7,PWM2*%
%TO.N,/DRIVER_PWM2*%
X131532000Y-85003000D03*
%TO.P,A1,8,PWM1*%
%TO.N,/DRIVER_PWM1*%
X128992000Y-85003000D03*
%TO.P,A1,9,OCM*%
%TO.N,unconnected-(A1-OCM-Pad9)*%
X126452000Y-85003000D03*
%TO.P,A1,10,DIAG*%
%TO.N,unconnected-(A1-DIAG-Pad10)*%
X123912000Y-85003000D03*
%TO.P,A1,11,VIN*%
%TO.N,+12V*%
X139152000Y-107863000D03*
%TO.P,A1,12,GND*%
%TO.N,GND*%
X136612000Y-107863000D03*
%TO.P,A1,13,OUT2*%
%TO.N,/MOTOR+*%
X134072000Y-107863000D03*
%TO.P,A1,14,OUT1*%
%TO.N,/MOTOR-*%
X131532000Y-107863000D03*
%TD*%
D17*
%TO.P,R2,1*%
%TO.N,Net-(D1-A)*%
X90968564Y-92583000D03*
%TO.P,R2,2*%
%TO.N,+12V*%
X101128564Y-92583000D03*
%TD*%
D14*
%TO.P,SW1,1,A*%
%TO.N,+12V*%
X91440000Y-97997000D03*
D15*
%TO.P,SW1,2,B*%
%TO.N,/V+*%
X91440000Y-102997000D03*
%TD*%
D25*
%TO.N,/MOTOR_ENC_A*%
X157226000Y-105664000D02*
X163195000Y-105664000D01*
X140522159Y-112299000D02*
X150591000Y-112299000D01*
X140299158Y-112395000D02*
X140426158Y-112395000D01*
X135101000Y-117629000D02*
X135101000Y-117593158D01*
X140426158Y-112395000D02*
X140522159Y-112299000D01*
X150591000Y-112299000D02*
X157226000Y-105664000D01*
X133194000Y-119536000D02*
X135101000Y-117629000D01*
X135101000Y-117593158D02*
X140299158Y-112395000D01*
X133194000Y-120919000D02*
X133194000Y-119536000D01*
%TO.N,/MOTOR_ENC_B*%
X151892000Y-114300000D02*
X157988000Y-108204000D01*
X141351000Y-114300000D02*
X151892000Y-114300000D01*
X137102000Y-118549000D02*
X141351000Y-114300000D01*
X157988000Y-108204000D02*
X163195000Y-108204000D01*
X137102000Y-121473000D02*
X137102000Y-118549000D01*
%TO.N,/BASE_ENC_A*%
X151392000Y-118102000D02*
X151392000Y-121433000D01*
X158750000Y-110744000D02*
X151392000Y-118102000D01*
X163195000Y-110744000D02*
X158750000Y-110744000D01*
%TO.N,/BASE_ENC_B*%
X159385000Y-113284000D02*
X163195000Y-113284000D01*
X155352000Y-117317000D02*
X159385000Y-113284000D01*
X155352000Y-121433000D02*
X155352000Y-117317000D01*
D26*
%TO.N,/MOTOR_ENC_A*%
X133142000Y-121473000D02*
X133142000Y-119207000D01*
D25*
%TO.N,GND*%
X133898000Y-82193000D02*
X133898000Y-84829000D01*
X133898000Y-84829000D02*
X134072000Y-85003000D01*
X125175000Y-116205000D02*
X125175000Y-120820000D01*
X125175000Y-120820000D02*
X125274000Y-120919000D01*
D26*
%TO.N,/BTN_EN_CONTROL*%
X191552000Y-107224000D02*
X191552000Y-114010000D01*
X202405500Y-114010000D02*
X191552000Y-114010000D01*
X189663000Y-119924000D02*
X189663000Y-115899000D01*
X191516000Y-107188000D02*
X191552000Y-107224000D01*
X186055000Y-105664000D02*
X189992000Y-105664000D01*
X189663000Y-115899000D02*
X191552000Y-114010000D01*
X189992000Y-105664000D02*
X191516000Y-107188000D01*
%TO.N,/DRIVER_PWM1*%
X128992000Y-85003000D02*
X128992000Y-78272000D01*
X201041000Y-82677000D02*
X201041000Y-97790000D01*
X132207000Y-75057000D02*
X193421000Y-75057000D01*
X201041000Y-97790000D02*
X195707000Y-103124000D01*
X193421000Y-75057000D02*
X201041000Y-82677000D01*
X128992000Y-78272000D02*
X132207000Y-75057000D01*
X195707000Y-103124000D02*
X186055000Y-103124000D01*
D25*
%TO.N,+5V*%
X140970000Y-81661000D02*
X138898000Y-81661000D01*
X141692000Y-85003000D02*
X141692000Y-82383000D01*
X141692000Y-82383000D02*
X140970000Y-81661000D01*
%TO.N,+3V3*%
X143472000Y-121433000D02*
X143472000Y-116791000D01*
X143487724Y-121417276D02*
X143472000Y-121433000D01*
X129159000Y-120844000D02*
X129234000Y-120919000D01*
X143472000Y-116791000D02*
X143550000Y-116713000D01*
D26*
%TO.N,/DRIVER_PWM2*%
X131532000Y-85003000D02*
X131532000Y-79288000D01*
X133731000Y-77089000D02*
X192659000Y-77089000D01*
X195262500Y-100584000D02*
X186055000Y-100584000D01*
X131532000Y-79288000D02*
X133731000Y-77089000D01*
X199263000Y-83693000D02*
X199263000Y-96583500D01*
X192659000Y-77089000D02*
X199263000Y-83693000D01*
X199263000Y-96583500D02*
X195262500Y-100584000D01*
D25*
%TO.N,+12V*%
X113292000Y-105283000D02*
X138858000Y-105283000D01*
X139152000Y-107863000D02*
X139152000Y-105577000D01*
X139152000Y-105577000D02*
X138858000Y-105283000D01*
%TO.N,/MOTOR-*%
X122174000Y-107823000D02*
X122214000Y-107863000D01*
X122214000Y-107863000D02*
X131532000Y-107863000D01*
X117302000Y-121473000D02*
X117302000Y-112695000D01*
X117302000Y-112695000D02*
X122174000Y-107823000D01*
%TO.N,/MOTOR+*%
X124460000Y-111379000D02*
X132334000Y-111379000D01*
X121262000Y-114577000D02*
X124460000Y-111379000D01*
X121262000Y-121473000D02*
X121262000Y-114577000D01*
X132334000Y-111379000D02*
X134072000Y-109641000D01*
X134072000Y-109641000D02*
X134072000Y-107863000D01*
D26*
%TO.N,Net-(D1-A)*%
X91948000Y-87122000D02*
X93508564Y-87122000D01*
X90968564Y-92583000D02*
X90968564Y-88101436D01*
X90968564Y-88101436D02*
X91948000Y-87122000D01*
%TD*%
%TA.AperFunction,Conductor*%
%TO.N,/V+_UNFUSED*%
G36*
X107639039Y-116224685D02*
G01*
X107684794Y-116277489D01*
X107696000Y-116329000D01*
X107696000Y-129543000D01*
X107676315Y-129610039D01*
X107623511Y-129655794D01*
X107572000Y-129667000D01*
X95882000Y-129667000D01*
X95814961Y-129647315D01*
X95769206Y-129594511D01*
X95758000Y-129543000D01*
X95758000Y-122301000D01*
X87746500Y-122301000D01*
X87679461Y-122281315D01*
X87633706Y-122228511D01*
X87622500Y-122177000D01*
X87622500Y-116329000D01*
X87642185Y-116261961D01*
X87694989Y-116216206D01*
X87746500Y-116205000D01*
X107572000Y-116205000D01*
X107639039Y-116224685D01*
G37*
%TD.AperFunction*%
%TD*%
%TA.AperFunction,Conductor*%
%TO.N,+5V*%
G36*
X191840039Y-80029685D02*
G01*
X191885794Y-80082489D01*
X191897000Y-80134000D01*
X191897000Y-88903000D01*
X191877315Y-88970039D01*
X191824511Y-89015794D01*
X191773000Y-89027000D01*
X186868407Y-89027000D01*
X186812112Y-89013485D01*
X186669383Y-88940760D01*
X186429785Y-88862910D01*
X186364059Y-88852500D01*
X186180962Y-88823500D01*
X185929038Y-88823500D01*
X185804626Y-88843205D01*
X185680214Y-88862910D01*
X185440616Y-88940760D01*
X185297888Y-89013485D01*
X185241593Y-89027000D01*
X181734000Y-89027000D01*
X181666961Y-89007315D01*
X181621206Y-88954511D01*
X181610000Y-88903000D01*
X181610000Y-83566000D01*
X155194000Y-83566000D01*
X143673589Y-101542905D01*
X143620843Y-101588728D01*
X143569187Y-101600000D01*
X119761000Y-101600000D01*
X117708304Y-101600000D01*
X117641265Y-101580315D01*
X117595510Y-101527511D01*
X117589327Y-101510936D01*
X117586569Y-101501544D01*
X117553819Y-101390008D01*
X117476031Y-101268968D01*
X117367294Y-101174746D01*
X117367290Y-101174744D01*
X117236419Y-101114976D01*
X117236414Y-101114975D01*
X117094000Y-101094500D01*
X114320840Y-101094500D01*
X114320830Y-101094500D01*
X114278777Y-101096252D01*
X114138563Y-101128506D01*
X114138553Y-101128511D01*
X114129156Y-101133788D01*
X114061064Y-101149449D01*
X114020990Y-101140230D01*
X113855887Y-101071842D01*
X113855885Y-101071841D01*
X113855884Y-101071841D01*
X113790035Y-101054197D01*
X113634238Y-101012452D01*
X113596215Y-101007446D01*
X113406741Y-100982500D01*
X113406734Y-100982500D01*
X113177266Y-100982500D01*
X113177258Y-100982500D01*
X112960715Y-101011009D01*
X112949762Y-101012452D01*
X112901700Y-101025330D01*
X112728112Y-101071842D01*
X112559318Y-101141759D01*
X112489849Y-101149228D01*
X112460355Y-101139993D01*
X112405575Y-101114976D01*
X112405573Y-101114975D01*
X112263159Y-101094500D01*
X111887000Y-101094500D01*
X111886997Y-101094500D01*
X111815059Y-101099644D01*
X111724882Y-101126123D01*
X111677008Y-101140181D01*
X111677006Y-101140182D01*
X111668500Y-101142680D01*
X111667744Y-101140106D01*
X111612335Y-101148065D01*
X111548784Y-101119031D01*
X111511018Y-101060248D01*
X111506000Y-101025330D01*
X111506000Y-96643499D01*
X111525685Y-96576460D01*
X111578489Y-96530705D01*
X111629497Y-96519500D01*
X135272104Y-96423780D01*
X135255000Y-98425000D01*
X137795000Y-98425000D01*
X137795000Y-96413566D01*
X140462000Y-96402768D01*
X140462000Y-97663000D01*
X142875000Y-97663000D01*
X142875000Y-96393000D01*
X152998629Y-80068647D01*
X153050690Y-80022049D01*
X153104010Y-80010000D01*
X191773000Y-80010000D01*
X191840039Y-80029685D01*
G37*
%TD.AperFunction*%
%TD*%
%TA.AperFunction,Conductor*%
%TO.N,+12V*%
G36*
X89884214Y-91332685D02*
G01*
X89929969Y-91385489D01*
X89939913Y-91454647D01*
X89910888Y-91518203D01*
X89904856Y-91524681D01*
X89824049Y-91605487D01*
X89824049Y-91605488D01*
X89824047Y-91605490D01*
X89801631Y-91636343D01*
X89685221Y-91796566D01*
X89577997Y-92007003D01*
X89505010Y-92231631D01*
X89468064Y-92464902D01*
X89468064Y-92701097D01*
X89505010Y-92934368D01*
X89577997Y-93158996D01*
X89685221Y-93369433D01*
X89824047Y-93560510D01*
X89991054Y-93727517D01*
X90182131Y-93866343D01*
X90281555Y-93917002D01*
X90392567Y-93973566D01*
X90392569Y-93973566D01*
X90392572Y-93973568D01*
X90512976Y-94012689D01*
X90617195Y-94046553D01*
X90850467Y-94083500D01*
X90850472Y-94083500D01*
X91086661Y-94083500D01*
X91319932Y-94046553D01*
X91544556Y-93973568D01*
X91754997Y-93866343D01*
X91946074Y-93727517D01*
X92113081Y-93560510D01*
X92251907Y-93369433D01*
X92359132Y-93158992D01*
X92432117Y-92934368D01*
X92469064Y-92701097D01*
X92469064Y-92464902D01*
X92432117Y-92231631D01*
X92359130Y-92007003D01*
X92251906Y-91796566D01*
X92113081Y-91605490D01*
X92032272Y-91524681D01*
X91998787Y-91463358D01*
X92003771Y-91393666D01*
X92045643Y-91337733D01*
X92111107Y-91313316D01*
X92119953Y-91313000D01*
X106048000Y-91313000D01*
X106115039Y-91332685D01*
X106160794Y-91385489D01*
X106172000Y-91437000D01*
X106172000Y-92583000D01*
X116208000Y-92583000D01*
X116275039Y-92602685D01*
X116320794Y-92655489D01*
X116332000Y-92707000D01*
X116332000Y-95871457D01*
X116312315Y-95938496D01*
X116259511Y-95984251D01*
X116208502Y-95995456D01*
X111627458Y-96014003D01*
X111573144Y-96020009D01*
X111521039Y-96025772D01*
X111496805Y-96031095D01*
X111470039Y-96036975D01*
X111470036Y-96036975D01*
X111470031Y-96036977D01*
X111368496Y-96070886D01*
X111368494Y-96070886D01*
X111368494Y-96070887D01*
X111368490Y-96070889D01*
X111247462Y-96148669D01*
X111247451Y-96148678D01*
X111194659Y-96194422D01*
X111100433Y-96303163D01*
X111100430Y-96303167D01*
X111040664Y-96434033D01*
X111020976Y-96501081D01*
X111000500Y-96643500D01*
X111000500Y-101025344D01*
X111005637Y-101097209D01*
X111005640Y-101097239D01*
X111010658Y-101132157D01*
X111025975Y-101202596D01*
X111085723Y-101333478D01*
X111085730Y-101333492D01*
X111123483Y-101392254D01*
X111123492Y-101392266D01*
X111217694Y-101501012D01*
X111217697Y-101501015D01*
X111259137Y-101527655D01*
X111324555Y-101569710D01*
X111370302Y-101622519D01*
X111381500Y-101674015D01*
X111381500Y-103752199D01*
X111381501Y-103752218D01*
X111393050Y-103859645D01*
X111393051Y-103859647D01*
X111443329Y-103994454D01*
X111443330Y-103994455D01*
X111529553Y-104109638D01*
X111644734Y-104195864D01*
X111644737Y-104195865D01*
X111779536Y-104246144D01*
X111779537Y-104246144D01*
X111779542Y-104246146D01*
X111913474Y-104255726D01*
X111923055Y-104256412D01*
X111923055Y-104256411D01*
X111923056Y-104256412D01*
X112063649Y-104225830D01*
X112167092Y-104169347D01*
X112235361Y-104154496D01*
X112300825Y-104178913D01*
X112301950Y-104179765D01*
X112317388Y-104191611D01*
X112376657Y-104225830D01*
X112516108Y-104306342D01*
X112516123Y-104306349D01*
X112607086Y-104344027D01*
X112728113Y-104394158D01*
X112949762Y-104453548D01*
X113177266Y-104483500D01*
X113177273Y-104483500D01*
X113406727Y-104483500D01*
X113406734Y-104483500D01*
X113634238Y-104453548D01*
X113855887Y-104394158D01*
X114067888Y-104306344D01*
X114190407Y-104235607D01*
X114258302Y-104219136D01*
X114324329Y-104241988D01*
X114356718Y-104275957D01*
X114400464Y-104344027D01*
X114400467Y-104344030D01*
X114400468Y-104344032D01*
X114509205Y-104438254D01*
X114542690Y-104453546D01*
X114640079Y-104498023D01*
X114640082Y-104498023D01*
X114640083Y-104498024D01*
X114782499Y-104518500D01*
X114782502Y-104518500D01*
X116208000Y-104518500D01*
X116275039Y-104538185D01*
X116320794Y-104590989D01*
X116332000Y-104642500D01*
X116332000Y-107699000D01*
X116312315Y-107766039D01*
X116259511Y-107811794D01*
X116208000Y-107823000D01*
X106296000Y-107823000D01*
X106228961Y-107803315D01*
X106183206Y-107750511D01*
X106172000Y-107699000D01*
X106172000Y-95123000D01*
X103000085Y-95123000D01*
X102933046Y-95103315D01*
X102924598Y-95097375D01*
X102840803Y-95033075D01*
X102613700Y-94901958D01*
X102613690Y-94901953D01*
X102371428Y-94801605D01*
X102371421Y-94801603D01*
X102371419Y-94801602D01*
X102118116Y-94733730D01*
X102060339Y-94726123D01*
X101858127Y-94699500D01*
X101858120Y-94699500D01*
X101595880Y-94699500D01*
X101595872Y-94699500D01*
X101364772Y-94729926D01*
X101335884Y-94733730D01*
X101082581Y-94801602D01*
X101082571Y-94801605D01*
X100840309Y-94901953D01*
X100840299Y-94901958D01*
X100613196Y-95033075D01*
X100529402Y-95097375D01*
X100464233Y-95122570D01*
X100453915Y-95123000D01*
X96012000Y-95123000D01*
X96012000Y-100079000D01*
X95992315Y-100146039D01*
X95939511Y-100191794D01*
X95888000Y-100203000D01*
X87746500Y-100203000D01*
X87679461Y-100183315D01*
X87633706Y-100130511D01*
X87622500Y-100079000D01*
X87622500Y-91437000D01*
X87642185Y-91369961D01*
X87694989Y-91324206D01*
X87746500Y-91313000D01*
X89817175Y-91313000D01*
X89884214Y-91332685D01*
G37*
%TD.AperFunction*%
%TD*%
%TA.AperFunction,Conductor*%
%TO.N,GND*%
G36*
X206204539Y-71521185D02*
G01*
X206250294Y-71573989D01*
X206261500Y-71625500D01*
X206261500Y-129548500D01*
X206241815Y-129615539D01*
X206189011Y-129661294D01*
X206137500Y-129672500D01*
X108325423Y-129672500D01*
X108258384Y-129652815D01*
X108212629Y-129600011D01*
X108203152Y-129547429D01*
X108201500Y-129547429D01*
X108201500Y-116329010D01*
X108201500Y-116329000D01*
X108189947Y-116221544D01*
X108178741Y-116170033D01*
X108178637Y-116169722D01*
X108144616Y-116067502D01*
X108144613Y-116067496D01*
X108066825Y-115946457D01*
X108066820Y-115946451D01*
X108021076Y-115893659D01*
X108021072Y-115893656D01*
X108021070Y-115893653D01*
X107912336Y-115799433D01*
X107912333Y-115799431D01*
X107912331Y-115799430D01*
X107781465Y-115739664D01*
X107781460Y-115739662D01*
X107781459Y-115739662D01*
X107714420Y-115719977D01*
X107714422Y-115719977D01*
X107714417Y-115719976D01*
X107652354Y-115711053D01*
X107572000Y-115699500D01*
X87746500Y-115699500D01*
X87679461Y-115679815D01*
X87633706Y-115627011D01*
X87622500Y-115575500D01*
X87622500Y-107182500D01*
X87642185Y-107115461D01*
X87694989Y-107069706D01*
X87746500Y-107058500D01*
X100182609Y-107058500D01*
X100249648Y-107078185D01*
X100295403Y-107130989D01*
X100305347Y-107200147D01*
X100293094Y-107238795D01*
X100243761Y-107335616D01*
X100165910Y-107575214D01*
X100129286Y-107806450D01*
X100126500Y-107824038D01*
X100126500Y-108075962D01*
X100157488Y-108271613D01*
X100165910Y-108324785D01*
X100243760Y-108564383D01*
X100358132Y-108788848D01*
X100506201Y-108992649D01*
X100506205Y-108992654D01*
X100684345Y-109170794D01*
X100684350Y-109170798D01*
X100862117Y-109299952D01*
X100888155Y-109318870D01*
X100993420Y-109372505D01*
X101112616Y-109433239D01*
X101112618Y-109433239D01*
X101112621Y-109433241D01*
X101352215Y-109511090D01*
X101601038Y-109550500D01*
X101601039Y-109550500D01*
X101852961Y-109550500D01*
X101852962Y-109550500D01*
X102101785Y-109511090D01*
X102341379Y-109433241D01*
X102565845Y-109318870D01*
X102769656Y-109170793D01*
X102947793Y-108992656D01*
X103095870Y-108788845D01*
X103210241Y-108564379D01*
X103288090Y-108324785D01*
X103327500Y-108075962D01*
X103327500Y-107824038D01*
X103288090Y-107575215D01*
X103210241Y-107335621D01*
X103178509Y-107273343D01*
X103160906Y-107238795D01*
X103148010Y-107170125D01*
X103174286Y-107105385D01*
X103231393Y-107065128D01*
X103271391Y-107058500D01*
X105542500Y-107058500D01*
X105609539Y-107078185D01*
X105655294Y-107130989D01*
X105666500Y-107182500D01*
X105666500Y-107699000D01*
X105666501Y-107699009D01*
X105678052Y-107806450D01*
X105678054Y-107806462D01*
X105689260Y-107857972D01*
X105723383Y-107960497D01*
X105723386Y-107960503D01*
X105801171Y-108081537D01*
X105801179Y-108081548D01*
X105846923Y-108134340D01*
X105846926Y-108134343D01*
X105846930Y-108134347D01*
X105955664Y-108228567D01*
X105955667Y-108228568D01*
X105955668Y-108228569D01*
X106049925Y-108271616D01*
X106086541Y-108288338D01*
X106153580Y-108308023D01*
X106153584Y-108308024D01*
X106296000Y-108328500D01*
X106296003Y-108328500D01*
X116207990Y-108328500D01*
X116208000Y-108328500D01*
X116315456Y-108316947D01*
X116366967Y-108305741D01*
X116401197Y-108294347D01*
X116469497Y-108271616D01*
X116469501Y-108271613D01*
X116469504Y-108271613D01*
X116590543Y-108193825D01*
X116643347Y-108148070D01*
X116737567Y-108039336D01*
X116797338Y-107908459D01*
X116817023Y-107841420D01*
X116817024Y-107841416D01*
X116837500Y-107699000D01*
X116837500Y-106657500D01*
X116857185Y-106590461D01*
X116909989Y-106544706D01*
X116961500Y-106533500D01*
X121439733Y-106533500D01*
X121506772Y-106553185D01*
X121552527Y-106605989D01*
X121562471Y-106675147D01*
X121533446Y-106738703D01*
X121512618Y-106757818D01*
X121463539Y-106793475D01*
X121463540Y-106793476D01*
X121359352Y-106869173D01*
X116348174Y-111880351D01*
X116348174Y-111880352D01*
X116348172Y-111880354D01*
X116314776Y-111926319D01*
X116232476Y-112039594D01*
X116143117Y-112214971D01*
X116092736Y-112370027D01*
X116082290Y-112402173D01*
X116051500Y-112596577D01*
X116051500Y-118764880D01*
X116031815Y-118831919D01*
X116002989Y-118863253D01*
X115979297Y-118881433D01*
X115979282Y-118881446D01*
X115786444Y-119074283D01*
X115786439Y-119074289D01*
X115620415Y-119290656D01*
X115484054Y-119526840D01*
X115484047Y-119526855D01*
X115379684Y-119778811D01*
X115309097Y-120042245D01*
X115273501Y-120312627D01*
X115273500Y-120312643D01*
X115273500Y-121525356D01*
X115273501Y-121525372D01*
X115309097Y-121795754D01*
X115379684Y-122059188D01*
X115484047Y-122311144D01*
X115484054Y-122311159D01*
X115620415Y-122547343D01*
X115786439Y-122763710D01*
X115786445Y-122763717D01*
X115979282Y-122956554D01*
X115979289Y-122956560D01*
X116195656Y-123122584D01*
X116431840Y-123258945D01*
X116431855Y-123258952D01*
X116559225Y-123311710D01*
X116683810Y-123363315D01*
X116947244Y-123433902D01*
X117217637Y-123469500D01*
X117217644Y-123469500D01*
X117490356Y-123469500D01*
X117490363Y-123469500D01*
X117760756Y-123433902D01*
X118024190Y-123363315D01*
X118276156Y-123258947D01*
X118512344Y-123122584D01*
X118728712Y-122956559D01*
X118921559Y-122763712D01*
X119087584Y-122547344D01*
X119223947Y-122311156D01*
X119223946Y-122311156D01*
X119225977Y-122307640D01*
X119227420Y-122308473D01*
X119270083Y-122262093D01*
X119337676Y-122244405D01*
X119404103Y-122266068D01*
X119440758Y-122308370D01*
X119442023Y-122307640D01*
X119580415Y-122547343D01*
X119746439Y-122763710D01*
X119746445Y-122763717D01*
X119939282Y-122956554D01*
X119939289Y-122956560D01*
X120155656Y-123122584D01*
X120391840Y-123258945D01*
X120391855Y-123258952D01*
X120519225Y-123311710D01*
X120643810Y-123363315D01*
X120907244Y-123433902D01*
X121177637Y-123469500D01*
X121177644Y-123469500D01*
X121450356Y-123469500D01*
X121450363Y-123469500D01*
X121720756Y-123433902D01*
X121984190Y-123363315D01*
X122236156Y-123258947D01*
X122472344Y-123122584D01*
X122688712Y-122956559D01*
X122881559Y-122763712D01*
X123047584Y-122547344D01*
X123183947Y-122311156D01*
X123288315Y-122059190D01*
X123358902Y-121795756D01*
X123394500Y-121525363D01*
X123394500Y-120312637D01*
X123358902Y-120042244D01*
X123288315Y-119778810D01*
X123217415Y-119607642D01*
X123183952Y-119526855D01*
X123183945Y-119526840D01*
X123047584Y-119290656D01*
X122881560Y-119074289D01*
X122881554Y-119074282D01*
X122688719Y-118881447D01*
X122688714Y-118881443D01*
X122688712Y-118881441D01*
X122624174Y-118831919D01*
X122561012Y-118783452D01*
X122519810Y-118727024D01*
X122512500Y-118685077D01*
X122512500Y-115146336D01*
X122532185Y-115079297D01*
X122548819Y-115058655D01*
X124941655Y-112665819D01*
X125002978Y-112632334D01*
X125029336Y-112629500D01*
X128958253Y-112629500D01*
X129025292Y-112649185D01*
X129071047Y-112701989D01*
X129080991Y-112771147D01*
X129051966Y-112834703D01*
X129018743Y-112861744D01*
X128884056Y-112937011D01*
X127070919Y-113950233D01*
X126971242Y-114023231D01*
X126971232Y-114023239D01*
X126927421Y-114064431D01*
X126848434Y-114159416D01*
X126788663Y-114290291D01*
X126777986Y-114326654D01*
X126768977Y-114357334D01*
X126768976Y-114357338D01*
X126748500Y-114499754D01*
X126748500Y-119783700D01*
X126750287Y-119810960D01*
X126752824Y-119849682D01*
X126757048Y-119881766D01*
X126769948Y-119946622D01*
X126819949Y-120133228D01*
X126823112Y-120149135D01*
X126847938Y-120337703D01*
X126847939Y-120337706D01*
X126849000Y-120353891D01*
X126849000Y-121484105D01*
X126847939Y-121500291D01*
X126823111Y-121688868D01*
X126819947Y-121704775D01*
X126769952Y-121891362D01*
X126769950Y-121891369D01*
X126757050Y-121956220D01*
X126757049Y-121956226D01*
X126752824Y-121988315D01*
X126752824Y-121988319D01*
X126748500Y-122054298D01*
X126748500Y-124971000D01*
X126748501Y-124971009D01*
X126760052Y-125078450D01*
X126760054Y-125078462D01*
X126771260Y-125129972D01*
X126805383Y-125232497D01*
X126805386Y-125232503D01*
X126883171Y-125353537D01*
X126883179Y-125353548D01*
X126928923Y-125406340D01*
X126928926Y-125406343D01*
X126928930Y-125406347D01*
X127037664Y-125500567D01*
X127037667Y-125500568D01*
X127037668Y-125500569D01*
X127131925Y-125543616D01*
X127168541Y-125560338D01*
X127235580Y-125580023D01*
X127235584Y-125580024D01*
X127378000Y-125600500D01*
X127378003Y-125600500D01*
X145417990Y-125600500D01*
X145418000Y-125600500D01*
X145525456Y-125588947D01*
X145576967Y-125577741D01*
X145611197Y-125566347D01*
X145679497Y-125543616D01*
X145679501Y-125543613D01*
X145679504Y-125543613D01*
X145800543Y-125465825D01*
X145853347Y-125420070D01*
X145947567Y-125311336D01*
X146007338Y-125180459D01*
X146027023Y-125113420D01*
X146027024Y-125113416D01*
X146047500Y-124971000D01*
X146047500Y-122125656D01*
X146037787Y-122027036D01*
X146028348Y-121979584D01*
X146014683Y-121934542D01*
X146013583Y-121930687D01*
X146012958Y-121928355D01*
X146012959Y-121928355D01*
X145953047Y-121704762D01*
X145949886Y-121688868D01*
X145925061Y-121500294D01*
X145924000Y-121484110D01*
X145924000Y-120353888D01*
X145925061Y-120337703D01*
X145928362Y-120312627D01*
X145949887Y-120149127D01*
X145953046Y-120133242D01*
X146012963Y-119909634D01*
X146012962Y-119909633D01*
X146013600Y-119907254D01*
X146014701Y-119903396D01*
X146028348Y-119858413D01*
X146037787Y-119810960D01*
X146047500Y-119712342D01*
X146047500Y-115674500D01*
X146067185Y-115607461D01*
X146119989Y-115561706D01*
X146171500Y-115550500D01*
X151875663Y-115550500D01*
X151942702Y-115570185D01*
X151988457Y-115622989D01*
X151998401Y-115692147D01*
X151969376Y-115755703D01*
X151963344Y-115762181D01*
X150438174Y-117287351D01*
X150438172Y-117287354D01*
X150400526Y-117339169D01*
X150322476Y-117446594D01*
X150233117Y-117621971D01*
X150198836Y-117727477D01*
X150198836Y-117727478D01*
X150172290Y-117809173D01*
X150141500Y-118003577D01*
X150141500Y-118776391D01*
X150121815Y-118843430D01*
X150092990Y-118874763D01*
X150086567Y-118879691D01*
X150084285Y-118881443D01*
X150084282Y-118881446D01*
X149891444Y-119074283D01*
X149891439Y-119074289D01*
X149725415Y-119290656D01*
X149589054Y-119526840D01*
X149589047Y-119526855D01*
X149484684Y-119778811D01*
X149414097Y-120042245D01*
X149378501Y-120312627D01*
X149378500Y-120312643D01*
X149378500Y-121525356D01*
X149378501Y-121525372D01*
X149414097Y-121795754D01*
X149484684Y-122059188D01*
X149589047Y-122311144D01*
X149589054Y-122311159D01*
X149725415Y-122547343D01*
X149891439Y-122763710D01*
X149891445Y-122763717D01*
X150084282Y-122956554D01*
X150084289Y-122956560D01*
X150300656Y-123122584D01*
X150536840Y-123258945D01*
X150536855Y-123258952D01*
X150664225Y-123311710D01*
X150788810Y-123363315D01*
X151052244Y-123433902D01*
X151322637Y-123469500D01*
X151322644Y-123469500D01*
X151595356Y-123469500D01*
X151595363Y-123469500D01*
X151865756Y-123433902D01*
X152129190Y-123363315D01*
X152381156Y-123258947D01*
X152617344Y-123122584D01*
X152833712Y-122956559D01*
X153026559Y-122763712D01*
X153116126Y-122646985D01*
X153172551Y-122605784D01*
X153242297Y-122601629D01*
X153303218Y-122635841D01*
X153335971Y-122697557D01*
X153338500Y-122722471D01*
X153338500Y-122768999D01*
X153338501Y-122769019D01*
X153349000Y-122871796D01*
X153349001Y-122871799D01*
X153382371Y-122972501D01*
X153404186Y-123038334D01*
X153496288Y-123187656D01*
X153620344Y-123311712D01*
X153769666Y-123403814D01*
X153936203Y-123458999D01*
X154038991Y-123469500D01*
X156799008Y-123469499D01*
X156901797Y-123458999D01*
X157068334Y-123403814D01*
X157217656Y-123311712D01*
X157341712Y-123187656D01*
X157433814Y-123038334D01*
X157488999Y-122871797D01*
X157499500Y-122769009D01*
X157499499Y-119068992D01*
X157488999Y-118966203D01*
X157433814Y-118799666D01*
X157341712Y-118650344D01*
X157217656Y-118526288D01*
X157124888Y-118469069D01*
X157068336Y-118434187D01*
X157068331Y-118434185D01*
X157066862Y-118433698D01*
X156901797Y-118379001D01*
X156901795Y-118379000D01*
X156799016Y-118368500D01*
X156799009Y-118368500D01*
X156726500Y-118368500D01*
X156659461Y-118348815D01*
X156613706Y-118296011D01*
X156602500Y-118244500D01*
X156602500Y-117886336D01*
X156622185Y-117819297D01*
X156638819Y-117798655D01*
X159866655Y-114570819D01*
X159927978Y-114537334D01*
X159954336Y-114534500D01*
X161921689Y-114534500D01*
X161988728Y-114554185D01*
X162034483Y-114606989D01*
X162044427Y-114676147D01*
X162015402Y-114739703D01*
X162009370Y-114746181D01*
X161974205Y-114781345D01*
X161974201Y-114781350D01*
X161826132Y-114985151D01*
X161711760Y-115209616D01*
X161633910Y-115449214D01*
X161594500Y-115698038D01*
X161594500Y-115949961D01*
X161633910Y-116198785D01*
X161711760Y-116438383D01*
X161826132Y-116662848D01*
X161974201Y-116866649D01*
X161974205Y-116866654D01*
X162113870Y-117006319D01*
X162147355Y-117067642D01*
X162142371Y-117137334D01*
X162113870Y-117181681D01*
X161974205Y-117321345D01*
X161974201Y-117321350D01*
X161826132Y-117525151D01*
X161711760Y-117749616D01*
X161684026Y-117834974D01*
X161633910Y-117989215D01*
X161594500Y-118238038D01*
X161594500Y-118489962D01*
X161612609Y-118604296D01*
X161633910Y-118738785D01*
X161711760Y-118978383D01*
X161766162Y-119085151D01*
X161820100Y-119191011D01*
X161826132Y-119202848D01*
X161974201Y-119406649D01*
X161974205Y-119406654D01*
X162113870Y-119546319D01*
X162147355Y-119607642D01*
X162142371Y-119677334D01*
X162113870Y-119721681D01*
X161974205Y-119861345D01*
X161974201Y-119861350D01*
X161826132Y-120065151D01*
X161711760Y-120289616D01*
X161633910Y-120529214D01*
X161594500Y-120778038D01*
X161594500Y-121029961D01*
X161633910Y-121278785D01*
X161711760Y-121518383D01*
X161790413Y-121672747D01*
X161806732Y-121704775D01*
X161826132Y-121742848D01*
X161974201Y-121946649D01*
X161974205Y-121946654D01*
X162113870Y-122086319D01*
X162147355Y-122147642D01*
X162142371Y-122217334D01*
X162113870Y-122261681D01*
X161974205Y-122401345D01*
X161974201Y-122401350D01*
X161826132Y-122605151D01*
X161711760Y-122829616D01*
X161633910Y-123069214D01*
X161594500Y-123318038D01*
X161594500Y-123569961D01*
X161633910Y-123818785D01*
X161711760Y-124058383D01*
X161826132Y-124282848D01*
X161974201Y-124486649D01*
X161974205Y-124486654D01*
X162152345Y-124664794D01*
X162152350Y-124664798D01*
X162259684Y-124742780D01*
X162356155Y-124812870D01*
X162499184Y-124885747D01*
X162580616Y-124927239D01*
X162580618Y-124927239D01*
X162580621Y-124927241D01*
X162820215Y-125005090D01*
X163069038Y-125044500D01*
X163069039Y-125044500D01*
X163320961Y-125044500D01*
X163320962Y-125044500D01*
X163569785Y-125005090D01*
X163809379Y-124927241D01*
X164033845Y-124812870D01*
X164237656Y-124664793D01*
X164415793Y-124486656D01*
X164563870Y-124282845D01*
X164678241Y-124058379D01*
X164756090Y-123818785D01*
X164795500Y-123569962D01*
X164795500Y-123318038D01*
X164756090Y-123069215D01*
X164678241Y-122829621D01*
X164678239Y-122829618D01*
X164678239Y-122829616D01*
X164610951Y-122697557D01*
X164563870Y-122605155D01*
X164521867Y-122547343D01*
X164415798Y-122401350D01*
X164415794Y-122401345D01*
X164276130Y-122261681D01*
X164242645Y-122200358D01*
X164247629Y-122130666D01*
X164276130Y-122086319D01*
X164335413Y-122027036D01*
X164415793Y-121946656D01*
X164563870Y-121742845D01*
X164678241Y-121518379D01*
X164756090Y-121278785D01*
X164795500Y-121029962D01*
X164795500Y-120778038D01*
X164756090Y-120529215D01*
X164678241Y-120289621D01*
X164678239Y-120289618D01*
X164678239Y-120289616D01*
X164606660Y-120149136D01*
X164563870Y-120065155D01*
X164450878Y-119909634D01*
X164415798Y-119861350D01*
X164415794Y-119861345D01*
X164276130Y-119721681D01*
X164242645Y-119660358D01*
X164247629Y-119590666D01*
X164276130Y-119546319D01*
X164295609Y-119526840D01*
X164415793Y-119406656D01*
X164563870Y-119202845D01*
X164678241Y-118978379D01*
X164756090Y-118738785D01*
X164795500Y-118489962D01*
X164795500Y-118238038D01*
X164756090Y-117989215D01*
X164678241Y-117749621D01*
X164678239Y-117749618D01*
X164678239Y-117749616D01*
X164636747Y-117668184D01*
X164563870Y-117525155D01*
X164506792Y-117446594D01*
X164415798Y-117321350D01*
X164415794Y-117321345D01*
X164276130Y-117181681D01*
X164242645Y-117120358D01*
X164247629Y-117050666D01*
X164276130Y-117006319D01*
X164415793Y-116866656D01*
X164563870Y-116662845D01*
X164678241Y-116438379D01*
X164756090Y-116198785D01*
X164795500Y-115949962D01*
X164795500Y-115698038D01*
X164756090Y-115449215D01*
X164678241Y-115209621D01*
X164678239Y-115209618D01*
X164678239Y-115209616D01*
X164633524Y-115121859D01*
X164563870Y-114985155D01*
X164544952Y-114959117D01*
X164415798Y-114781350D01*
X164415794Y-114781345D01*
X164276130Y-114641681D01*
X164242645Y-114580358D01*
X164247629Y-114510666D01*
X164276130Y-114466319D01*
X164415793Y-114326656D01*
X164563870Y-114122845D01*
X164678241Y-113898379D01*
X164756090Y-113658785D01*
X164795500Y-113409962D01*
X164795500Y-113158038D01*
X164756090Y-112909215D01*
X164678241Y-112669621D01*
X164678239Y-112669618D01*
X164678239Y-112669616D01*
X164612533Y-112540662D01*
X164563870Y-112445155D01*
X164524774Y-112391344D01*
X164415798Y-112241350D01*
X164415794Y-112241345D01*
X164276130Y-112101681D01*
X164242645Y-112040358D01*
X164247629Y-111970666D01*
X164276130Y-111926319D01*
X164322098Y-111880351D01*
X164415793Y-111786656D01*
X164563870Y-111582845D01*
X164678241Y-111358379D01*
X164756090Y-111118785D01*
X164795500Y-110869962D01*
X164795500Y-110618038D01*
X164756090Y-110369215D01*
X164678241Y-110129621D01*
X164678239Y-110129618D01*
X164678239Y-110129616D01*
X164636747Y-110048184D01*
X164563870Y-109905155D01*
X164544952Y-109879117D01*
X164415798Y-109701350D01*
X164415794Y-109701345D01*
X164276130Y-109561681D01*
X164242645Y-109500358D01*
X164247629Y-109430666D01*
X164276130Y-109386319D01*
X164343582Y-109318867D01*
X164415793Y-109246656D01*
X164563870Y-109042845D01*
X164678241Y-108818379D01*
X164756090Y-108578785D01*
X164795500Y-108329962D01*
X164795500Y-108078038D01*
X164756090Y-107829215D01*
X164678241Y-107589621D01*
X164678239Y-107589618D01*
X164678239Y-107589616D01*
X164626572Y-107488215D01*
X164563870Y-107365155D01*
X164542409Y-107335616D01*
X164415798Y-107161350D01*
X164415794Y-107161345D01*
X164276130Y-107021681D01*
X164242645Y-106960358D01*
X164247629Y-106890666D01*
X164276130Y-106846319D01*
X164328974Y-106793475D01*
X164415793Y-106706656D01*
X164563870Y-106502845D01*
X164678241Y-106278379D01*
X164756090Y-106038785D01*
X164795500Y-105789962D01*
X164795500Y-105538038D01*
X164756090Y-105289215D01*
X164678241Y-105049621D01*
X164678239Y-105049618D01*
X164678239Y-105049616D01*
X164636747Y-104968184D01*
X164563870Y-104825155D01*
X164518240Y-104762351D01*
X164415798Y-104621350D01*
X164415794Y-104621345D01*
X164276130Y-104481681D01*
X164242645Y-104420358D01*
X164247629Y-104350666D01*
X164276130Y-104306319D01*
X164319307Y-104263142D01*
X164415793Y-104166656D01*
X164563870Y-103962845D01*
X164678241Y-103738379D01*
X164756090Y-103498785D01*
X164795500Y-103249962D01*
X164795500Y-102998038D01*
X164756090Y-102749215D01*
X164678241Y-102509621D01*
X164678239Y-102509618D01*
X164678239Y-102509616D01*
X164636747Y-102428184D01*
X164563870Y-102285155D01*
X164544952Y-102259117D01*
X164415798Y-102081350D01*
X164415794Y-102081345D01*
X164276130Y-101941681D01*
X164242645Y-101880358D01*
X164247629Y-101810666D01*
X164276130Y-101766319D01*
X164338275Y-101704174D01*
X164415793Y-101626656D01*
X164563870Y-101422845D01*
X164678241Y-101198379D01*
X164756090Y-100958785D01*
X164795500Y-100709962D01*
X164795500Y-100458038D01*
X164756090Y-100209215D01*
X164678241Y-99969621D01*
X164678239Y-99969618D01*
X164678239Y-99969616D01*
X164636747Y-99888184D01*
X164563870Y-99745155D01*
X164544952Y-99719117D01*
X164415798Y-99541350D01*
X164415794Y-99541345D01*
X164276130Y-99401681D01*
X164242645Y-99340358D01*
X164247629Y-99270666D01*
X164276130Y-99226319D01*
X164415793Y-99086656D01*
X164563870Y-98882845D01*
X164678241Y-98658379D01*
X164756090Y-98418785D01*
X164795500Y-98169962D01*
X164795500Y-97918038D01*
X164756090Y-97669215D01*
X164678241Y-97429621D01*
X164678239Y-97429618D01*
X164678239Y-97429616D01*
X164636747Y-97348184D01*
X164563870Y-97205155D01*
X164544952Y-97179117D01*
X164415798Y-97001350D01*
X164415794Y-97001345D01*
X164276130Y-96861681D01*
X164242645Y-96800358D01*
X164247629Y-96730666D01*
X164276130Y-96686319D01*
X164415793Y-96546656D01*
X164563870Y-96342845D01*
X164678241Y-96118379D01*
X164756090Y-95878785D01*
X164795500Y-95629962D01*
X164795500Y-95378038D01*
X164756090Y-95129215D01*
X164678241Y-94889621D01*
X164678239Y-94889618D01*
X164678239Y-94889616D01*
X164636747Y-94808184D01*
X164563870Y-94665155D01*
X164530148Y-94618741D01*
X164415798Y-94461350D01*
X164415794Y-94461345D01*
X164276130Y-94321681D01*
X164242645Y-94260358D01*
X164247629Y-94190666D01*
X164276130Y-94146319D01*
X164415793Y-94006656D01*
X164563870Y-93802845D01*
X164678241Y-93578379D01*
X164756090Y-93338785D01*
X164795500Y-93089962D01*
X164795500Y-92838038D01*
X164756090Y-92589215D01*
X164678241Y-92349621D01*
X164678239Y-92349618D01*
X164678239Y-92349616D01*
X164636747Y-92268184D01*
X164563870Y-92125155D01*
X164514945Y-92057815D01*
X164415798Y-91921350D01*
X164415794Y-91921345D01*
X164237654Y-91743205D01*
X164237649Y-91743201D01*
X164033848Y-91595132D01*
X164033847Y-91595131D01*
X164033845Y-91595130D01*
X163963747Y-91559413D01*
X163809383Y-91480760D01*
X163569785Y-91402910D01*
X163320962Y-91363500D01*
X163069038Y-91363500D01*
X162944626Y-91383205D01*
X162820214Y-91402910D01*
X162580616Y-91480760D01*
X162356151Y-91595132D01*
X162152350Y-91743201D01*
X162152345Y-91743205D01*
X161974205Y-91921345D01*
X161974201Y-91921350D01*
X161826132Y-92125151D01*
X161711760Y-92349616D01*
X161633910Y-92589214D01*
X161594500Y-92838038D01*
X161594500Y-93089961D01*
X161633910Y-93338785D01*
X161711760Y-93578383D01*
X161826132Y-93802848D01*
X161974201Y-94006649D01*
X161974205Y-94006654D01*
X162113870Y-94146319D01*
X162147355Y-94207642D01*
X162142371Y-94277334D01*
X162113870Y-94321681D01*
X161974205Y-94461345D01*
X161974201Y-94461350D01*
X161826132Y-94665151D01*
X161711760Y-94889616D01*
X161633910Y-95129214D01*
X161594500Y-95378038D01*
X161594500Y-95629961D01*
X161633910Y-95878785D01*
X161711760Y-96118383D01*
X161826132Y-96342848D01*
X161974201Y-96546649D01*
X161974205Y-96546654D01*
X162113870Y-96686319D01*
X162147355Y-96747642D01*
X162142371Y-96817334D01*
X162113870Y-96861681D01*
X161974205Y-97001345D01*
X161974201Y-97001350D01*
X161826132Y-97205151D01*
X161711760Y-97429616D01*
X161633910Y-97669214D01*
X161594500Y-97918038D01*
X161594500Y-98169961D01*
X161633910Y-98418785D01*
X161711760Y-98658383D01*
X161826132Y-98882848D01*
X161974201Y-99086649D01*
X161974205Y-99086654D01*
X162113870Y-99226319D01*
X162147355Y-99287642D01*
X162142371Y-99357334D01*
X162113870Y-99401681D01*
X161974205Y-99541345D01*
X161974201Y-99541350D01*
X161826132Y-99745151D01*
X161711760Y-99969616D01*
X161633910Y-100209214D01*
X161594500Y-100458038D01*
X161594500Y-100709961D01*
X161633910Y-100958785D01*
X161711760Y-101198383D01*
X161826132Y-101422848D01*
X161974201Y-101626649D01*
X161974205Y-101626654D01*
X162113870Y-101766319D01*
X162147355Y-101827642D01*
X162142371Y-101897334D01*
X162113870Y-101941681D01*
X161974205Y-102081345D01*
X161974201Y-102081350D01*
X161826132Y-102285151D01*
X161711760Y-102509616D01*
X161633910Y-102749214D01*
X161594500Y-102998038D01*
X161594500Y-103249961D01*
X161633910Y-103498785D01*
X161711760Y-103738383D01*
X161790413Y-103892747D01*
X161814750Y-103940511D01*
X161826132Y-103962848D01*
X161974201Y-104166649D01*
X161974205Y-104166654D01*
X162009370Y-104201819D01*
X162042855Y-104263142D01*
X162037871Y-104332834D01*
X161995999Y-104388767D01*
X161930535Y-104413184D01*
X161921689Y-104413500D01*
X157127578Y-104413500D01*
X156933173Y-104444290D01*
X156745969Y-104505117D01*
X156570594Y-104594476D01*
X156533613Y-104621345D01*
X156411354Y-104710172D01*
X156411352Y-104710174D01*
X156411351Y-104710174D01*
X150109345Y-111012181D01*
X150048022Y-111045666D01*
X150021664Y-111048500D01*
X148870817Y-111048500D01*
X148803778Y-111028815D01*
X148758023Y-110976011D01*
X148748079Y-110906853D01*
X148764856Y-110860093D01*
X161538071Y-89846093D01*
X161589713Y-89799030D01*
X161644032Y-89786500D01*
X162023191Y-89786500D01*
X162033337Y-89785955D01*
X162077229Y-89783603D01*
X162077237Y-89783602D01*
X162077239Y-89783602D01*
X162077240Y-89783602D01*
X162084233Y-89782849D01*
X162103587Y-89780769D01*
X162103597Y-89780767D01*
X162103600Y-89780767D01*
X162113199Y-89779211D01*
X162156999Y-89772114D01*
X162291808Y-89721832D01*
X162353131Y-89688347D01*
X162353136Y-89688345D01*
X162468317Y-89602119D01*
X162480978Y-89589455D01*
X162488005Y-89584182D01*
X162488379Y-89584041D01*
X162489549Y-89583042D01*
X162575021Y-89520945D01*
X162592591Y-89508180D01*
X162658398Y-89484701D01*
X162665475Y-89484499D01*
X163724522Y-89484499D01*
X163791561Y-89504184D01*
X163797406Y-89508180D01*
X163900447Y-89583042D01*
X163915244Y-89595680D01*
X163921692Y-89602128D01*
X163961949Y-89638288D01*
X163982591Y-89654922D01*
X163982596Y-89654926D01*
X164008300Y-89673461D01*
X164026475Y-89686567D01*
X164157352Y-89746338D01*
X164224391Y-89766023D01*
X164224395Y-89766024D01*
X164366811Y-89786500D01*
X164366814Y-89786500D01*
X165991990Y-89786500D01*
X165992000Y-89786500D01*
X166099456Y-89774947D01*
X166150967Y-89763741D01*
X166185197Y-89752347D01*
X166253497Y-89729616D01*
X166253501Y-89729613D01*
X166253504Y-89729613D01*
X166374543Y-89651825D01*
X166427347Y-89606070D01*
X166521567Y-89497336D01*
X166581338Y-89366459D01*
X166601023Y-89299420D01*
X166601024Y-89299416D01*
X166621500Y-89157000D01*
X166621500Y-86484000D01*
X166609947Y-86376544D01*
X166598741Y-86325033D01*
X166598637Y-86324722D01*
X166564616Y-86222502D01*
X166564613Y-86222496D01*
X166524414Y-86159946D01*
X166486825Y-86101457D01*
X166469718Y-86081714D01*
X166441076Y-86048659D01*
X166441072Y-86048656D01*
X166441070Y-86048653D01*
X166332336Y-85954433D01*
X166332333Y-85954431D01*
X166332331Y-85954430D01*
X166201465Y-85894664D01*
X166201460Y-85894662D01*
X166201459Y-85894662D01*
X166134420Y-85874977D01*
X166134422Y-85874977D01*
X166134417Y-85874976D01*
X166086944Y-85868150D01*
X165992000Y-85854500D01*
X157543528Y-85854500D01*
X157543511Y-85854500D01*
X157449124Y-85863393D01*
X157449120Y-85863394D01*
X157403622Y-85872043D01*
X157312547Y-85898407D01*
X157187578Y-85969711D01*
X157132441Y-86012618D01*
X157132432Y-86012626D01*
X157132428Y-86012629D01*
X157032616Y-86116250D01*
X157032609Y-86116259D01*
X140849387Y-108599820D01*
X140794247Y-108642731D01*
X140724661Y-108649019D01*
X140662721Y-108616688D01*
X140628094Y-108556003D01*
X140631773Y-108486230D01*
X140634184Y-108479931D01*
X140635238Y-108477385D01*
X140635239Y-108477383D01*
X140635241Y-108477379D01*
X140713090Y-108237785D01*
X140752500Y-107988962D01*
X140752500Y-107737038D01*
X140713090Y-107488215D01*
X140635241Y-107248621D01*
X140635239Y-107248618D01*
X140635239Y-107248616D01*
X140590771Y-107161344D01*
X140520870Y-107024155D01*
X140474519Y-106960358D01*
X140426182Y-106893827D01*
X140402702Y-106828021D01*
X140402500Y-106820942D01*
X140402500Y-105478577D01*
X140372507Y-105289214D01*
X140371709Y-105284174D01*
X140371708Y-105284170D01*
X140371708Y-105284169D01*
X140312391Y-105101612D01*
X140311329Y-105097847D01*
X140274832Y-105026218D01*
X140221524Y-104921595D01*
X140105829Y-104762354D01*
X139672646Y-104329172D01*
X139513405Y-104213476D01*
X139490527Y-104201819D01*
X139338030Y-104124117D01*
X139150826Y-104063290D01*
X138956422Y-104032500D01*
X138956417Y-104032500D01*
X116352497Y-104032500D01*
X116334851Y-104031238D01*
X116208000Y-104013000D01*
X117094000Y-104013000D01*
X117094000Y-101654110D01*
X117109925Y-101672489D01*
X117114787Y-101684846D01*
X117115711Y-101687623D01*
X117121885Y-101704174D01*
X117135691Y-101737505D01*
X117213474Y-101858537D01*
X117213483Y-101858548D01*
X117259227Y-101911340D01*
X117259230Y-101911343D01*
X117259234Y-101911347D01*
X117367968Y-102005567D01*
X117367971Y-102005568D01*
X117367972Y-102005569D01*
X117461489Y-102048278D01*
X117498845Y-102065338D01*
X117565884Y-102085023D01*
X117565888Y-102085024D01*
X117708304Y-102105500D01*
X117708307Y-102105500D01*
X143569180Y-102105500D01*
X143569187Y-102105500D01*
X143676958Y-102093878D01*
X143728614Y-102082606D01*
X143831424Y-102048278D01*
X143952364Y-101970335D01*
X144005110Y-101924512D01*
X144005112Y-101924510D01*
X144099194Y-101815652D01*
X155261926Y-84396883D01*
X155433857Y-84128595D01*
X155486603Y-84082772D01*
X155538259Y-84071500D01*
X180980500Y-84071500D01*
X181047539Y-84091185D01*
X181093294Y-84143989D01*
X181104500Y-84195500D01*
X181104500Y-88903000D01*
X181104501Y-88903009D01*
X181116052Y-89010450D01*
X181116054Y-89010462D01*
X181127260Y-89061972D01*
X181161383Y-89164497D01*
X181161386Y-89164503D01*
X181239171Y-89285537D01*
X181239179Y-89285548D01*
X181284923Y-89338340D01*
X181284926Y-89338343D01*
X181284930Y-89338347D01*
X181393664Y-89432567D01*
X181393667Y-89432568D01*
X181393668Y-89432569D01*
X181513890Y-89487474D01*
X181524541Y-89492338D01*
X181591580Y-89512023D01*
X181591584Y-89512024D01*
X181734000Y-89532500D01*
X181734003Y-89532500D01*
X185241596Y-89532500D01*
X185241597Y-89532499D01*
X185359598Y-89518533D01*
X185415893Y-89505018D01*
X185527384Y-89463887D01*
X185563654Y-89445405D01*
X185632318Y-89432507D01*
X185658261Y-89437956D01*
X185680215Y-89445090D01*
X185929038Y-89484500D01*
X185929039Y-89484500D01*
X186180961Y-89484500D01*
X186180962Y-89484500D01*
X186429785Y-89445090D01*
X186451731Y-89437958D01*
X186521570Y-89435963D01*
X186546344Y-89445406D01*
X186582611Y-89463885D01*
X186582617Y-89463888D01*
X186694107Y-89505018D01*
X186750402Y-89518533D01*
X186868401Y-89532499D01*
X186868404Y-89532500D01*
X186868407Y-89532500D01*
X191772990Y-89532500D01*
X191773000Y-89532500D01*
X191880456Y-89520947D01*
X191931967Y-89509741D01*
X191969253Y-89497331D01*
X192034497Y-89475616D01*
X192034501Y-89475613D01*
X192034504Y-89475613D01*
X192155543Y-89397825D01*
X192208347Y-89352070D01*
X192302567Y-89243336D01*
X192362338Y-89112459D01*
X192382023Y-89045420D01*
X192382024Y-89045416D01*
X192402500Y-88903000D01*
X192402500Y-80134000D01*
X192390947Y-80026544D01*
X192379741Y-79975033D01*
X192379637Y-79974722D01*
X192345616Y-79872502D01*
X192345613Y-79872496D01*
X192267828Y-79751462D01*
X192267825Y-79751457D01*
X192267820Y-79751451D01*
X192222076Y-79698659D01*
X192222072Y-79698656D01*
X192222070Y-79698653D01*
X192113336Y-79604433D01*
X192113333Y-79604431D01*
X192113331Y-79604430D01*
X191982465Y-79544664D01*
X191982460Y-79544662D01*
X191982459Y-79544662D01*
X191915420Y-79524977D01*
X191915422Y-79524977D01*
X191915417Y-79524976D01*
X191859454Y-79516930D01*
X191773000Y-79504500D01*
X153104010Y-79504500D01*
X152992597Y-79516930D01*
X152992574Y-79516934D01*
X152939272Y-79528979D01*
X152833329Y-79565667D01*
X152713561Y-79645386D01*
X152713557Y-79645390D01*
X152661491Y-79691992D01*
X152569029Y-79802235D01*
X143609881Y-94248864D01*
X143557820Y-94295463D01*
X143488830Y-94306518D01*
X143424816Y-94278519D01*
X143386100Y-94220357D01*
X143380500Y-94183512D01*
X143380500Y-85894908D01*
X143380499Y-85894904D01*
X143380471Y-85894664D01*
X143366533Y-85776906D01*
X143353018Y-85720611D01*
X143311888Y-85609122D01*
X143253404Y-85494343D01*
X143240509Y-85425675D01*
X143245959Y-85399731D01*
X143253090Y-85377785D01*
X143292500Y-85128962D01*
X143292500Y-84877038D01*
X143253090Y-84628215D01*
X143245957Y-84606265D01*
X143243963Y-84536425D01*
X143253401Y-84511659D01*
X143311887Y-84396879D01*
X143353018Y-84285389D01*
X143366533Y-84229094D01*
X143380500Y-84111089D01*
X143380500Y-83855135D01*
X145421500Y-83855135D01*
X145421500Y-86150870D01*
X145421501Y-86150876D01*
X145427908Y-86210483D01*
X145478202Y-86345328D01*
X145478206Y-86345335D01*
X145564452Y-86460544D01*
X145564455Y-86460547D01*
X145679664Y-86546793D01*
X145679671Y-86546797D01*
X145814517Y-86597091D01*
X145814516Y-86597091D01*
X145821444Y-86597835D01*
X145874127Y-86603500D01*
X147669872Y-86603499D01*
X147729483Y-86597091D01*
X147864331Y-86546796D01*
X147979546Y-86460546D01*
X148065796Y-86345331D01*
X148116091Y-86210483D01*
X148122500Y-86150873D01*
X148122499Y-83855128D01*
X148116091Y-83795517D01*
X148111124Y-83782201D01*
X148065797Y-83660671D01*
X148065793Y-83660664D01*
X147979547Y-83545455D01*
X147979544Y-83545452D01*
X147864335Y-83459206D01*
X147864328Y-83459202D01*
X147729482Y-83408908D01*
X147729483Y-83408908D01*
X147669883Y-83402501D01*
X147669881Y-83402500D01*
X147669873Y-83402500D01*
X147669864Y-83402500D01*
X145874129Y-83402500D01*
X145874123Y-83402501D01*
X145814516Y-83408908D01*
X145679671Y-83459202D01*
X145679664Y-83459206D01*
X145564455Y-83545452D01*
X145564452Y-83545455D01*
X145478206Y-83660664D01*
X145478202Y-83660671D01*
X145427908Y-83795517D01*
X145421501Y-83855116D01*
X145421501Y-83855123D01*
X145421500Y-83855135D01*
X143380500Y-83855135D01*
X143380500Y-83817000D01*
X143368947Y-83709544D01*
X143357741Y-83658033D01*
X143349785Y-83634130D01*
X143323616Y-83555502D01*
X143323613Y-83555496D01*
X143245828Y-83434462D01*
X143245825Y-83434457D01*
X143240660Y-83428496D01*
X143200076Y-83381659D01*
X143200072Y-83381656D01*
X143200070Y-83381653D01*
X143091336Y-83287433D01*
X143091334Y-83287432D01*
X143091333Y-83287431D01*
X143014987Y-83252564D01*
X142962184Y-83206808D01*
X142942500Y-83139770D01*
X142942500Y-82284577D01*
X142924586Y-82171483D01*
X142911709Y-82090174D01*
X142911708Y-82090170D01*
X142911708Y-82090169D01*
X142852391Y-81907612D01*
X142851329Y-81903847D01*
X142779743Y-81763352D01*
X142761524Y-81727595D01*
X142645828Y-81568354D01*
X141784646Y-80707172D01*
X141625405Y-80591476D01*
X141450030Y-80502117D01*
X141262826Y-80441290D01*
X141068422Y-80410500D01*
X141068417Y-80410500D01*
X139277502Y-80410500D01*
X139239184Y-80404431D01*
X139202535Y-80392523D01*
X139101443Y-80376511D01*
X139000352Y-80360500D01*
X138795648Y-80360500D01*
X138771329Y-80364351D01*
X138593465Y-80392522D01*
X138398776Y-80455781D01*
X138216386Y-80548715D01*
X138050786Y-80669028D01*
X137906028Y-80813786D01*
X137785715Y-80979386D01*
X137692781Y-81161776D01*
X137629522Y-81356465D01*
X137597500Y-81558648D01*
X137597500Y-81763351D01*
X137629522Y-81965534D01*
X137692781Y-82160223D01*
X137785715Y-82342613D01*
X137906028Y-82508213D01*
X138050786Y-82652971D01*
X138205749Y-82765556D01*
X138216390Y-82773287D01*
X138332607Y-82832503D01*
X138398776Y-82866218D01*
X138398778Y-82866218D01*
X138398781Y-82866220D01*
X138503137Y-82900127D01*
X138593465Y-82929477D01*
X138647435Y-82938025D01*
X138795648Y-82961500D01*
X138795649Y-82961500D01*
X139000351Y-82961500D01*
X139000352Y-82961500D01*
X139202534Y-82929477D01*
X139230714Y-82920320D01*
X139239184Y-82917569D01*
X139277502Y-82911500D01*
X140317500Y-82911500D01*
X140326185Y-82914050D01*
X140335147Y-82912762D01*
X140359187Y-82923740D01*
X140384539Y-82931185D01*
X140390466Y-82938025D01*
X140398703Y-82941787D01*
X140412992Y-82964021D01*
X140430294Y-82983989D01*
X140432581Y-82994503D01*
X140436477Y-83000565D01*
X140441500Y-83035500D01*
X140441500Y-83116027D01*
X140421815Y-83183066D01*
X140369011Y-83228821D01*
X140356660Y-83233681D01*
X140324500Y-83244384D01*
X140324496Y-83244386D01*
X140203462Y-83322171D01*
X140203451Y-83322179D01*
X140150659Y-83367923D01*
X140056433Y-83476664D01*
X140056429Y-83476669D01*
X140039479Y-83513784D01*
X139993723Y-83566587D01*
X139926683Y-83586270D01*
X139870392Y-83572755D01*
X139766386Y-83519761D01*
X139526785Y-83441910D01*
X139277962Y-83402500D01*
X139026038Y-83402500D01*
X138901626Y-83422205D01*
X138777214Y-83441910D01*
X138537616Y-83519760D01*
X138440644Y-83569171D01*
X138371975Y-83582067D01*
X138307234Y-83555791D01*
X138266977Y-83498684D01*
X138266736Y-83497968D01*
X138243613Y-83428496D01*
X138165825Y-83307457D01*
X138165820Y-83307451D01*
X138120076Y-83254659D01*
X138120072Y-83254656D01*
X138120070Y-83254653D01*
X138011336Y-83160433D01*
X138011333Y-83160431D01*
X138011331Y-83160430D01*
X137880465Y-83100664D01*
X137880460Y-83100662D01*
X137880459Y-83100662D01*
X137835766Y-83087538D01*
X137813417Y-83080976D01*
X137765944Y-83074150D01*
X137671000Y-83060500D01*
X135504944Y-83060500D01*
X135504941Y-83060500D01*
X135399609Y-83071596D01*
X135349070Y-83082364D01*
X135349060Y-83082366D01*
X135248349Y-83115170D01*
X135248342Y-83115174D01*
X135126650Y-83191917D01*
X135126644Y-83191922D01*
X135073956Y-83236793D01*
X135073482Y-83237191D01*
X135073450Y-83237223D01*
X134978300Y-83345155D01*
X134978299Y-83345157D01*
X134917416Y-83475516D01*
X134917413Y-83475523D01*
X134904013Y-83519760D01*
X134897159Y-83542387D01*
X134875467Y-83684618D01*
X134875466Y-83684621D01*
X134875466Y-83684628D01*
X134872498Y-84031903D01*
X134872628Y-84048502D01*
X134872629Y-84048533D01*
X134872826Y-84056647D01*
X134873502Y-84073246D01*
X134877137Y-84091185D01*
X134902078Y-84214261D01*
X134925558Y-84280065D01*
X134992699Y-84407308D01*
X134992701Y-84407312D01*
X135002785Y-84421190D01*
X135012954Y-84437783D01*
X135050594Y-84511656D01*
X135063490Y-84580326D01*
X135058040Y-84606268D01*
X135050910Y-84628211D01*
X135011500Y-84877038D01*
X135011500Y-85128961D01*
X135050910Y-85377786D01*
X135058040Y-85399730D01*
X135058916Y-85430405D01*
X135061978Y-85460936D01*
X135059957Y-85466864D01*
X135060035Y-85469571D01*
X135050594Y-85494343D01*
X135012955Y-85568213D01*
X135002790Y-85584801D01*
X134985120Y-85609123D01*
X134975937Y-85621762D01*
X134968846Y-85631774D01*
X134965445Y-85636704D01*
X134958629Y-85646842D01*
X134958625Y-85646850D01*
X134897746Y-85777198D01*
X134897739Y-85777217D01*
X134877487Y-85844068D01*
X134872773Y-85874977D01*
X134855794Y-85986307D01*
X134855793Y-85986310D01*
X134855793Y-85986317D01*
X134771934Y-95797860D01*
X134751678Y-95864729D01*
X134698485Y-95910030D01*
X134648441Y-95920799D01*
X116962002Y-95992406D01*
X116894883Y-95972993D01*
X116848915Y-95920375D01*
X116837500Y-95868407D01*
X116837500Y-92707010D01*
X116837500Y-92707000D01*
X116825947Y-92599544D01*
X116814741Y-92548033D01*
X116814637Y-92547722D01*
X116780616Y-92445502D01*
X116780613Y-92445496D01*
X116702828Y-92324462D01*
X116702825Y-92324457D01*
X116702820Y-92324451D01*
X116657076Y-92271659D01*
X116657072Y-92271656D01*
X116657070Y-92271653D01*
X116548336Y-92177433D01*
X116548333Y-92177431D01*
X116548331Y-92177430D01*
X116417465Y-92117664D01*
X116417460Y-92117662D01*
X116417459Y-92117662D01*
X116350420Y-92097977D01*
X116350422Y-92097977D01*
X116350417Y-92097976D01*
X116302944Y-92091150D01*
X116208000Y-92077500D01*
X116207998Y-92077500D01*
X106801500Y-92077500D01*
X106734461Y-92057815D01*
X106688706Y-92005011D01*
X106677500Y-91953500D01*
X106677500Y-91437010D01*
X106677500Y-91437000D01*
X106665947Y-91329544D01*
X106654741Y-91278033D01*
X106654637Y-91277722D01*
X106620616Y-91175502D01*
X106620613Y-91175496D01*
X106542828Y-91054462D01*
X106542825Y-91054457D01*
X106542820Y-91054451D01*
X106497076Y-91001659D01*
X106497072Y-91001656D01*
X106497070Y-91001653D01*
X106388336Y-90907433D01*
X106388333Y-90907431D01*
X106388331Y-90907430D01*
X106257465Y-90847664D01*
X106257460Y-90847662D01*
X106257459Y-90847662D01*
X106204659Y-90832158D01*
X106190417Y-90827976D01*
X106128354Y-90819053D01*
X106048000Y-90807500D01*
X92119953Y-90807500D01*
X92119934Y-90807500D01*
X92101908Y-90807821D01*
X92097484Y-90807979D01*
X92029786Y-90790697D01*
X91982178Y-90739557D01*
X91969064Y-90684058D01*
X91969064Y-88567217D01*
X91988749Y-88500178D01*
X92005379Y-88479540D01*
X92216336Y-88268582D01*
X92277659Y-88235098D01*
X92347351Y-88240082D01*
X92391698Y-88268583D01*
X92465909Y-88342794D01*
X92465914Y-88342798D01*
X92643681Y-88471952D01*
X92669719Y-88490870D01*
X92812748Y-88563747D01*
X92894180Y-88605239D01*
X92894182Y-88605239D01*
X92894185Y-88605241D01*
X93133779Y-88683090D01*
X93382602Y-88722500D01*
X93382603Y-88722500D01*
X93634525Y-88722500D01*
X93634526Y-88722500D01*
X93883349Y-88683090D01*
X94122943Y-88605241D01*
X94347409Y-88490870D01*
X94551220Y-88342793D01*
X94729357Y-88164656D01*
X94877434Y-87960845D01*
X94991805Y-87736379D01*
X95069654Y-87496785D01*
X95109064Y-87247962D01*
X95109064Y-86996038D01*
X95069654Y-86747215D01*
X94991805Y-86507621D01*
X94991803Y-86507618D01*
X94991803Y-86507616D01*
X94950311Y-86426184D01*
X94877434Y-86283155D01*
X94781324Y-86150870D01*
X94729362Y-86079350D01*
X94729358Y-86079345D01*
X94551218Y-85901205D01*
X94551213Y-85901201D01*
X94347412Y-85753132D01*
X94347411Y-85753131D01*
X94347409Y-85753130D01*
X94277311Y-85717413D01*
X94122947Y-85638760D01*
X93883349Y-85560910D01*
X93634526Y-85521500D01*
X93382602Y-85521500D01*
X93258190Y-85541205D01*
X93133778Y-85560910D01*
X92894180Y-85638760D01*
X92669715Y-85753132D01*
X92465914Y-85901201D01*
X92465909Y-85901205D01*
X92284326Y-86082789D01*
X92283251Y-86081714D01*
X92230384Y-86116225D01*
X92194602Y-86121500D01*
X91849454Y-86121500D01*
X91817391Y-86127876D01*
X91817392Y-86127877D01*
X91656170Y-86159946D01*
X91656164Y-86159948D01*
X91474088Y-86235366D01*
X91474079Y-86235371D01*
X91310219Y-86344859D01*
X91310215Y-86344862D01*
X90407118Y-87247961D01*
X90330784Y-87324295D01*
X90330782Y-87324297D01*
X90261102Y-87393976D01*
X90191423Y-87463655D01*
X90081935Y-87627515D01*
X90081928Y-87627528D01*
X90006514Y-87809596D01*
X90006511Y-87809606D01*
X89968064Y-88002892D01*
X89968064Y-90686091D01*
X89948379Y-90753130D01*
X89895575Y-90798885D01*
X89826418Y-90808828D01*
X89823150Y-90808359D01*
X89817176Y-90807500D01*
X89817175Y-90807500D01*
X87746500Y-90807500D01*
X87679461Y-90787815D01*
X87633706Y-90735011D01*
X87622500Y-90683500D01*
X87622500Y-84877038D01*
X122311500Y-84877038D01*
X122311500Y-85128961D01*
X122350910Y-85377785D01*
X122428760Y-85617383D01*
X122543132Y-85841848D01*
X122691201Y-86045649D01*
X122691205Y-86045654D01*
X122869345Y-86223794D01*
X122869350Y-86223798D01*
X122951043Y-86283151D01*
X123073155Y-86371870D01*
X123216184Y-86444747D01*
X123297616Y-86486239D01*
X123297618Y-86486239D01*
X123297621Y-86486241D01*
X123537215Y-86564090D01*
X123786038Y-86603500D01*
X123786039Y-86603500D01*
X124037961Y-86603500D01*
X124037962Y-86603500D01*
X124286785Y-86564090D01*
X124526379Y-86486241D01*
X124750845Y-86371870D01*
X124954656Y-86223793D01*
X125094319Y-86084130D01*
X125155642Y-86050645D01*
X125225334Y-86055629D01*
X125269681Y-86084130D01*
X125409345Y-86223794D01*
X125409350Y-86223798D01*
X125491043Y-86283151D01*
X125613155Y-86371870D01*
X125756184Y-86444747D01*
X125837616Y-86486239D01*
X125837618Y-86486239D01*
X125837621Y-86486241D01*
X126077215Y-86564090D01*
X126326038Y-86603500D01*
X126326039Y-86603500D01*
X126577961Y-86603500D01*
X126577962Y-86603500D01*
X126826785Y-86564090D01*
X127066379Y-86486241D01*
X127290845Y-86371870D01*
X127494656Y-86223793D01*
X127634319Y-86084130D01*
X127695642Y-86050645D01*
X127765334Y-86055629D01*
X127809681Y-86084130D01*
X127949345Y-86223794D01*
X127949350Y-86223798D01*
X128031043Y-86283151D01*
X128153155Y-86371870D01*
X128296184Y-86444747D01*
X128377616Y-86486239D01*
X128377618Y-86486239D01*
X128377621Y-86486241D01*
X128617215Y-86564090D01*
X128866038Y-86603500D01*
X128866039Y-86603500D01*
X129117961Y-86603500D01*
X129117962Y-86603500D01*
X129366785Y-86564090D01*
X129606379Y-86486241D01*
X129830845Y-86371870D01*
X130034656Y-86223793D01*
X130174319Y-86084130D01*
X130235642Y-86050645D01*
X130305334Y-86055629D01*
X130349681Y-86084130D01*
X130489345Y-86223794D01*
X130489350Y-86223798D01*
X130571043Y-86283151D01*
X130693155Y-86371870D01*
X130836184Y-86444747D01*
X130917616Y-86486239D01*
X130917618Y-86486239D01*
X130917621Y-86486241D01*
X131157215Y-86564090D01*
X131406038Y-86603500D01*
X131406039Y-86603500D01*
X131657961Y-86603500D01*
X131657962Y-86603500D01*
X131906785Y-86564090D01*
X132146379Y-86486241D01*
X132370845Y-86371870D01*
X132574656Y-86223793D01*
X132752793Y-86045656D01*
X132900870Y-85841845D01*
X133015241Y-85617379D01*
X133093090Y-85377785D01*
X133132500Y-85128962D01*
X133132500Y-84877038D01*
X133093090Y-84628215D01*
X133015241Y-84388621D01*
X133015239Y-84388618D01*
X133015239Y-84388616D01*
X132962641Y-84285387D01*
X132900870Y-84164155D01*
X132834820Y-84073245D01*
X132752798Y-83960350D01*
X132752794Y-83960345D01*
X132571212Y-83778762D01*
X132572285Y-83777688D01*
X132537774Y-83724815D01*
X132532500Y-83689037D01*
X132532500Y-79753782D01*
X132552185Y-79686743D01*
X132568819Y-79666101D01*
X134109102Y-78125819D01*
X134170425Y-78092334D01*
X134196783Y-78089500D01*
X192193218Y-78089500D01*
X192260257Y-78109185D01*
X192280899Y-78125819D01*
X198226181Y-84071101D01*
X198259666Y-84132424D01*
X198262500Y-84158782D01*
X198262500Y-96117717D01*
X198242815Y-96184756D01*
X198226181Y-96205398D01*
X194884399Y-99547181D01*
X194823076Y-99580666D01*
X194796718Y-99583500D01*
X187368962Y-99583500D01*
X187339458Y-99574836D01*
X187309404Y-99568261D01*
X187305071Y-99564739D01*
X187301923Y-99563815D01*
X187281176Y-99547076D01*
X187276691Y-99542580D01*
X187275793Y-99541344D01*
X187136025Y-99401576D01*
X187119232Y-99370736D01*
X187102645Y-99340358D01*
X187102650Y-99340281D01*
X187102613Y-99340213D01*
X187105156Y-99305241D01*
X187107629Y-99270666D01*
X187107676Y-99270592D01*
X187107681Y-99270527D01*
X187107940Y-99270180D01*
X187136130Y-99226319D01*
X187275793Y-99086656D01*
X187423870Y-98882845D01*
X187538241Y-98658379D01*
X187616090Y-98418785D01*
X187655500Y-98169962D01*
X187655500Y-97918038D01*
X187616090Y-97669215D01*
X187538241Y-97429621D01*
X187538239Y-97429618D01*
X187538239Y-97429616D01*
X187496747Y-97348184D01*
X187423870Y-97205155D01*
X187404952Y-97179117D01*
X187275798Y-97001350D01*
X187275794Y-97001345D01*
X187136130Y-96861681D01*
X187102645Y-96800358D01*
X187107629Y-96730666D01*
X187136130Y-96686319D01*
X187275793Y-96546656D01*
X187423870Y-96342845D01*
X187538241Y-96118379D01*
X187616090Y-95878785D01*
X187655500Y-95629962D01*
X187655500Y-95378038D01*
X187616090Y-95129215D01*
X187538241Y-94889621D01*
X187538239Y-94889618D01*
X187538239Y-94889616D01*
X187496747Y-94808184D01*
X187423870Y-94665155D01*
X187390148Y-94618741D01*
X187275798Y-94461350D01*
X187275794Y-94461345D01*
X187136130Y-94321681D01*
X187102645Y-94260358D01*
X187107629Y-94190666D01*
X187136130Y-94146319D01*
X187275793Y-94006656D01*
X187423870Y-93802845D01*
X187538241Y-93578379D01*
X187616090Y-93338785D01*
X187655500Y-93089962D01*
X187655500Y-92838038D01*
X187616090Y-92589215D01*
X187538241Y-92349621D01*
X187538239Y-92349618D01*
X187538239Y-92349616D01*
X187496747Y-92268184D01*
X187423870Y-92125155D01*
X187374945Y-92057815D01*
X187275798Y-91921350D01*
X187275794Y-91921345D01*
X187097654Y-91743205D01*
X187097649Y-91743201D01*
X186893848Y-91595132D01*
X186893847Y-91595131D01*
X186893845Y-91595130D01*
X186823747Y-91559413D01*
X186669383Y-91480760D01*
X186429785Y-91402910D01*
X186180962Y-91363500D01*
X185929038Y-91363500D01*
X185804626Y-91383205D01*
X185680214Y-91402910D01*
X185440616Y-91480760D01*
X185216151Y-91595132D01*
X185012350Y-91743201D01*
X185012345Y-91743205D01*
X184834205Y-91921345D01*
X184834201Y-91921350D01*
X184686132Y-92125151D01*
X184571760Y-92349616D01*
X184493910Y-92589214D01*
X184454500Y-92838038D01*
X184454500Y-93089961D01*
X184493910Y-93338785D01*
X184571760Y-93578383D01*
X184686132Y-93802848D01*
X184834201Y-94006649D01*
X184834205Y-94006654D01*
X184973870Y-94146319D01*
X185007355Y-94207642D01*
X185002371Y-94277334D01*
X184973870Y-94321681D01*
X184834205Y-94461345D01*
X184834201Y-94461350D01*
X184686132Y-94665151D01*
X184571760Y-94889616D01*
X184493910Y-95129214D01*
X184454500Y-95378038D01*
X184454500Y-95629961D01*
X184493910Y-95878785D01*
X184571760Y-96118383D01*
X184686132Y-96342848D01*
X184834201Y-96546649D01*
X184834205Y-96546654D01*
X184973870Y-96686319D01*
X185007355Y-96747642D01*
X185002371Y-96817334D01*
X184973870Y-96861681D01*
X184834205Y-97001345D01*
X184834201Y-97001350D01*
X184686132Y-97205151D01*
X184571760Y-97429616D01*
X184493910Y-97669214D01*
X184454500Y-97918038D01*
X184454500Y-98169961D01*
X184493910Y-98418785D01*
X184571760Y-98658383D01*
X184686132Y-98882848D01*
X184834201Y-99086649D01*
X184834205Y-99086654D01*
X184973870Y-99226319D01*
X185007355Y-99287642D01*
X185002371Y-99357334D01*
X184973870Y-99401681D01*
X184834205Y-99541345D01*
X184834201Y-99541350D01*
X184686132Y-99745151D01*
X184571760Y-99969616D01*
X184493910Y-100209214D01*
X184454500Y-100458038D01*
X184454500Y-100709961D01*
X184493910Y-100958785D01*
X184571760Y-101198383D01*
X184686132Y-101422848D01*
X184834201Y-101626649D01*
X184834205Y-101626654D01*
X184973870Y-101766319D01*
X185007355Y-101827642D01*
X185002371Y-101897334D01*
X184973870Y-101941681D01*
X184834205Y-102081345D01*
X184834201Y-102081350D01*
X184686132Y-102285151D01*
X184571760Y-102509616D01*
X184493910Y-102749214D01*
X184454500Y-102998038D01*
X184454500Y-103249961D01*
X184493910Y-103498785D01*
X184571760Y-103738383D01*
X184650413Y-103892747D01*
X184674750Y-103940511D01*
X184686132Y-103962848D01*
X184834201Y-104166649D01*
X184834205Y-104166654D01*
X184973870Y-104306319D01*
X185007355Y-104367642D01*
X185002371Y-104437334D01*
X184973870Y-104481681D01*
X184834205Y-104621345D01*
X184834201Y-104621350D01*
X184686132Y-104825151D01*
X184571760Y-105049616D01*
X184493910Y-105289214D01*
X184454500Y-105538038D01*
X184454500Y-105789961D01*
X184493910Y-106038785D01*
X184571760Y-106278383D01*
X184650413Y-106432747D01*
X184686061Y-106502710D01*
X184686132Y-106502848D01*
X184834201Y-106706649D01*
X184834205Y-106706654D01*
X184973870Y-106846319D01*
X185007355Y-106907642D01*
X185002371Y-106977334D01*
X184973870Y-107021681D01*
X184834205Y-107161345D01*
X184834201Y-107161350D01*
X184686132Y-107365151D01*
X184571760Y-107589616D01*
X184493910Y-107829214D01*
X184454500Y-108078038D01*
X184454500Y-108329961D01*
X184493910Y-108578785D01*
X184571760Y-108818383D01*
X184621239Y-108915489D01*
X184684456Y-109039560D01*
X184686132Y-109042848D01*
X184834201Y-109246649D01*
X184834205Y-109246654D01*
X184973870Y-109386319D01*
X185007355Y-109447642D01*
X185002371Y-109517334D01*
X184973870Y-109561681D01*
X184834205Y-109701345D01*
X184834201Y-109701350D01*
X184686132Y-109905151D01*
X184571760Y-110129616D01*
X184513320Y-110309476D01*
X184493910Y-110369215D01*
X184454500Y-110618038D01*
X184454500Y-110869962D01*
X184479660Y-111028815D01*
X184493910Y-111118785D01*
X184571760Y-111358383D01*
X184686132Y-111582848D01*
X184834201Y-111786649D01*
X184834205Y-111786654D01*
X184973870Y-111926319D01*
X185007355Y-111987642D01*
X185002371Y-112057334D01*
X184973870Y-112101681D01*
X184834205Y-112241345D01*
X184834201Y-112241350D01*
X184686132Y-112445151D01*
X184571760Y-112669616D01*
X184493910Y-112909214D01*
X184487048Y-112952539D01*
X184454500Y-113158038D01*
X184454500Y-113409962D01*
X184493910Y-113658785D01*
X184571760Y-113898383D01*
X184686132Y-114122848D01*
X184834201Y-114326649D01*
X184834205Y-114326654D01*
X184973870Y-114466319D01*
X185007355Y-114527642D01*
X185002371Y-114597334D01*
X184973870Y-114641681D01*
X184834205Y-114781345D01*
X184834201Y-114781350D01*
X184686132Y-114985151D01*
X184571760Y-115209616D01*
X184493910Y-115449214D01*
X184454500Y-115698038D01*
X184454500Y-115949961D01*
X184493910Y-116198785D01*
X184571760Y-116438383D01*
X184686132Y-116662848D01*
X184834201Y-116866649D01*
X184834205Y-116866654D01*
X184973870Y-117006319D01*
X185007355Y-117067642D01*
X185002371Y-117137334D01*
X184973870Y-117181681D01*
X184834205Y-117321345D01*
X184834201Y-117321350D01*
X184686132Y-117525151D01*
X184571760Y-117749616D01*
X184544026Y-117834974D01*
X184493910Y-117989215D01*
X184454500Y-118238038D01*
X184454500Y-118489962D01*
X184472609Y-118604296D01*
X184493910Y-118738785D01*
X184571760Y-118978383D01*
X184626162Y-119085151D01*
X184680100Y-119191011D01*
X184686132Y-119202848D01*
X184834201Y-119406649D01*
X184834205Y-119406654D01*
X184973870Y-119546319D01*
X185007355Y-119607642D01*
X185002371Y-119677334D01*
X184973870Y-119721681D01*
X184834205Y-119861345D01*
X184834201Y-119861350D01*
X184686132Y-120065151D01*
X184571760Y-120289616D01*
X184493910Y-120529214D01*
X184454500Y-120778038D01*
X184454500Y-121029961D01*
X184493910Y-121278785D01*
X184571760Y-121518383D01*
X184650413Y-121672747D01*
X184666732Y-121704775D01*
X184686132Y-121742848D01*
X184834201Y-121946649D01*
X184834205Y-121946654D01*
X184973870Y-122086319D01*
X185007355Y-122147642D01*
X185002371Y-122217334D01*
X184973870Y-122261681D01*
X184834205Y-122401345D01*
X184834201Y-122401350D01*
X184686132Y-122605151D01*
X184571760Y-122829616D01*
X184493910Y-123069214D01*
X184454500Y-123318038D01*
X184454500Y-123569961D01*
X184493910Y-123818785D01*
X184571760Y-124058383D01*
X184686132Y-124282848D01*
X184834201Y-124486649D01*
X184834205Y-124486654D01*
X185012345Y-124664794D01*
X185012350Y-124664798D01*
X185119684Y-124742780D01*
X185216155Y-124812870D01*
X185359184Y-124885747D01*
X185440616Y-124927239D01*
X185440618Y-124927239D01*
X185440621Y-124927241D01*
X185680215Y-125005090D01*
X185929038Y-125044500D01*
X185929039Y-125044500D01*
X186180961Y-125044500D01*
X186180962Y-125044500D01*
X186280226Y-125028778D01*
X199561500Y-125028778D01*
X199561500Y-125317221D01*
X199561501Y-125317238D01*
X199599149Y-125603206D01*
X199599150Y-125603211D01*
X199599151Y-125603217D01*
X199673809Y-125881844D01*
X199673814Y-125881860D01*
X199784191Y-126148336D01*
X199784199Y-126148352D01*
X199928420Y-126398148D01*
X199928431Y-126398164D01*
X200104024Y-126627002D01*
X200104030Y-126627009D01*
X200307990Y-126830969D01*
X200307996Y-126830974D01*
X200536844Y-127006575D01*
X200536851Y-127006579D01*
X200786647Y-127150800D01*
X200786663Y-127150808D01*
X201053139Y-127261185D01*
X201053145Y-127261186D01*
X201053155Y-127261191D01*
X201331783Y-127335849D01*
X201617772Y-127373500D01*
X201617779Y-127373500D01*
X201906221Y-127373500D01*
X201906228Y-127373500D01*
X202192217Y-127335849D01*
X202470845Y-127261191D01*
X202470857Y-127261185D01*
X202470860Y-127261185D01*
X202737336Y-127150808D01*
X202737339Y-127150806D01*
X202737345Y-127150804D01*
X202987156Y-127006575D01*
X203216004Y-126830974D01*
X203419974Y-126627004D01*
X203595575Y-126398156D01*
X203739804Y-126148345D01*
X203850191Y-125881845D01*
X203924849Y-125603217D01*
X203962500Y-125317228D01*
X203962500Y-125028772D01*
X203924849Y-124742783D01*
X203850191Y-124464155D01*
X203850186Y-124464145D01*
X203850185Y-124464139D01*
X203739808Y-124197663D01*
X203739800Y-124197647D01*
X203595579Y-123947851D01*
X203595575Y-123947844D01*
X203419974Y-123718996D01*
X203419969Y-123718990D01*
X203216009Y-123515030D01*
X203216002Y-123515024D01*
X202987164Y-123339431D01*
X202987162Y-123339429D01*
X202987156Y-123339425D01*
X202987151Y-123339422D01*
X202987148Y-123339420D01*
X202737352Y-123195199D01*
X202737336Y-123195191D01*
X202470860Y-123084814D01*
X202470848Y-123084810D01*
X202470845Y-123084809D01*
X202192217Y-123010151D01*
X202192211Y-123010150D01*
X202192206Y-123010149D01*
X201906238Y-122972501D01*
X201906233Y-122972500D01*
X201906228Y-122972500D01*
X201617772Y-122972500D01*
X201617766Y-122972500D01*
X201617761Y-122972501D01*
X201331793Y-123010149D01*
X201331786Y-123010150D01*
X201331783Y-123010151D01*
X201111353Y-123069215D01*
X201053155Y-123084809D01*
X201053139Y-123084814D01*
X200786663Y-123195191D01*
X200786647Y-123195199D01*
X200536851Y-123339420D01*
X200536835Y-123339431D01*
X200307997Y-123515024D01*
X200307990Y-123515030D01*
X200104030Y-123718990D01*
X200104024Y-123718997D01*
X199928431Y-123947835D01*
X199928420Y-123947851D01*
X199784199Y-124197647D01*
X199784191Y-124197663D01*
X199673814Y-124464139D01*
X199673809Y-124464155D01*
X199599152Y-124742780D01*
X199599149Y-124742793D01*
X199561501Y-125028761D01*
X199561500Y-125028778D01*
X186280226Y-125028778D01*
X186429785Y-125005090D01*
X186669379Y-124927241D01*
X186669382Y-124927238D01*
X186669386Y-124927238D01*
X186694917Y-124914229D01*
X186694919Y-124914228D01*
X186736616Y-124892982D01*
X186893845Y-124812870D01*
X187097656Y-124664793D01*
X187275793Y-124486656D01*
X187423870Y-124282845D01*
X187538241Y-124058379D01*
X187616090Y-123818785D01*
X187655500Y-123569962D01*
X187655500Y-123318038D01*
X187616090Y-123069215D01*
X187538241Y-122829621D01*
X187538239Y-122829618D01*
X187538239Y-122829616D01*
X187470951Y-122697557D01*
X187423870Y-122605155D01*
X187381867Y-122547343D01*
X187275798Y-122401350D01*
X187275794Y-122401345D01*
X187136130Y-122261681D01*
X187102645Y-122200358D01*
X187107629Y-122130666D01*
X187136130Y-122086319D01*
X187195413Y-122027036D01*
X187275793Y-121946656D01*
X187423870Y-121742845D01*
X187538241Y-121518379D01*
X187616090Y-121278785D01*
X187655500Y-121029962D01*
X187655500Y-120778038D01*
X187616090Y-120529215D01*
X187538241Y-120289621D01*
X187538239Y-120289618D01*
X187538239Y-120289616D01*
X187466660Y-120149136D01*
X187423870Y-120065155D01*
X187310878Y-119909634D01*
X187275798Y-119861350D01*
X187275794Y-119861345D01*
X187136130Y-119721681D01*
X187102645Y-119660358D01*
X187107629Y-119590666D01*
X187136130Y-119546319D01*
X187155609Y-119526840D01*
X187275793Y-119406656D01*
X187423870Y-119202845D01*
X187538241Y-118978379D01*
X187616090Y-118738785D01*
X187655500Y-118489962D01*
X187655500Y-118238038D01*
X187616090Y-117989215D01*
X187538241Y-117749621D01*
X187538239Y-117749618D01*
X187538239Y-117749616D01*
X187496747Y-117668184D01*
X187423870Y-117525155D01*
X187366792Y-117446594D01*
X187275798Y-117321350D01*
X187275794Y-117321345D01*
X187136130Y-117181681D01*
X187102645Y-117120358D01*
X187107629Y-117050666D01*
X187136130Y-117006319D01*
X187275793Y-116866656D01*
X187423870Y-116662845D01*
X187538241Y-116438379D01*
X187616090Y-116198785D01*
X187655500Y-115949962D01*
X187655500Y-115698038D01*
X187616090Y-115449215D01*
X187538241Y-115209621D01*
X187538239Y-115209618D01*
X187538239Y-115209616D01*
X187493524Y-115121859D01*
X187423870Y-114985155D01*
X187404952Y-114959117D01*
X187275798Y-114781350D01*
X187275794Y-114781345D01*
X187136130Y-114641681D01*
X187102645Y-114580358D01*
X187107629Y-114510666D01*
X187136130Y-114466319D01*
X187275793Y-114326656D01*
X187423870Y-114122845D01*
X187538241Y-113898379D01*
X187616090Y-113658785D01*
X187655500Y-113409962D01*
X187655500Y-113158038D01*
X187616090Y-112909215D01*
X187538241Y-112669621D01*
X187538239Y-112669618D01*
X187538239Y-112669616D01*
X187472533Y-112540662D01*
X187423870Y-112445155D01*
X187384774Y-112391344D01*
X187275798Y-112241350D01*
X187275794Y-112241345D01*
X187136130Y-112101681D01*
X187102645Y-112040358D01*
X187107629Y-111970666D01*
X187136130Y-111926319D01*
X187182098Y-111880351D01*
X187275793Y-111786656D01*
X187423870Y-111582845D01*
X187538241Y-111358379D01*
X187616090Y-111118785D01*
X187655500Y-110869962D01*
X187655500Y-110618038D01*
X187616090Y-110369215D01*
X187538241Y-110129621D01*
X187538239Y-110129618D01*
X187538239Y-110129616D01*
X187496747Y-110048184D01*
X187423870Y-109905155D01*
X187404952Y-109879117D01*
X187275798Y-109701350D01*
X187275794Y-109701345D01*
X187136130Y-109561681D01*
X187102645Y-109500358D01*
X187107629Y-109430666D01*
X187136130Y-109386319D01*
X187203582Y-109318867D01*
X187275793Y-109246656D01*
X187423870Y-109042845D01*
X187538241Y-108818379D01*
X187616090Y-108578785D01*
X187655500Y-108329962D01*
X187655500Y-108078038D01*
X187616090Y-107829215D01*
X187538241Y-107589621D01*
X187538239Y-107589618D01*
X187538239Y-107589616D01*
X187486572Y-107488215D01*
X187423870Y-107365155D01*
X187402409Y-107335616D01*
X187275798Y-107161350D01*
X187275794Y-107161345D01*
X187136130Y-107021681D01*
X187131828Y-107013802D01*
X187124633Y-107008430D01*
X187115342Y-106983611D01*
X187102645Y-106960358D01*
X187103285Y-106951402D01*
X187100138Y-106942995D01*
X187105738Y-106917099D01*
X187107629Y-106890666D01*
X187113400Y-106881673D01*
X187114908Y-106874704D01*
X187135864Y-106846674D01*
X187136025Y-106846424D01*
X187136130Y-106846319D01*
X187275793Y-106706656D01*
X187276691Y-106705419D01*
X187281176Y-106700924D01*
X187307780Y-106686355D01*
X187333180Y-106669775D01*
X187339856Y-106668790D01*
X187342458Y-106667366D01*
X187347240Y-106667702D01*
X187368962Y-106664500D01*
X189526218Y-106664500D01*
X189593257Y-106684185D01*
X189613899Y-106700819D01*
X190515181Y-107602101D01*
X190548666Y-107663424D01*
X190551500Y-107689782D01*
X190551500Y-113544217D01*
X190531815Y-113611256D01*
X190515181Y-113631898D01*
X189025220Y-115121859D01*
X189025218Y-115121861D01*
X188955538Y-115191540D01*
X188885859Y-115261219D01*
X188776371Y-115425080D01*
X188776364Y-115425093D01*
X188732569Y-115530828D01*
X188732568Y-115530831D01*
X188717567Y-115567045D01*
X188700950Y-115607160D01*
X188700947Y-115607170D01*
X188662500Y-115800456D01*
X188662500Y-118610037D01*
X188642815Y-118677076D01*
X188623376Y-118699350D01*
X188623788Y-118699762D01*
X188442205Y-118881345D01*
X188442201Y-118881350D01*
X188294132Y-119085151D01*
X188179760Y-119309616D01*
X188101910Y-119549214D01*
X188081618Y-119677334D01*
X188062500Y-119798038D01*
X188062500Y-120049962D01*
X188078208Y-120149136D01*
X188101910Y-120298785D01*
X188179760Y-120538383D01*
X188294132Y-120762848D01*
X188442201Y-120966649D01*
X188442205Y-120966654D01*
X188620345Y-121144794D01*
X188620350Y-121144798D01*
X188798117Y-121273952D01*
X188824155Y-121292870D01*
X188967184Y-121365747D01*
X189048616Y-121407239D01*
X189048618Y-121407239D01*
X189048621Y-121407241D01*
X189288215Y-121485090D01*
X189537038Y-121524500D01*
X189537039Y-121524500D01*
X189788961Y-121524500D01*
X189788962Y-121524500D01*
X190037785Y-121485090D01*
X190277379Y-121407241D01*
X190501845Y-121292870D01*
X190705656Y-121144793D01*
X190883793Y-120966656D01*
X191031870Y-120762845D01*
X191146241Y-120538379D01*
X191224090Y-120298785D01*
X191263500Y-120049962D01*
X191263500Y-119798038D01*
X194562500Y-119798038D01*
X194562500Y-120049962D01*
X194578208Y-120149136D01*
X194601910Y-120298785D01*
X194679760Y-120538383D01*
X194794132Y-120762848D01*
X194942201Y-120966649D01*
X194942205Y-120966654D01*
X195120345Y-121144794D01*
X195120350Y-121144798D01*
X195298117Y-121273952D01*
X195324155Y-121292870D01*
X195467184Y-121365747D01*
X195548616Y-121407239D01*
X195548618Y-121407239D01*
X195548621Y-121407241D01*
X195788215Y-121485090D01*
X196037038Y-121524500D01*
X196037039Y-121524500D01*
X196288961Y-121524500D01*
X196288962Y-121524500D01*
X196537785Y-121485090D01*
X196777379Y-121407241D01*
X197001845Y-121292870D01*
X197205656Y-121144793D01*
X197383793Y-120966656D01*
X197531870Y-120762845D01*
X197646241Y-120538379D01*
X197724090Y-120298785D01*
X197763500Y-120049962D01*
X197763500Y-119798038D01*
X197724090Y-119549215D01*
X197646241Y-119309621D01*
X197646239Y-119309618D01*
X197646239Y-119309616D01*
X197595093Y-119209237D01*
X197531870Y-119085155D01*
X197454293Y-118978379D01*
X197383798Y-118881350D01*
X197383794Y-118881345D01*
X197205654Y-118703205D01*
X197205649Y-118703201D01*
X197001848Y-118555132D01*
X197001847Y-118555131D01*
X197001845Y-118555130D01*
X196931747Y-118519413D01*
X196777383Y-118440760D01*
X196537785Y-118362910D01*
X196448793Y-118348815D01*
X196288962Y-118323500D01*
X196037038Y-118323500D01*
X195912626Y-118343205D01*
X195788214Y-118362910D01*
X195548616Y-118440760D01*
X195324151Y-118555132D01*
X195120350Y-118703201D01*
X195120345Y-118703205D01*
X194942205Y-118881345D01*
X194942201Y-118881350D01*
X194794132Y-119085151D01*
X194679760Y-119309616D01*
X194601910Y-119549214D01*
X194581618Y-119677334D01*
X194562500Y-119798038D01*
X191263500Y-119798038D01*
X191224090Y-119549215D01*
X191146241Y-119309621D01*
X191146239Y-119309618D01*
X191146239Y-119309616D01*
X191095093Y-119209237D01*
X191031870Y-119085155D01*
X190954293Y-118978379D01*
X190883798Y-118881350D01*
X190883794Y-118881345D01*
X190702212Y-118699762D01*
X190703285Y-118698688D01*
X190668774Y-118645815D01*
X190663500Y-118610037D01*
X190663500Y-116364782D01*
X190683185Y-116297743D01*
X190699819Y-116277101D01*
X191930102Y-115046819D01*
X191991425Y-115013334D01*
X192017783Y-115010500D01*
X200381000Y-115010500D01*
X200448039Y-115030185D01*
X200493794Y-115082989D01*
X200505000Y-115134500D01*
X200505000Y-115210015D01*
X200515500Y-115312795D01*
X200515501Y-115312796D01*
X200570686Y-115479335D01*
X200570687Y-115479337D01*
X200662786Y-115628651D01*
X200662789Y-115628655D01*
X200786844Y-115752710D01*
X200786848Y-115752713D01*
X200936162Y-115844812D01*
X200936164Y-115844813D01*
X200936166Y-115844814D01*
X201102703Y-115899999D01*
X201205492Y-115910500D01*
X201205497Y-115910500D01*
X203605503Y-115910500D01*
X203605508Y-115910500D01*
X203708297Y-115899999D01*
X203874834Y-115844814D01*
X204024155Y-115752711D01*
X204148211Y-115628655D01*
X204240314Y-115479334D01*
X204295499Y-115312797D01*
X204306000Y-115210008D01*
X204306000Y-112809992D01*
X204295499Y-112707203D01*
X204240314Y-112540666D01*
X204154890Y-112402174D01*
X204148213Y-112391348D01*
X204148210Y-112391344D01*
X204024155Y-112267289D01*
X204024151Y-112267286D01*
X203874837Y-112175187D01*
X203874835Y-112175186D01*
X203791565Y-112147593D01*
X203708297Y-112120001D01*
X203708295Y-112120000D01*
X203605515Y-112109500D01*
X203605508Y-112109500D01*
X201205492Y-112109500D01*
X201205484Y-112109500D01*
X201102704Y-112120000D01*
X201102703Y-112120001D01*
X200936164Y-112175186D01*
X200936162Y-112175187D01*
X200786848Y-112267286D01*
X200786844Y-112267289D01*
X200662789Y-112391344D01*
X200662786Y-112391348D01*
X200570687Y-112540662D01*
X200570686Y-112540664D01*
X200515501Y-112707203D01*
X200515500Y-112707204D01*
X200505000Y-112809984D01*
X200505000Y-112885500D01*
X200485315Y-112952539D01*
X200432511Y-112998294D01*
X200381000Y-113009500D01*
X192676500Y-113009500D01*
X192609461Y-112989815D01*
X192563706Y-112937011D01*
X192552500Y-112885500D01*
X192552500Y-107125458D01*
X192552499Y-107125457D01*
X192534083Y-107032870D01*
X192514052Y-106932165D01*
X192438632Y-106750086D01*
X192438631Y-106750085D01*
X192438628Y-106750079D01*
X192329141Y-106586220D01*
X192287627Y-106544706D01*
X192245630Y-106502709D01*
X192189782Y-106446861D01*
X192189781Y-106446860D01*
X190776208Y-105033288D01*
X190776206Y-105033285D01*
X190776206Y-105033286D01*
X190769139Y-105026219D01*
X190769139Y-105026218D01*
X190629782Y-104886861D01*
X190629781Y-104886860D01*
X190629780Y-104886859D01*
X190465920Y-104777371D01*
X190465907Y-104777364D01*
X190319878Y-104716878D01*
X190319876Y-104716877D01*
X190311722Y-104713500D01*
X190283836Y-104701949D01*
X190187188Y-104682724D01*
X190183884Y-104682066D01*
X190183881Y-104682066D01*
X190090544Y-104663500D01*
X190090541Y-104663500D01*
X187368962Y-104663500D01*
X187339458Y-104654836D01*
X187309404Y-104648261D01*
X187305071Y-104644739D01*
X187301923Y-104643815D01*
X187281176Y-104627076D01*
X187276691Y-104622580D01*
X187275793Y-104621344D01*
X187136025Y-104481576D01*
X187119232Y-104450736D01*
X187102645Y-104420358D01*
X187102650Y-104420281D01*
X187102613Y-104420213D01*
X187105156Y-104385241D01*
X187107629Y-104350666D01*
X187107676Y-104350592D01*
X187107681Y-104350527D01*
X187107940Y-104350180D01*
X187136130Y-104306319D01*
X187279238Y-104163211D01*
X187280312Y-104164285D01*
X187333180Y-104129775D01*
X187368962Y-104124500D01*
X195805543Y-104124500D01*
X195862033Y-104113262D01*
X195914080Y-104102910D01*
X195998836Y-104086051D01*
X196053976Y-104063211D01*
X196180914Y-104010632D01*
X196344782Y-103901139D01*
X196484139Y-103761782D01*
X196484140Y-103761780D01*
X196491206Y-103754714D01*
X196491209Y-103754710D01*
X201678778Y-98567141D01*
X201678782Y-98567139D01*
X201818139Y-98427782D01*
X201927632Y-98263914D01*
X201986075Y-98122819D01*
X202003051Y-98081836D01*
X202022275Y-97985188D01*
X202041500Y-97888541D01*
X202041500Y-82578459D01*
X202041500Y-82578456D01*
X202022325Y-82482061D01*
X202021049Y-82475646D01*
X202003051Y-82385164D01*
X201961389Y-82284583D01*
X201952886Y-82264055D01*
X201927635Y-82203092D01*
X201927628Y-82203079D01*
X201818140Y-82039219D01*
X201818139Y-82039218D01*
X201678782Y-81899861D01*
X201678781Y-81899860D01*
X195635698Y-75856778D01*
X199561500Y-75856778D01*
X199561500Y-76145221D01*
X199561501Y-76145238D01*
X199599149Y-76431206D01*
X199599150Y-76431211D01*
X199599151Y-76431217D01*
X199673809Y-76709844D01*
X199673814Y-76709860D01*
X199784191Y-76976336D01*
X199784199Y-76976352D01*
X199928420Y-77226148D01*
X199928431Y-77226164D01*
X200104024Y-77455002D01*
X200104030Y-77455009D01*
X200307990Y-77658969D01*
X200307996Y-77658974D01*
X200536844Y-77834575D01*
X200536851Y-77834579D01*
X200786647Y-77978800D01*
X200786663Y-77978808D01*
X201053139Y-78089185D01*
X201053145Y-78089186D01*
X201053155Y-78089191D01*
X201331783Y-78163849D01*
X201617772Y-78201500D01*
X201617779Y-78201500D01*
X201906221Y-78201500D01*
X201906228Y-78201500D01*
X202192217Y-78163849D01*
X202470845Y-78089191D01*
X202470857Y-78089185D01*
X202470860Y-78089185D01*
X202737336Y-77978808D01*
X202737339Y-77978806D01*
X202737345Y-77978804D01*
X202987156Y-77834575D01*
X203216004Y-77658974D01*
X203419974Y-77455004D01*
X203595575Y-77226156D01*
X203739804Y-76976345D01*
X203850191Y-76709845D01*
X203924849Y-76431217D01*
X203962500Y-76145228D01*
X203962500Y-75856772D01*
X203924849Y-75570783D01*
X203850191Y-75292155D01*
X203850186Y-75292145D01*
X203850185Y-75292139D01*
X203739808Y-75025663D01*
X203739800Y-75025647D01*
X203595579Y-74775851D01*
X203595575Y-74775844D01*
X203419974Y-74546996D01*
X203419969Y-74546990D01*
X203216009Y-74343030D01*
X203216002Y-74343024D01*
X202987164Y-74167431D01*
X202987162Y-74167429D01*
X202987156Y-74167425D01*
X202987151Y-74167422D01*
X202987148Y-74167420D01*
X202737352Y-74023199D01*
X202737336Y-74023191D01*
X202470860Y-73912814D01*
X202470848Y-73912810D01*
X202470845Y-73912809D01*
X202192217Y-73838151D01*
X202192211Y-73838150D01*
X202192206Y-73838149D01*
X201906238Y-73800501D01*
X201906233Y-73800500D01*
X201906228Y-73800500D01*
X201617772Y-73800500D01*
X201617766Y-73800500D01*
X201617761Y-73800501D01*
X201331793Y-73838149D01*
X201331786Y-73838150D01*
X201331783Y-73838151D01*
X201053155Y-73912809D01*
X201053139Y-73912814D01*
X200786663Y-74023191D01*
X200786647Y-74023199D01*
X200536851Y-74167420D01*
X200536835Y-74167431D01*
X200307997Y-74343024D01*
X200307990Y-74343030D01*
X200104030Y-74546990D01*
X200104024Y-74546997D01*
X199928431Y-74775835D01*
X199928420Y-74775851D01*
X199784199Y-75025647D01*
X199784191Y-75025663D01*
X199673814Y-75292139D01*
X199673809Y-75292155D01*
X199599152Y-75570780D01*
X199599149Y-75570793D01*
X199561501Y-75856761D01*
X199561500Y-75856778D01*
X195635698Y-75856778D01*
X194205208Y-74426288D01*
X194205206Y-74426285D01*
X194205206Y-74426286D01*
X194198139Y-74419219D01*
X194198139Y-74419218D01*
X194058782Y-74279861D01*
X194058781Y-74279860D01*
X194058780Y-74279859D01*
X193894920Y-74170371D01*
X193894911Y-74170366D01*
X193822315Y-74140296D01*
X193766165Y-74117038D01*
X193712836Y-74094949D01*
X193712832Y-74094948D01*
X193712828Y-74094946D01*
X193616188Y-74075724D01*
X193519544Y-74056500D01*
X193519541Y-74056500D01*
X132311675Y-74056500D01*
X132311655Y-74056499D01*
X132305541Y-74056499D01*
X132108460Y-74056499D01*
X132108457Y-74056499D01*
X131915172Y-74094946D01*
X131915164Y-74094948D01*
X131733088Y-74170366D01*
X131733079Y-74170371D01*
X131569219Y-74279859D01*
X131569215Y-74279862D01*
X129139235Y-76709844D01*
X128354220Y-77494859D01*
X128354218Y-77494861D01*
X128284538Y-77564540D01*
X128214859Y-77634219D01*
X128105371Y-77798080D01*
X128105364Y-77798092D01*
X128090252Y-77834579D01*
X128077180Y-77866139D01*
X128030513Y-77978804D01*
X128029949Y-77980165D01*
X128029948Y-77980168D01*
X127991500Y-78173456D01*
X127991500Y-83689037D01*
X127982837Y-83718539D01*
X127976261Y-83748595D01*
X127972739Y-83752928D01*
X127971815Y-83756076D01*
X127955076Y-83776824D01*
X127950580Y-83781308D01*
X127949344Y-83782207D01*
X127809990Y-83921560D01*
X127809575Y-83921975D01*
X127778909Y-83938671D01*
X127748357Y-83955354D01*
X127748279Y-83955348D01*
X127748211Y-83955386D01*
X127713620Y-83952869D01*
X127678665Y-83950370D01*
X127678589Y-83950321D01*
X127678526Y-83950317D01*
X127678188Y-83950063D01*
X127634318Y-83921869D01*
X127494654Y-83782205D01*
X127494649Y-83782201D01*
X127290848Y-83634132D01*
X127290847Y-83634131D01*
X127290845Y-83634130D01*
X127220747Y-83598413D01*
X127066383Y-83519760D01*
X126826785Y-83441910D01*
X126577962Y-83402500D01*
X126326038Y-83402500D01*
X126201626Y-83422205D01*
X126077214Y-83441910D01*
X125837616Y-83519760D01*
X125613151Y-83634132D01*
X125409350Y-83782201D01*
X125409345Y-83782205D01*
X125269681Y-83921870D01*
X125208358Y-83955355D01*
X125138666Y-83950371D01*
X125094319Y-83921870D01*
X124954654Y-83782205D01*
X124954649Y-83782201D01*
X124750848Y-83634132D01*
X124750847Y-83634131D01*
X124750845Y-83634130D01*
X124680747Y-83598413D01*
X124526383Y-83519760D01*
X124286785Y-83441910D01*
X124037962Y-83402500D01*
X123786038Y-83402500D01*
X123661626Y-83422205D01*
X123537214Y-83441910D01*
X123297616Y-83519760D01*
X123073151Y-83634132D01*
X122869350Y-83782201D01*
X122869345Y-83782205D01*
X122691205Y-83960345D01*
X122691201Y-83960350D01*
X122543132Y-84164151D01*
X122428760Y-84388616D01*
X122350910Y-84628214D01*
X122311500Y-84877038D01*
X87622500Y-84877038D01*
X87622500Y-75856778D01*
X89921500Y-75856778D01*
X89921500Y-76145221D01*
X89921501Y-76145238D01*
X89959149Y-76431206D01*
X89959150Y-76431211D01*
X89959151Y-76431217D01*
X90033809Y-76709844D01*
X90033814Y-76709860D01*
X90144191Y-76976336D01*
X90144199Y-76976352D01*
X90288420Y-77226148D01*
X90288431Y-77226164D01*
X90464024Y-77455002D01*
X90464030Y-77455009D01*
X90667990Y-77658969D01*
X90667996Y-77658974D01*
X90896844Y-77834575D01*
X90896851Y-77834579D01*
X91146647Y-77978800D01*
X91146663Y-77978808D01*
X91413139Y-78089185D01*
X91413145Y-78089186D01*
X91413155Y-78089191D01*
X91691783Y-78163849D01*
X91977772Y-78201500D01*
X91977779Y-78201500D01*
X92266221Y-78201500D01*
X92266228Y-78201500D01*
X92552217Y-78163849D01*
X92830845Y-78089191D01*
X92830857Y-78089185D01*
X92830860Y-78089185D01*
X93097336Y-77978808D01*
X93097339Y-77978806D01*
X93097345Y-77978804D01*
X93347156Y-77834575D01*
X93576004Y-77658974D01*
X93779974Y-77455004D01*
X93955575Y-77226156D01*
X94099804Y-76976345D01*
X94210191Y-76709845D01*
X94284849Y-76431217D01*
X94322500Y-76145228D01*
X94322500Y-75856772D01*
X94284849Y-75570783D01*
X94210191Y-75292155D01*
X94210186Y-75292145D01*
X94210185Y-75292139D01*
X94099808Y-75025663D01*
X94099800Y-75025647D01*
X93955579Y-74775851D01*
X93955575Y-74775844D01*
X93779974Y-74546996D01*
X93779969Y-74546990D01*
X93576009Y-74343030D01*
X93576002Y-74343024D01*
X93347164Y-74167431D01*
X93347162Y-74167429D01*
X93347156Y-74167425D01*
X93347151Y-74167422D01*
X93347148Y-74167420D01*
X93097352Y-74023199D01*
X93097336Y-74023191D01*
X92830860Y-73912814D01*
X92830848Y-73912810D01*
X92830845Y-73912809D01*
X92552217Y-73838151D01*
X92552211Y-73838150D01*
X92552206Y-73838149D01*
X92266238Y-73800501D01*
X92266233Y-73800500D01*
X92266228Y-73800500D01*
X91977772Y-73800500D01*
X91977766Y-73800500D01*
X91977761Y-73800501D01*
X91691793Y-73838149D01*
X91691786Y-73838150D01*
X91691783Y-73838151D01*
X91413155Y-73912809D01*
X91413139Y-73912814D01*
X91146663Y-74023191D01*
X91146647Y-74023199D01*
X90896851Y-74167420D01*
X90896835Y-74167431D01*
X90667997Y-74343024D01*
X90667990Y-74343030D01*
X90464030Y-74546990D01*
X90464024Y-74546997D01*
X90288431Y-74775835D01*
X90288420Y-74775851D01*
X90144199Y-75025647D01*
X90144191Y-75025663D01*
X90033814Y-75292139D01*
X90033809Y-75292155D01*
X89959152Y-75570780D01*
X89959149Y-75570793D01*
X89921501Y-75856761D01*
X89921500Y-75856778D01*
X87622500Y-75856778D01*
X87622500Y-71625500D01*
X87642185Y-71558461D01*
X87694989Y-71512706D01*
X87746500Y-71501500D01*
X206137500Y-71501500D01*
X206204539Y-71521185D01*
G37*
%TD.AperFunction*%
%TA.AperFunction,Conductor*%
G36*
X137844539Y-106553185D02*
G01*
X137890294Y-106605989D01*
X137901500Y-106657500D01*
X137901500Y-106820942D01*
X137881815Y-106887981D01*
X137877818Y-106893827D01*
X137783132Y-107024151D01*
X137668760Y-107248616D01*
X137590910Y-107488214D01*
X137551500Y-107737038D01*
X137551500Y-107988961D01*
X137590910Y-108237785D01*
X137668760Y-108477383D01*
X137783132Y-108701848D01*
X137890539Y-108849683D01*
X137914019Y-108915489D01*
X137898193Y-108983543D01*
X137848087Y-109032238D01*
X137793400Y-109046527D01*
X135907636Y-109094880D01*
X135907625Y-109094881D01*
X135786927Y-109112707D01*
X135729625Y-109128418D01*
X135729623Y-109128418D01*
X135729622Y-109128419D01*
X135717981Y-109133185D01*
X135616698Y-109174651D01*
X135616681Y-109174660D01*
X135506989Y-109235958D01*
X135501930Y-109237110D01*
X135498011Y-109240507D01*
X135468217Y-109244790D01*
X135438865Y-109251478D01*
X135433987Y-109249712D01*
X135428853Y-109250451D01*
X135401471Y-109237946D01*
X135373165Y-109227703D01*
X135370015Y-109223581D01*
X135365297Y-109221426D01*
X135349022Y-109196101D01*
X135330748Y-109172182D01*
X135329570Y-109165834D01*
X135327523Y-109162648D01*
X135322500Y-109127713D01*
X135322500Y-108905056D01*
X135342185Y-108838017D01*
X135346163Y-108832196D01*
X135440870Y-108701845D01*
X135555241Y-108477379D01*
X135633090Y-108237785D01*
X135672500Y-107988962D01*
X135672500Y-107737038D01*
X135633090Y-107488215D01*
X135555241Y-107248621D01*
X135555239Y-107248618D01*
X135555239Y-107248616D01*
X135510771Y-107161344D01*
X135440870Y-107024155D01*
X135374035Y-106932164D01*
X135292798Y-106820350D01*
X135292794Y-106820345D01*
X135217630Y-106745181D01*
X135184145Y-106683858D01*
X135189129Y-106614166D01*
X135231001Y-106558233D01*
X135296465Y-106533816D01*
X135305311Y-106533500D01*
X137777500Y-106533500D01*
X137844539Y-106553185D01*
G37*
%TD.AperFunction*%
%TD*%
%TA.AperFunction,Conductor*%
%TO.N,+5V*%
G36*
X137738039Y-83585685D02*
G01*
X137783794Y-83638489D01*
X137795000Y-83690000D01*
X137795000Y-84111089D01*
X137781485Y-84167384D01*
X137668760Y-84388616D01*
X137590910Y-84628214D01*
X137551500Y-84877038D01*
X137551500Y-85128961D01*
X137590910Y-85377785D01*
X137668760Y-85617383D01*
X137781485Y-85838616D01*
X137795000Y-85894911D01*
X137795000Y-96413566D01*
X137795000Y-98425000D01*
X135255000Y-98425000D01*
X135361276Y-85990627D01*
X135381531Y-85923764D01*
X135384920Y-85918852D01*
X135440870Y-85841845D01*
X135555241Y-85617379D01*
X135633090Y-85377785D01*
X135672500Y-85128962D01*
X135672500Y-84877038D01*
X135633090Y-84628215D01*
X135555241Y-84388621D01*
X135555239Y-84388618D01*
X135555239Y-84388616D01*
X135440867Y-84164150D01*
X135401658Y-84110184D01*
X135378177Y-84044378D01*
X135377980Y-84036264D01*
X135380949Y-83688939D01*
X135401205Y-83622071D01*
X135454399Y-83576769D01*
X135504944Y-83566000D01*
X137671000Y-83566000D01*
X137738039Y-83585685D01*
G37*
%TD.AperFunction*%
%TD*%
%TA.AperFunction,Conductor*%
%TO.N,+5V*%
G36*
X142818039Y-83712685D02*
G01*
X142863794Y-83765489D01*
X142875000Y-83817000D01*
X142875000Y-84111089D01*
X142861485Y-84167384D01*
X142748760Y-84388616D01*
X142670910Y-84628214D01*
X142631500Y-84877038D01*
X142631500Y-85128961D01*
X142670910Y-85377785D01*
X142748760Y-85617383D01*
X142861485Y-85838616D01*
X142875000Y-85894911D01*
X142875000Y-96392999D01*
X142875000Y-97663000D01*
X140462000Y-97663000D01*
X140462000Y-85963162D01*
X140481685Y-85896123D01*
X140485683Y-85890276D01*
X140520867Y-85841849D01*
X140520866Y-85841849D01*
X140520870Y-85841845D01*
X140635241Y-85617379D01*
X140713090Y-85377785D01*
X140752500Y-85128962D01*
X140752500Y-84877038D01*
X140713090Y-84628215D01*
X140635241Y-84388621D01*
X140635239Y-84388618D01*
X140635239Y-84388616D01*
X140593747Y-84307184D01*
X140520870Y-84164155D01*
X140515730Y-84157080D01*
X140485682Y-84115722D01*
X140478529Y-84095677D01*
X140467023Y-84077772D01*
X140463568Y-84053745D01*
X140462202Y-84049916D01*
X140462000Y-84042837D01*
X140462000Y-83817000D01*
X140481685Y-83749961D01*
X140534489Y-83704206D01*
X140586000Y-83693000D01*
X142751000Y-83693000D01*
X142818039Y-83712685D01*
G37*
%TD.AperFunction*%
%TD*%
%TA.AperFunction,Conductor*%
%TO.N,/V+*%
G36*
X101833051Y-95206061D02*
G01*
X101863056Y-95210011D01*
X102011234Y-95229519D01*
X102027125Y-95232680D01*
X102200752Y-95279204D01*
X102216090Y-95284410D01*
X102382129Y-95353185D01*
X102396672Y-95360358D01*
X102552316Y-95450218D01*
X102565805Y-95459231D01*
X102616837Y-95498391D01*
X102616852Y-95498402D01*
X102616864Y-95498411D01*
X102633846Y-95510889D01*
X102642294Y-95516829D01*
X102659749Y-95528567D01*
X102790626Y-95588338D01*
X102857665Y-95608023D01*
X102857669Y-95608024D01*
X103000085Y-95628500D01*
X105542500Y-95628500D01*
X105609539Y-95648185D01*
X105655294Y-95700989D01*
X105666500Y-95752500D01*
X105666500Y-106429000D01*
X105646815Y-106496039D01*
X105594011Y-106541794D01*
X105542500Y-106553000D01*
X102540407Y-106553000D01*
X102484112Y-106539485D01*
X102341383Y-106466760D01*
X102101785Y-106388910D01*
X101852962Y-106349500D01*
X101601038Y-106349500D01*
X101476626Y-106369205D01*
X101352214Y-106388910D01*
X101112616Y-106466760D01*
X100969888Y-106539485D01*
X100913593Y-106553000D01*
X87746500Y-106553000D01*
X87679461Y-106533315D01*
X87633706Y-106480511D01*
X87622500Y-106429000D01*
X87622500Y-100832500D01*
X87642185Y-100765461D01*
X87694989Y-100719706D01*
X87746500Y-100708500D01*
X95887990Y-100708500D01*
X95888000Y-100708500D01*
X95995456Y-100696947D01*
X96046967Y-100685741D01*
X96081197Y-100674347D01*
X96149497Y-100651616D01*
X96149501Y-100651613D01*
X96149504Y-100651613D01*
X96270543Y-100573825D01*
X96323347Y-100528070D01*
X96417567Y-100419336D01*
X96477338Y-100288459D01*
X96497023Y-100221420D01*
X96497024Y-100221416D01*
X96517500Y-100079000D01*
X96517500Y-95752500D01*
X96537185Y-95685461D01*
X96589989Y-95639706D01*
X96641500Y-95628500D01*
X100453921Y-95628500D01*
X100459177Y-95628390D01*
X100474963Y-95628062D01*
X100485281Y-95627632D01*
X100506298Y-95626317D01*
X100646516Y-95594060D01*
X100704536Y-95571628D01*
X100705494Y-95571325D01*
X100711685Y-95568865D01*
X100711689Y-95568864D01*
X100837139Y-95498409D01*
X100888198Y-95459228D01*
X100901684Y-95450216D01*
X101057325Y-95360358D01*
X101071868Y-95353185D01*
X101237896Y-95284415D01*
X101253242Y-95279205D01*
X101426870Y-95232682D01*
X101442774Y-95229519D01*
X101620948Y-95206060D01*
X101637134Y-95205000D01*
X101816866Y-95205000D01*
X101833051Y-95206061D01*
G37*
%TD.AperFunction*%
%TD*%
%TA.AperFunction,Conductor*%
%TO.N,+3V3*%
G36*
X166059039Y-86379685D02*
G01*
X166104794Y-86432489D01*
X166116000Y-86484000D01*
X166116000Y-89157000D01*
X166096315Y-89224039D01*
X166043511Y-89269794D01*
X165992000Y-89281000D01*
X164366811Y-89281000D01*
X164299772Y-89261315D01*
X164279130Y-89244681D01*
X164237654Y-89203205D01*
X164237649Y-89203201D01*
X164033848Y-89055132D01*
X164033847Y-89055131D01*
X164033845Y-89055130D01*
X163963747Y-89019413D01*
X163809383Y-88940760D01*
X163569785Y-88862910D01*
X163320962Y-88823500D01*
X163069038Y-88823500D01*
X162944626Y-88843205D01*
X162820214Y-88862910D01*
X162580616Y-88940760D01*
X162356151Y-89055132D01*
X162152350Y-89203201D01*
X162152345Y-89203205D01*
X162110870Y-89244681D01*
X162049547Y-89278166D01*
X162023189Y-89281000D01*
X161290000Y-89281000D01*
X148515931Y-110296405D01*
X148094998Y-110988907D01*
X148043356Y-111035970D01*
X147989037Y-111048500D01*
X140423737Y-111048500D01*
X140229336Y-111079290D01*
X140229335Y-111079290D01*
X140112652Y-111117203D01*
X140112649Y-111117204D01*
X140107784Y-111118785D01*
X140042139Y-111140114D01*
X140042136Y-111140115D01*
X140042134Y-111140116D01*
X139973099Y-111175291D01*
X139968994Y-111177382D01*
X139968976Y-111177390D01*
X139923297Y-111200664D01*
X139905326Y-111208108D01*
X139819136Y-111236114D01*
X139819129Y-111236117D01*
X139643752Y-111325476D01*
X139598466Y-111358379D01*
X139484513Y-111441171D01*
X139484511Y-111441173D01*
X139484510Y-111441173D01*
X134147171Y-116778512D01*
X134057674Y-116901692D01*
X134045038Y-116916486D01*
X132595572Y-118365952D01*
X132587251Y-118373549D01*
X132582211Y-118377746D01*
X132504218Y-118429861D01*
X132427308Y-118506769D01*
X132422962Y-118510390D01*
X132414288Y-118514148D01*
X132391056Y-118529672D01*
X132271844Y-118579052D01*
X132271835Y-118579057D01*
X132035656Y-118715415D01*
X131819289Y-118881439D01*
X131819282Y-118881445D01*
X131626445Y-119074282D01*
X131626439Y-119074289D01*
X131460415Y-119290656D01*
X131324054Y-119526840D01*
X131324047Y-119526855D01*
X131219684Y-119778811D01*
X131149097Y-120042245D01*
X131113501Y-120312627D01*
X131113500Y-120312643D01*
X131113500Y-121525356D01*
X131113501Y-121525372D01*
X131149097Y-121795754D01*
X131219684Y-122059188D01*
X131324047Y-122311144D01*
X131324054Y-122311159D01*
X131460415Y-122547343D01*
X131626439Y-122763710D01*
X131626445Y-122763717D01*
X131819282Y-122956554D01*
X131819289Y-122956560D01*
X132035656Y-123122584D01*
X132271840Y-123258945D01*
X132271855Y-123258952D01*
X132399225Y-123311710D01*
X132523810Y-123363315D01*
X132787244Y-123433902D01*
X133057637Y-123469500D01*
X133057644Y-123469500D01*
X133330356Y-123469500D01*
X133330363Y-123469500D01*
X133600756Y-123433902D01*
X133864190Y-123363315D01*
X134116156Y-123258947D01*
X134352344Y-123122584D01*
X134568712Y-122956559D01*
X134761559Y-122763712D01*
X134851126Y-122646985D01*
X134907551Y-122605784D01*
X134977297Y-122601629D01*
X135038218Y-122635841D01*
X135070971Y-122697557D01*
X135073500Y-122722471D01*
X135073500Y-122768999D01*
X135073501Y-122769019D01*
X135084000Y-122871796D01*
X135084001Y-122871799D01*
X135139185Y-123038331D01*
X135139186Y-123038334D01*
X135231288Y-123187656D01*
X135355344Y-123311712D01*
X135504666Y-123403814D01*
X135671203Y-123458999D01*
X135773991Y-123469500D01*
X138534008Y-123469499D01*
X138636797Y-123458999D01*
X138803334Y-123403814D01*
X138952656Y-123311712D01*
X139076712Y-123187656D01*
X139168814Y-123038334D01*
X139223999Y-122871797D01*
X139234500Y-122769009D01*
X139234499Y-119068992D01*
X139223999Y-118966203D01*
X139168814Y-118799666D01*
X139076712Y-118650344D01*
X139010601Y-118584233D01*
X138977116Y-118522910D01*
X138982100Y-118453218D01*
X139010599Y-118408873D01*
X141832655Y-115586819D01*
X141893978Y-115553334D01*
X141920336Y-115550500D01*
X145418000Y-115550500D01*
X145485039Y-115570185D01*
X145530794Y-115622989D01*
X145542000Y-115674500D01*
X145542000Y-119712342D01*
X145532561Y-119759795D01*
X145524688Y-119778800D01*
X145524686Y-119778807D01*
X145524685Y-119778810D01*
X145502570Y-119861344D01*
X145454097Y-120042247D01*
X145418501Y-120312627D01*
X145418500Y-120312643D01*
X145418500Y-121525356D01*
X145418501Y-121525372D01*
X145454097Y-121795754D01*
X145524684Y-122059188D01*
X145532561Y-122078204D01*
X145542000Y-122125656D01*
X145542000Y-124971000D01*
X145522315Y-125038039D01*
X145469511Y-125083794D01*
X145418000Y-125095000D01*
X127378000Y-125095000D01*
X127310961Y-125075315D01*
X127265206Y-125022511D01*
X127254000Y-124971000D01*
X127254000Y-122054298D01*
X127258225Y-122022205D01*
X127278468Y-121946656D01*
X127318902Y-121795756D01*
X127354500Y-121525363D01*
X127354500Y-120312637D01*
X127318902Y-120042244D01*
X127258225Y-119815793D01*
X127254000Y-119783700D01*
X127254000Y-114499754D01*
X127273685Y-114432715D01*
X127317510Y-114391509D01*
X130442386Y-112645255D01*
X130502876Y-112629500D01*
X132432422Y-112629500D01*
X132626826Y-112598709D01*
X132814026Y-112537884D01*
X132989405Y-112448524D01*
X133148646Y-112332828D01*
X135025828Y-110455646D01*
X135141524Y-110296405D01*
X135230884Y-110121026D01*
X135276091Y-109981891D01*
X135315527Y-109924218D01*
X135333514Y-109911977D01*
X135863286Y-109615927D01*
X135920592Y-109600215D01*
X140843000Y-109474000D01*
X157442887Y-86411560D01*
X157498027Y-86368650D01*
X157543528Y-86360000D01*
X165992000Y-86360000D01*
X166059039Y-86379685D01*
G37*
%TD.AperFunction*%
%TD*%
%TA.AperFunction,Conductor*%
%TO.N,GND*%
G36*
X112317382Y-101641607D02*
G01*
X112317385Y-101641608D01*
X112317388Y-101641611D01*
X112516112Y-101756344D01*
X112516117Y-101756346D01*
X112516123Y-101756349D01*
X112607480Y-101794190D01*
X112728113Y-101844158D01*
X112949762Y-101903548D01*
X113177266Y-101933500D01*
X113177273Y-101933500D01*
X113406727Y-101933500D01*
X113406734Y-101933500D01*
X113634238Y-101903548D01*
X113855887Y-101844158D01*
X114067888Y-101756344D01*
X114266612Y-101641611D01*
X114320840Y-101600000D01*
X117094000Y-101600000D01*
X117094000Y-104013000D01*
X114782499Y-104013000D01*
X114782499Y-103985128D01*
X114776091Y-103925517D01*
X114725796Y-103790669D01*
X114725795Y-103790668D01*
X114725793Y-103790664D01*
X114639547Y-103675455D01*
X114639544Y-103675452D01*
X114524335Y-103589206D01*
X114524328Y-103589202D01*
X114389482Y-103538908D01*
X114389483Y-103538908D01*
X114329883Y-103532501D01*
X114329881Y-103532500D01*
X114329873Y-103532500D01*
X114329864Y-103532500D01*
X112254129Y-103532500D01*
X112254123Y-103532501D01*
X112194516Y-103538908D01*
X112059671Y-103589202D01*
X112059664Y-103589206D01*
X111944455Y-103675452D01*
X111944452Y-103675455D01*
X111887000Y-103752200D01*
X111887000Y-101600000D01*
X112263159Y-101600000D01*
X112317382Y-101641607D01*
G37*
%TD.AperFunction*%
%TD*%
M02*
